<svg width="11" height="11" viewBox="0 0 11 11" fill="none" xmlns="http://www.w3.org/2000/svg">
<path d="M10.5703 1.29256H8.45434V0.859375C8.45434 0.622059 8.26197 0.429688 8.02465 0.429688C7.78733 0.429688 7.59496 0.622059 7.59496 0.859375V1.29256H3.40504V0.859375C3.40504 0.622059 3.21267 0.429688 2.97535 0.429688C2.73803 0.429688 2.54566 0.622059 2.54566 0.859375V1.29256H0.429688C0.192371 1.29256 0 1.48496 0 1.72225V10.1406C0 10.3779 0.192371 10.5703 0.429688 10.5703H10.5703C10.8076 10.5703 11 10.3779 11 10.1406V1.72225C11 1.48496 10.8076 1.29256 10.5703 1.29256ZM10.1406 9.71094H0.859375V2.15194H2.54566V2.58515C2.54566 2.82247 2.73803 3.01484 2.97535 3.01484C3.21267 3.01484 3.40504 2.82247 3.40504 2.58515V2.15194H7.59494V2.58515C7.59494 2.82247 7.78731 3.01484 8.02463 3.01484C8.26195 3.01484 8.45432 2.82247 8.45432 2.58515V2.15194H10.1406V9.71094Z" fill="#9C9C9C"/>
<path d="M5.5 5.62783C5.82037 5.62783 6.08008 5.36812 6.08008 5.04775C6.08008 4.72737 5.82037 4.46766 5.5 4.46766C5.17963 4.46766 4.91992 4.72737 4.91992 5.04775C4.91992 5.36812 5.17963 5.62783 5.5 5.62783Z" fill="#9C9C9C"/>
<path d="M5.5 8.15247C5.82037 8.15247 6.08008 7.89276 6.08008 7.5724C6.08008 7.25203 5.82037 6.99232 5.5 6.99232C5.17963 6.99232 4.91992 7.25203 4.91992 7.5724C4.91992 7.89276 5.17963 8.15247 5.5 8.15247Z" fill="#9C9C9C"/>
<path d="M2.97502 5.62783C3.29539 5.62783 3.5551 5.36812 3.5551 5.04775C3.5551 4.72737 3.29539 4.46766 2.97502 4.46766C2.65465 4.46766 2.39494 4.72737 2.39494 5.04775C2.39494 5.36812 2.65465 5.62783 2.97502 5.62783Z" fill="#9C9C9C"/>
<path d="M8.02499 5.62783C8.34536 5.62783 8.60507 5.36812 8.60507 5.04775C8.60507 4.72737 8.34536 4.46766 8.02499 4.46766C7.70462 4.46766 7.44491 4.72737 7.44491 5.04775C7.44491 5.36812 7.70462 5.62783 8.02499 5.62783Z" fill="#9C9C9C"/>
<path d="M2.97502 8.15247C3.29539 8.15247 3.5551 7.89276 3.5551 7.5724C3.5551 7.25203 3.29539 6.99232 2.97502 6.99232C2.65465 6.99232 2.39494 7.25203 2.39494 7.5724C2.39494 7.89276 2.65465 8.15247 2.97502 8.15247Z" fill="#9C9C9C"/>
<path d="M8.02499 8.15247C8.34536 8.15247 8.60507 7.89276 8.60507 7.5724C8.60507 7.25203 8.34536 6.99232 8.02499 6.99232C7.70462 6.99232 7.44491 7.25203 7.44491 7.5724C7.44491 7.89276 7.70462 8.15247 8.02499 8.15247Z" fill="#9C9C9C"/>
</svg>
