<svg width="20" height="20" fill="none" xmlns="http://www.w3.org/2000/svg"><path d="M4.688 7.93H3.143C3.404 4.375 6.38 1.563 10 1.563a6.904 6.904 0 016.45 4.49.781.781 0 001.466-.543 8.417 8.417 0 00-3.042-3.96A8.383 8.383 0 0010 0a8.382 8.382 0 00-5.966 2.471 8.38 8.38 0 00-2.47 5.878A3.126 3.126 0 000 11.055v2.656a3.129 3.129 0 003.125 3.125h1.563a.78.78 0 00.78-.781V8.71a.781.781 0 00-.78-.781zm-.782 7.343h-.781c-.862 0-1.563-.7-1.563-1.562v-2.656c0-.862.701-1.563 1.563-1.563h.781v5.781z" fill="#fff"/><path d="M16.875 7.93h-1.563a.781.781 0 00-.78.78v8.165c0 .43-.351.781-.782.781h-2.383v.025a1.562 1.562 0 100 1.513v.025h2.383a2.347 2.347 0 002.344-2.344v-.04h.781A3.129 3.129 0 0020 13.712v-2.656a3.129 3.129 0 00-3.125-3.125zm1.563 5.78c0 .862-.701 1.563-1.563 1.563h-.781v-5.78h.781c.862 0 1.563.7 1.563 1.562v2.656z" fill="#fff"/></svg>