<svg width="49" height="49" viewBox="0 0 49 49" fill="none" xmlns="http://www.w3.org/2000/svg">
<g clip-path="url(#clip0)">
<path d="M33.543 14.0371L33.0122 13.9039C30.4505 13.2642 27.7636 14.3075 26.3049 16.5083C26.0668 16.8913 26.1841 17.3949 26.5671 17.633C26.9344 17.8615 27.416 17.7639 27.6655 17.4107C28.7429 15.7882 30.7243 15.0185 32.6145 15.4883L33.1461 15.6214C33.5844 15.7279 34.026 15.4589 34.1326 15.0206C34.2379 14.5868 33.9754 14.1486 33.543 14.0371Z" fill="#6400D1"/>
<path d="M42.081 23.4521C41.8745 23.3834 41.6492 23.4 41.4549 23.4981H41.4573C37.6848 25.3838 33.2445 25.3838 29.472 23.4981C29.0695 23.2947 28.5781 23.4561 28.3747 23.8586C28.2765 24.0528 28.2599 24.2782 28.3286 24.4847L29.1085 26.8334C30.2614 30.3433 34.0413 32.2541 37.5512 31.1013C39.5714 30.4377 41.1557 28.8534 41.8191 26.8334L42.5982 24.4847C42.7405 24.0567 42.5089 23.5945 42.081 23.4521ZM40.2699 26.3198C39.4001 28.9737 36.5436 30.4199 33.8896 29.55C32.3601 29.0487 31.1606 27.8492 30.6594 26.3198L30.4495 25.6869C33.6949 26.8302 37.2336 26.8302 40.479 25.6869L40.2699 26.3198Z" fill="#6400D1"/>
<path d="M45.7098 16.845C45.7015 16.8315 45.6926 16.8183 45.6834 16.8052C44.2236 14.6067 41.5383 13.5648 38.9778 14.2033L38.4453 14.3372C38.0155 14.4742 37.7783 14.9337 37.9153 15.3634C38.0403 15.7555 38.4375 15.9932 38.8422 15.9183L39.3755 15.7852C41.2651 15.3159 43.2458 16.0855 44.3228 17.7076C44.561 18.0906 45.0647 18.208 45.4476 17.9698C45.8306 17.7316 45.948 17.228 45.7098 16.845Z" fill="#6400D1"/>
<path d="M48.4421 6.60063C40.0171 3.79784 30.9111 3.79784 22.4861 6.60063C22.1534 6.71221 21.9291 7.02387 21.9291 7.37483V13.4573C15.0055 14.9808 7.79833 14.5973 1.07555 12.3475C0.647819 12.2045 0.185077 12.4354 0.0421603 12.8631C0.0142916 12.9465 2.77229e-09 13.0338 2.77229e-09 13.1217V25.1112C-0.00010208 31.7315 2.81903 38.0385 7.75178 42.4539C10.6854 45.0779 15.0876 45.1923 18.1536 42.7242L18.4035 42.5233C21.7761 39.8217 24.3192 36.2246 25.7413 32.1443C26.8467 33.8418 28.1714 35.3861 29.6809 36.7372C32.6143 39.3611 37.0162 39.4756 40.0819 37.0075L40.3318 36.8066C45.8297 32.4023 49.0206 25.7325 48.9999 18.6881V7.37483C48.9998 7.02366 48.7751 6.7119 48.4421 6.60063ZM17.3794 41.2517L17.1344 41.4526C14.6891 43.4211 11.178 43.3288 8.83958 41.2346C4.2536 37.1297 1.63282 31.266 1.63333 25.1112V14.2397C8.21493 16.244 15.1962 16.553 21.9291 15.138V19.3978C21.9291 19.8752 21.9441 20.3528 21.974 20.8302C21.9838 20.9886 22.005 21.1454 22.0181 21.3039C22.0442 21.6207 22.0687 21.9384 22.1079 22.2545C22.1324 22.4464 22.1676 22.6358 22.1961 22.8261C22.2386 23.1071 22.2778 23.3888 22.3301 23.6681C22.3676 23.8706 22.4175 24.0715 22.4607 24.2733C22.5179 24.5379 22.571 24.8033 22.6371 25.0654C22.6902 25.2745 22.7539 25.4811 22.8119 25.6885C22.883 25.9401 22.9507 26.1924 23.03 26.4415C23.0969 26.6522 23.1737 26.8596 23.2464 27.0679C23.328 27.3129 23.4138 27.5538 23.5069 27.7939C23.5886 28.003 23.6776 28.208 23.7641 28.4137C23.8629 28.6489 23.9593 28.8841 24.0655 29.1153C24.1602 29.3219 24.2639 29.5236 24.3652 29.7286C24.4526 29.905 24.5285 30.0846 24.6241 30.2594C23.4229 34.5931 20.8882 38.4389 17.3794 41.2517ZM47.3666 18.6881C47.3852 25.2376 44.4191 31.4389 39.3085 35.5351L39.0586 35.736C36.6144 37.702 33.1062 37.6097 30.7687 35.5179C28.9324 33.8754 27.3921 31.9296 26.2149 29.7653C24.9161 27.3835 24.0741 24.7799 23.7323 22.0887C23.6193 21.1947 23.5626 20.2947 23.5624 19.3937V7.96773C31.3083 5.51937 39.6207 5.51937 47.3666 7.96773V18.6881Z" fill="#6400D1"/>
<path d="M9.83422 20.9536C9.45805 20.7042 8.9509 20.8069 8.70151 21.1831L8.34707 21.7196C7.40107 23.1515 5.79949 24.0129 4.08327 24.0128C3.63226 24.0128 3.2666 24.3785 3.2666 24.8295C3.2666 25.2805 3.63226 25.6461 4.08327 25.6461C6.34706 25.6469 8.45998 24.5113 9.70845 22.6229L10.0637 22.0863C10.3131 21.7101 10.2104 21.203 9.83422 20.9536Z" fill="#6400D1"/>
<path d="M18.3373 32.9936H18.3332C15.2351 30.9071 11.1813 30.9071 8.08321 32.9936C6.77297 33.8741 6.42457 35.6501 7.30503 36.9603C7.83403 37.7476 8.71909 38.221 9.66754 38.2244C10.1092 38.2242 10.5446 38.1207 10.9391 37.9222C12.3684 37.2093 14.0497 37.2093 15.4789 37.9222C16.8853 38.6332 18.6019 38.0696 19.3129 36.6632C19.9668 35.3697 19.5473 33.7915 18.3373 32.9936ZM17.7615 36.0488C17.4228 36.5586 16.7574 36.7361 16.2098 36.4628C14.3188 35.5184 12.0935 35.5184 10.2025 36.4628C9.65499 36.7372 8.98879 36.5595 8.65079 36.0488C8.27564 35.4867 8.42662 34.727 8.98808 34.3509C11.5366 32.6349 14.8708 32.6349 17.4193 34.3509C17.9825 34.7254 18.1356 35.4854 17.7615 36.0488Z" fill="#6400D1"/>
<path d="M22.3464 28.2882L20.7515 24.5675L20.7433 24.5536C20.6294 24.2306 20.3247 24.0142 19.9822 24.013C18.2662 24.0133 16.6647 23.1518 15.7192 21.7198L15.3631 21.1832C15.1137 20.8072 14.6068 20.7048 14.2308 20.9541C13.8549 21.2035 13.7524 21.7105 14.0018 22.0865L14.3578 22.623C15.3847 24.1703 17.005 25.2247 18.8356 25.5369L17.6555 28.2882C17.1 29.5835 17.6997 31.084 18.995 31.6396C20.2904 32.1951 21.7909 31.5954 22.3464 30.3001C22.622 29.6577 22.622 28.9305 22.3464 28.2882ZM20.7678 29.8015C20.4649 30.2248 19.8762 30.3224 19.453 30.0195C19.3689 29.9593 19.2952 29.8857 19.2349 29.8015C19.0612 29.5454 19.0304 29.2182 19.1533 28.9342L19.9977 26.9636L20.8421 28.9342C20.9677 29.217 20.9396 29.5442 20.7678 29.8015Z" fill="#6400D1"/>
</g>
<defs>
<clipPath id="clip0">
<rect width="49" height="49" fill="white"/>
</clipPath>
</defs>
</svg>
