<svg width="46" height="46" viewBox="0 0 46 46" fill="none" xmlns="http://www.w3.org/2000/svg">
<g clip-path="url(#clip0)">
<path d="M38.9853 35.8989L36.0161 25.6951C35.8142 24.9955 35.3373 24.4077 34.6944 24.066C34.3915 23.9055 34.0594 23.8075 33.7178 23.7778V11.895L34.5833 12.1656C35.3679 12.4109 36.2237 12.219 36.8284 11.6622C37.4331 11.1053 37.6948 10.2682 37.515 9.46613C37.3351 8.66405 36.741 8.01882 35.9564 7.77356L30.7142 6.13525L35.9564 4.49775C37.169 4.11665 37.8431 2.82476 37.462 1.61211C37.0809 0.399545 35.7891 -0.27461 34.5765 0.106489L23.0003 3.72432L11.4189 0.106578C10.2137 -0.249725 8.94568 0.427305 8.57132 1.62702C8.19696 2.82673 8.85494 4.10479 10.0489 4.49703L15.2888 6.13534L10.0442 7.77293C8.95826 8.11153 8.28302 9.19311 8.4556 10.3174C8.62819 11.4418 9.59674 12.2711 10.7342 12.2684C10.9681 12.2679 11.2006 12.2327 11.4242 12.1641L12.2828 11.8957V23.7785C11.9412 23.8076 11.609 23.9054 11.3061 24.066C10.6617 24.4089 10.1842 24.9988 9.98287 25.7005L7.01611 35.8967C6.58704 37.2876 7.32075 38.7713 8.68658 39.2745L16.8673 42.1455V45.2334C16.8673 45.6568 17.2105 46 17.6339 46H28.3667C28.7901 46 29.1333 45.6568 29.1333 45.2334V42.1455L37.3155 39.2721C38.6791 38.769 39.4121 37.2883 38.9853 35.8989ZM35.0364 1.57006C35.4409 1.44303 35.8719 1.66799 35.9989 2.07262C36.1259 2.47717 35.9009 2.90813 35.4964 3.03516L28.1413 5.33505L25.5662 4.52551L35.0364 1.57006ZM10.5042 3.03435C10.3101 2.97335 10.1481 2.83769 10.054 2.65721C9.95996 2.47672 9.94155 2.26632 10.0028 2.07217C10.1319 1.66996 10.5603 1.44617 10.9642 1.57006L35.4964 9.23632C35.9007 9.36336 36.1255 9.79414 35.9985 10.1984C35.8714 10.6028 35.4407 10.8276 35.0364 10.7005L10.5042 3.03435ZM30.9962 27.2836L33.224 34.9499L26.7353 37.2344C26.5829 37.286 26.4361 37.3525 26.2968 37.4329C26.2202 37.3923 26.1434 37.3563 26.0668 37.3218V34.2852C28.0263 32.8907 29.1333 30.2167 29.1333 27.6009C29.1333 23.8529 27.2811 21.7569 23.7669 21.4971V8.78407L32.1845 11.4144V24.1404C31.1287 24.8034 30.6431 26.0879 30.9962 27.2836ZM23.0003 33.734C20.1209 33.734 18.4006 30.6161 18.4006 27.6009C18.4006 24.4202 19.8196 23.0011 23.0003 23.0011C26.1811 23.0011 27.6001 24.4202 27.6001 27.6009C27.6001 30.6161 25.8798 33.734 23.0003 33.734ZM24.5335 35.0373V36.8618C24.2797 36.8231 24.0236 36.8026 23.7669 36.8005H22.2336C21.977 36.8026 21.7207 36.8231 21.467 36.8618V35.0373C21.9639 35.1891 22.4807 35.2666 23.0003 35.2673C23.52 35.2666 24.0366 35.1891 24.5335 35.0373ZM13.8123 24.1404V11.4174L22.2337 8.78794V21.4972C18.7195 21.7571 16.8674 23.853 16.8674 27.601C16.8674 30.2168 17.9744 32.8908 19.9338 34.2852V37.3257C19.8572 37.3625 19.7805 37.3962 19.7039 37.4368C19.5682 37.3576 19.4249 37.2923 19.276 37.2421L12.7765 34.9537L14.9998 27.2875C15.3544 26.0908 14.869 24.8045 13.8123 24.1404ZM10.9765 10.6968C10.7152 10.7812 10.4287 10.7198 10.2251 10.5357C10.0214 10.3516 9.9314 10.0727 9.98898 9.80429C10.0466 9.53585 10.243 9.31844 10.5043 9.23408L17.8586 6.93419L20.4368 7.73915L12.7521 10.1441L10.9765 10.6968ZM17.1011 40.6007L9.19561 37.8255C8.60573 37.5848 8.2983 36.9325 8.48804 36.3244L11.4534 26.1336C11.5397 25.8292 11.7451 25.5725 12.0229 25.4214C12.2635 25.292 12.5461 25.2644 12.8072 25.3448C13.4087 25.5793 13.7255 26.2399 13.5317 26.8558L11.1015 35.2197C10.9876 35.6107 11.1995 36.0225 11.5836 36.1573L18.3032 38.5239C17.7508 39.1165 17.3399 39.8266 17.1011 40.6007ZM27.6001 44.4668H18.4006V42.1669C18.4031 40.051 20.1177 38.3364 22.2337 38.3338H23.767C25.8829 38.3363 27.5976 40.051 27.6002 42.1669V44.4668H27.6001ZM36.8058 37.824L28.9033 40.6023C28.6645 39.8281 28.2536 39.1181 27.7013 38.5255L34.4208 36.1589C34.805 36.0241 35.0168 35.6123 34.903 35.2214L32.4674 26.8536C32.2769 26.2422 32.5887 25.5871 33.1834 25.3496C33.4469 25.2646 33.7337 25.2906 33.9777 25.4216C34.2542 25.5715 34.4589 25.8261 34.5458 26.1285L37.5134 36.3246C37.7022 36.9322 37.3949 37.5833 36.8058 37.824Z" fill="#6400D1"/>
</g>
<defs>
<clipPath id="clip0">
<rect width="46" height="46" fill="white"/>
</clipPath>
</defs>
</svg>
