<svg width="46" height="46" viewBox="0 0 46 46" fill="none" xmlns="http://www.w3.org/2000/svg">
<path d="M25.0226 21.0176C24.6718 20.893 24.2867 21.0761 24.162 21.4269C23.9876 21.9173 23.5206 22.2469 22.9999 22.2469C22.4793 22.2469 22.0123 21.9173 21.838 21.4269C21.7133 21.0762 21.3279 20.8932 20.9774 21.0176C20.6267 21.1423 20.4435 21.5276 20.5681 21.8782C20.9331 22.9048 21.9103 23.5945 22.9999 23.5945C24.0896 23.5945 25.0668 22.9048 25.4317 21.8782C25.5564 21.5276 25.3732 21.1423 25.0226 21.0176Z" fill="#6400D1"/>
<path d="M26.5938 15.5879C26.9659 15.5879 27.2676 15.2862 27.2676 14.9141C27.2676 14.5419 26.9659 14.2402 26.5938 14.2402C26.2216 14.2402 25.9199 14.5419 25.9199 14.9141C25.9199 15.2862 26.2216 15.5879 26.5938 15.5879Z" fill="#6400D1"/>
<path d="M19.4062 15.5879C19.7784 15.5879 20.0801 15.2862 20.0801 14.9141C20.0801 14.5419 19.7784 14.2402 19.4062 14.2402C19.0341 14.2402 18.7324 14.5419 18.7324 14.9141C18.7324 15.2862 19.0341 15.5879 19.4062 15.5879Z" fill="#6400D1"/>
<path d="M20.9785 18.2832V17.6094C20.9785 17.2372 20.6768 16.9355 20.3047 16.9355H18.5078C18.1357 16.9355 17.834 17.2372 17.834 17.6094C17.834 17.9815 18.1357 18.2832 18.5078 18.2832H19.6309C19.6309 18.6553 19.9326 18.957 20.3047 18.957C20.6768 18.957 20.9785 18.6553 20.9785 18.2832Z" fill="#6400D1"/>
<path d="M27.4922 16.9355H25.6953C25.3231 16.9355 25.0215 17.2372 25.0215 17.6094V18.2832C25.0215 18.6553 25.3231 18.957 25.6953 18.957C26.0675 18.957 26.3691 18.6553 26.3691 18.2832H27.4922C27.8644 18.2832 28.166 17.9815 28.166 17.6094C28.166 17.2372 27.8644 16.9355 27.4922 16.9355Z" fill="#6400D1"/>
<path d="M43.9785 29.8281C43.7423 29.8281 43.5156 29.8693 43.3047 29.944V27.8066C43.3047 26.6919 42.3978 25.7852 41.2832 25.7852C41.0201 25.7852 40.7688 25.8362 40.5381 25.9281C40.3043 25.0702 39.5188 24.4375 38.5879 24.4375C37.657 24.4375 36.8715 25.0702 36.6377 25.9281C36.4069 25.8363 36.1556 25.7852 35.8926 25.7852C34.778 25.7852 33.8711 26.6919 33.8711 27.8066V31.2917C33.6602 31.2168 33.4335 31.1758 33.1973 31.1758H12.8027C12.5665 31.1758 12.3398 31.2169 12.1289 31.2917V27.8066C12.1289 26.6919 11.2221 25.7852 10.1074 25.7852C9.84436 25.7852 9.59307 25.8362 9.36235 25.9281C9.12857 25.0702 8.34307 24.4375 7.41211 24.4375C6.48115 24.4375 5.69564 25.0702 5.46187 25.9281C5.23115 25.8362 4.97986 25.7852 4.7168 25.7852C3.60211 25.7852 2.69531 26.6919 2.69531 27.8066V29.944C2.48445 29.8692 2.25768 29.8281 2.02148 29.8281C0.906793 29.8281 0 30.7349 0 31.8496V38.5879C0 42.675 3.32503 46 7.41211 46H38.5879C42.6749 46 46 42.675 46 38.5879V31.8496C46 30.7349 45.0931 29.8281 43.9785 29.8281ZM14.8242 38.5879V37.9141H31.1758V38.5879C31.1758 38.8152 31.1876 39.0396 31.2078 39.2617H14.7922C14.8124 39.0396 14.8242 38.8152 14.8242 38.5879ZM31.1758 36.5664H14.8242V35.2188H31.1758V36.5664ZM14.5417 40.6094H31.4583C31.5918 41.0792 31.7702 41.5299 31.9892 41.957H14.0109C14.2298 41.5299 14.4083 41.0792 14.5417 40.6094ZM31.1758 33.1973V33.8711H14.8242V33.1973C14.8242 32.9611 14.7831 32.7343 14.7083 32.5234H31.2917C31.2169 32.7343 31.1758 32.9611 31.1758 33.1973ZM1.34766 38.5879V31.8496C1.34766 31.478 1.64989 31.1758 2.02148 31.1758C2.39308 31.1758 2.69531 31.478 2.69531 31.8496V34.9941C2.69531 35.3663 2.99701 35.668 3.36914 35.668C3.74127 35.668 4.04297 35.3663 4.04297 34.9941V27.8066C4.04297 27.435 4.3452 27.1328 4.7168 27.1328C5.08839 27.1328 5.39062 27.435 5.39062 27.8066V34.9941C5.39062 35.3663 5.69232 35.668 6.06445 35.668C6.43659 35.668 6.73828 35.3663 6.73828 34.9941V26.459C6.73828 26.0874 7.04052 25.7852 7.41211 25.7852C7.7837 25.7852 8.08594 26.0874 8.08594 26.459V34.9941C8.08594 35.3663 8.38763 35.668 8.75977 35.668C9.1319 35.668 9.43359 35.3663 9.43359 34.9941V27.8066C9.43359 27.435 9.73583 27.1328 10.1074 27.1328C10.479 27.1328 10.7812 27.435 10.7812 27.8066V36.6144C8.49841 36.9423 6.73828 38.9111 6.73828 41.2832C6.73828 41.6553 7.03998 41.957 7.41211 41.957C7.78424 41.957 8.08594 41.6553 8.08594 41.2832C8.08594 39.4254 9.59729 37.9141 11.4551 37.9141C11.8272 37.9141 12.1289 37.6124 12.1289 37.2402V33.1973C12.1289 32.8257 12.4311 32.5234 12.8027 32.5234C13.1743 32.5234 13.4766 32.8257 13.4766 33.1973V38.5879C13.4766 41.9319 10.7561 44.6523 7.41211 44.6523C4.06812 44.6523 1.34766 41.9319 1.34766 38.5879ZM11.6659 44.6523C12.2103 44.2693 12.7021 43.8166 13.1255 43.3047H32.8745C33.2979 43.8166 33.7898 44.2693 34.3341 44.6523H11.6659ZM44.6523 38.5879C44.6523 41.9319 41.9319 44.6523 38.5879 44.6523C35.2439 44.6523 32.5234 41.9319 32.5234 38.5879V33.1973C32.5234 32.8257 32.8257 32.5234 33.1973 32.5234C33.5689 32.5234 33.8711 32.8257 33.8711 33.1973V37.2402C33.8711 37.6124 34.1727 37.9141 34.5449 37.9141C36.4027 37.9141 37.9141 39.4254 37.9141 41.2832C37.9141 41.6553 38.2157 41.957 38.5879 41.957C38.9601 41.957 39.2617 41.6553 39.2617 41.2832C39.2617 38.9111 37.5015 36.9424 35.2188 36.6144V27.8066C35.2188 27.435 35.521 27.1328 35.8926 27.1328C36.2642 27.1328 36.5664 27.435 36.5664 27.8066V34.9941C36.5664 35.3663 36.868 35.668 37.2402 35.668C37.6125 35.668 37.9141 35.3663 37.9141 34.9941V26.459C37.9141 26.0874 38.2163 25.7852 38.5879 25.7852C38.9595 25.7852 39.2617 26.0874 39.2617 26.459V34.9941C39.2617 35.3663 39.5633 35.668 39.9355 35.668C40.3078 35.668 40.6094 35.3663 40.6094 34.9941V27.8066C40.6094 27.435 40.9116 27.1328 41.2832 27.1328C41.6548 27.1328 41.957 27.435 41.957 27.8066V34.9941C41.957 35.3663 42.2586 35.668 42.6309 35.668C43.0031 35.668 43.3047 35.3663 43.3047 34.9941V31.8496C43.3047 31.478 43.6069 31.1758 43.9785 31.1758C44.3501 31.1758 44.6523 31.478 44.6523 31.8496V38.5879Z" fill="#6400D1"/>
<path d="M10.1074 12.8926H11.7265C11.2634 13.9953 10.9678 15.1538 10.8456 16.352C9.99161 16.9638 9.43359 17.9635 9.43359 19.0918C9.43359 20.9496 10.9449 22.4609 12.8027 22.4609H13.7228C14.7025 26.677 18.4901 29.8281 23 29.8281C27.5099 29.8281 31.2975 26.677 32.2772 22.4609H33.1973C35.0551 22.4609 36.5664 20.9496 36.5664 19.0918C36.5664 17.9635 36.0084 16.9638 35.1544 16.352C35.0321 15.1538 34.7365 13.9953 34.2735 12.8926H35.8926C37.0072 12.8926 37.9141 11.9858 37.9141 10.8711C37.9141 9.7564 37.0072 8.84961 35.8926 8.84961H32.4998C32.1529 3.91171 28.0247 0 23 0C17.9754 0 13.8471 3.91171 13.5002 8.84961H10.1074C8.99273 8.84961 8.08594 9.7564 8.08594 10.8711C8.08594 11.9858 8.99273 12.8926 10.1074 12.8926ZM13.2044 12.8926H14.726C14.2194 13.7763 13.8617 14.7278 13.6629 15.7227H12.8027C12.6269 15.7227 12.4543 15.7363 12.2857 15.7624C12.4555 14.7669 12.763 13.8062 13.2044 12.8926ZM33.1973 21.1133H32.4888C32.5113 20.8466 32.5234 20.5771 32.5234 20.3047C32.5234 19.9326 32.2218 19.6309 31.8496 19.6309C31.4774 19.6309 31.1758 19.9326 31.1758 20.3047C31.1758 24.8129 27.5082 28.4805 23 28.4805C18.4918 28.4805 14.8242 24.8129 14.8242 20.3047C14.8242 19.9326 14.5225 19.6309 14.1504 19.6309C13.7783 19.6309 13.4766 19.9326 13.4766 20.3047C13.4766 20.5771 13.4887 20.8466 13.5112 21.1133H12.8027C11.688 21.1133 10.7812 20.2065 10.7812 19.0918C10.7812 17.9771 11.688 17.0703 12.8027 17.0703H13.4932C13.4833 17.2492 13.4766 17.4287 13.4766 17.6094C13.4766 17.9815 13.7783 18.2832 14.1504 18.2832C14.5225 18.2832 14.8242 17.9815 14.8242 17.6094C14.8242 15.8998 15.3411 14.2762 16.322 12.8926H29.678C30.6588 14.2762 31.1758 15.8998 31.1758 17.6094C31.1758 17.9815 31.4774 18.2832 31.8496 18.2832C32.2218 18.2832 32.5234 17.9815 32.5234 17.6094C32.5234 17.4287 32.5166 17.2492 32.5068 17.0703H33.1973C34.3119 17.0703 35.2188 17.9771 35.2188 19.0918C35.2188 20.2065 34.3119 21.1133 33.1973 21.1133ZM33.7143 15.7624C33.5457 15.7363 33.3731 15.7227 33.1973 15.7227H32.3371C32.1383 14.7278 31.7806 13.7763 31.274 12.8926H32.7955C33.237 13.8062 33.5444 14.7669 33.7143 15.7624ZM10.1074 10.1973H14.1504C14.5225 10.1973 14.8242 9.89557 14.8242 9.52344C14.8242 5.01526 18.4918 1.34766 23 1.34766C27.2814 1.34766 30.8047 4.65525 31.1483 8.84961H16.8457C16.4736 8.84961 16.1719 9.1513 16.1719 9.52344C16.1719 9.89557 16.4736 10.1973 16.8457 10.1973H35.8926C36.2642 10.1973 36.5664 10.4995 36.5664 10.8711C36.5664 11.2427 36.2642 11.5449 35.8926 11.5449H10.1074C9.73583 11.5449 9.43359 11.2427 9.43359 10.8711C9.43359 10.4995 9.73583 10.1973 10.1074 10.1973Z" fill="#6400D1"/>
</svg>
