<svg width="16" height="16" viewBox="0 0 16 16" fill="none" xmlns="http://www.w3.org/2000/svg">
<path d="M8 0C3.57837 0 0 3.57803 0 8C0 12.4217 3.57803 16 8 16C12.4216 16 16 12.422 16 8C16 3.57834 12.422 0 8 0ZM8 14.75C4.26925 14.75 1.25 11.731 1.25 8C1.25 4.26922 4.26897 1.25 8 1.25C11.7308 1.25 14.75 4.26897 14.75 8C14.75 11.7308 11.731 14.75 8 14.75Z" fill="#F87878"/>
<path d="M10.7373 9.8534L8.8841 8.00021L10.7373 6.14702C10.9813 5.90296 10.9814 5.50724 10.7373 5.26315C10.4932 5.01905 10.0975 5.01909 9.85344 5.26315L8.00023 7.11634L6.14701 5.26315C5.90298 5.01905 5.5072 5.01905 5.26313 5.26315C5.01907 5.50724 5.01907 5.90296 5.26316 6.14702L7.11635 8.00021L5.26316 9.8534C5.01907 10.0975 5.01904 10.4932 5.26313 10.7373C5.50729 10.9814 5.90301 10.9813 6.14701 10.7373L8.00023 8.88409L9.85344 10.7373C10.0974 10.9813 10.4932 10.9814 10.7373 10.7373C10.9814 10.4932 10.9814 10.0975 10.7373 9.8534Z" fill="#F87878"/>
</svg>
