<svg width="141" height="17" viewBox="0 0 141 17" fill="none" xmlns="http://www.w3.org/2000/svg">
<path fill-rule="evenodd" clip-rule="evenodd" d="M0 0.0696563H5.45795V5.92417H15.2081V0.0696563H20.5979V16.5006H15.2081V9.58246H5.38815V16.4349H0V0.0696563ZM21.2108 0.0696563H26.5292L32.1219 6.38987L37.6464 0.0696563H42.8974L34.7815 10.1147V16.5006H29.3941V9.64899L21.2108 0.0696563ZM43.5793 0.0696563H48.9675V12.7758H57.6281C58.992 12.7758 59.8786 11.4476 59.8786 10.0489V0.0696563H65.2651V13.1758C65.2651 15.2374 62.8791 16.4349 61.5144 16.4349H43.5793V0.0696563ZM66.4244 0.0696563H84.3619C86.4759 0.0696563 88.1808 1.33213 88.1808 3.89622V16.4678L82.7934 16.5006V6.52215C82.7934 5.12739 82.3153 4.2954 80.474 4.2954H72.3589V16.5374H66.4244V0.0696563ZM89.8182 0.0696563H105.502C108.641 0.0696563 111.062 2.53043 111.062 4.4261V11.9775C111.027 13.3073 109.117 16.4999 106.731 16.4999H89.819V0.0696563H89.8182ZM95.3075 12.8431H103.585C104.778 12.8431 105.699 11.9783 105.699 10.9122V6.12297C105.699 4.95833 104.718 4.26252 103.459 4.26252H95.3075V12.8431ZM117.712 0H134.522V16.5006H128.52V12.2452H118.187V16.5006H112.119V5.78876C111.981 2.19778 115.256 0 117.712 0ZM118.119 5.85921V8.51722H128.486V4.32435H119.755C118.733 4.32513 118.119 4.92546 118.119 5.85921ZM135.613 0.0367835H141V17H135.613V0.0367835Z" fill="#9C9C9C"/>
</svg>
