<svg width="141" height="18" viewBox="0 0 141 18" fill="none" xmlns="http://www.w3.org/2000/svg">
<path d="M48.7625 10.6994V14.3943H50.0315C50.6895 14.3943 51.371 13.9636 51.6295 13.4649C51.8175 13.0796 51.9585 12.3088 51.606 11.5835C51.136 10.6314 50.1255 10.7221 50.0315 10.6994H48.7625ZM48.7625 3.4229V6.82314H50.0315C50.6895 6.82314 51.183 6.43778 51.418 5.96175C51.606 5.59906 51.7235 4.87367 51.3945 4.21629C50.995 3.40024 50.2195 3.40023 50.0315 3.40023H48.7625V3.4229ZM39.903 0C39.903 0 52.593 0 54.755 0C58.891 0 59.878 2.99221 59.878 4.76033C59.9015 7.91121 57.5985 8.7046 57.5985 8.7046C57.5985 8.7046 60.066 9.61133 60.066 12.9662C60.066 18.2253 55.084 17.9986 54.3085 17.9986H39.903V0ZM97.525 17.9986V13.873H93.483V10.5861H97.478V7.00448H93.483V3.53624H97.525V0H84.271V17.9986H97.525ZM73.4375 17.9986H82.6495V0H73.4375V6.82314H70.453V0H61.0295V17.9986H70.453V10.4274H73.4375V17.9986ZM38.6575 17.9986V13.873H34.6155V10.5861H38.6105V7.00448H34.6155V3.53624H38.6575V0H25.38V17.9986H38.6575ZM14.711 0H23.782V17.9986H14.711V0ZM13.395 17.9986V13.0342H9.353V0H0V17.9986H13.395ZM107.371 3.4229V7.68453H108.476C109.674 7.68453 110.098 7.14049 110.356 6.57379C110.568 6.12042 110.709 5.30437 110.356 4.44297C110.168 3.98961 109.674 3.4229 108.476 3.4229H107.371ZM98.8175 0H112.729C117.101 0 118.745 2.83353 118.745 5.30436C118.745 9.47532 114.845 10.2234 114.845 10.2234L119.897 17.9986H109.721L107.536 12.8302V17.9986H98.8175V0ZM128.475 3.4229V7.68453H129.579C130.778 7.68453 131.201 7.14049 131.459 6.57379C131.671 6.12042 131.812 5.30437 131.459 4.44297C131.271 3.98961 130.778 3.4229 129.579 3.4229H128.475ZM119.92 0H133.833C138.204 0 139.848 2.83353 139.848 5.30436C139.848 9.47532 135.947 10.2234 135.947 10.2234L141 17.9986H130.825L128.639 12.8302V17.9986H119.92V0Z" fill="white"/>
</svg>
