<svg width="15" height="16" viewBox="0 0 15 16" fill="none" xmlns="http://www.w3.org/2000/svg">
<path d="M14.5625 7.03125C14.8542 7.53125 15 8.05208 15 8.59375C15 9.30208 14.7396 9.92708 14.2188 10.4688C13.6979 11.0104 13.0625 11.2812 12.3125 11.2812H11.1875C11.375 11.7604 11.4688 12.2396 11.4688 12.7188C11.4688 13.8229 11.1979 14.6458 10.6562 15.1875C10.1354 15.7292 9.40625 16 8.46875 16C7.90625 16 7.46875 15.75 7.15625 15.25C6.86458 14.7708 6.65625 14.2292 6.53125 13.625C6.40625 13.0208 6.3125 12.6771 6.25 12.5938C6.02083 12.3646 5.65625 11.9271 5.15625 11.2812C4.65625 10.6146 4.30208 10.1875 4.09375 10H3.875C3.66667 10.3333 3.375 10.5 3 10.5H1C0.729167 10.5 0.489583 10.4062 0.28125 10.2188C0.09375 10.0104 0 9.77083 0 9.5V2C0 1.72917 0.09375 1.5 0.28125 1.3125C0.489583 1.10417 0.729167 1 1 1H3C3.25 1 3.46875 1.08333 3.65625 1.25H4C4.3125 1.25 4.70833 1.14583 5.1875 0.9375C5.66667 0.729167 6.27083 0.520833 7 0.3125C7.75 0.104167 8.59375 0 9.53125 0C9.59375 0 9.70833 0 9.875 0C10.0417 0 10.1562 0 10.2188 0C11.3854 0 12.2604 0.270833 12.8438 0.8125C13.4271 1.33333 13.7292 2.05208 13.75 2.96875C14.2083 3.61458 14.3854 4.3125 14.2812 5.0625C14.6146 5.6875 14.7083 6.34375 14.5625 7.03125ZM1.46875 9.03125C1.61458 9.17708 1.79167 9.25 2 9.25C2.20833 9.25 2.38542 9.17708 2.53125 9.03125C2.67708 8.88542 2.75 8.70833 2.75 8.5C2.75 8.29167 2.67708 8.11458 2.53125 7.96875C2.38542 7.82292 2.20833 7.75 2 7.75C1.79167 7.75 1.61458 7.82292 1.46875 7.96875C1.32292 8.11458 1.25 8.29167 1.25 8.5C1.25 8.70833 1.32292 8.88542 1.46875 9.03125ZM12.3125 9.78125C12.5208 9.78125 12.7188 9.72917 12.9062 9.625C13.0938 9.5 13.2396 9.34375 13.3438 9.15625C13.4479 8.96875 13.5 8.78125 13.5 8.59375C13.5 8.30208 13.4167 8.03125 13.25 7.78125C13.1042 7.53125 12.9583 7.40625 12.8125 7.40625C13.0417 7.19792 13.1458 6.88542 13.125 6.46875C13.125 6.03125 12.9688 5.65625 12.6562 5.34375C12.8229 5.01042 12.8542 4.66667 12.75 4.3125C12.6458 3.95833 12.4688 3.70833 12.2188 3.5625C12.4271 2.1875 11.8646 1.5 10.5312 1.5H9.375C8.58333 1.5 7.61458 1.69792 6.46875 2.09375C5.34375 2.48958 4.52083 2.6875 4 2.6875V8.5H4.34375C4.59375 8.5 4.89583 8.6875 5.25 9.0625C5.60417 9.41667 5.98958 9.875 6.40625 10.4375C6.82292 11 7.11458 11.3646 7.28125 11.5312C7.61458 11.8646 7.85417 12.4062 8 13.1562C8.14583 13.8854 8.30208 14.3333 8.46875 14.5C8.82292 14.5 9.10417 14.4479 9.3125 14.3438C9.54167 14.2396 9.69792 14.0833 9.78125 13.875C9.86458 13.6667 9.91667 13.4896 9.9375 13.3438C9.95833 13.1979 9.96875 12.9896 9.96875 12.7188C9.96875 12.3229 9.8125 11.8333 9.5 11.25C9.20833 10.6458 9.0625 10.1562 9.0625 9.78125H12.3125Z" fill="#F98585"/>
</svg>
