<svg width="25" height="25" viewBox="0 0 25 25" fill="none" xmlns="http://www.w3.org/2000/svg">
<path d="M24.659 10.6876L13.3091 0.369507L13.2007 0.270923C13.1262 0.203198 13.0444 0.148169 12.9579 0.105835C12.954 0.10398 12.95 0.102612 12.9462 0.100757C12.6643 -0.0329346 12.3357 -0.0329346 12.0538 0.100757C12.0499 0.102564 12.0459 0.103931 12.0421 0.105835C11.9556 0.148169 11.8737 0.203198 11.7992 0.270923L11.6923 0.368091L0.340982 10.6876C-0.0847018 11.0745 -0.116098 11.7334 0.270913 12.1591C0.657876 12.5848 1.31671 12.6162 1.7424 12.2291L2.08336 11.9192V23.9584C2.08336 24.5337 2.54972 25.0001 3.12502 25.0001H8.33337H16.6667H21.875C22.4503 25.0001 22.9167 24.5337 22.9167 23.9584V11.9192L23.2576 12.2291C23.6833 12.6162 24.3421 12.5848 24.7291 12.1591C25.1161 11.7334 25.0847 11.0746 24.659 10.6876ZM10.4167 22.9168V16.6667C10.4167 15.516 11.3492 14.5834 12.5 14.5834C13.6508 14.5834 14.5834 15.516 14.5834 16.6667V22.9168H10.4167V22.9168ZM20.8334 22.9168H16.6667V16.6667C16.6667 14.3654 14.8014 12.5 12.5 12.5C10.1986 12.5 8.33337 14.3654 8.33337 16.6667V22.9167H4.16667V10.0254L12.5 2.44949L20.8334 10.0254V22.9168Z" fill="#E73237"/>
</svg>
