<svg width="87" height="51" viewBox="0 0 87 51" fill="none" xmlns="http://www.w3.org/2000/svg">
<path d="M86.4473 41H1V42.0274H86.4473V41Z" fill="#E73237"/>
<path fill-rule="evenodd" clip-rule="evenodd" d="M36 6.73979V41.3297H48.3291V4L36 6.73979Z" fill="#E73237"/>
<path fill-rule="evenodd" clip-rule="evenodd" d="M48 4V41.3297H54.8495V6.73979L48 4Z" fill="#E73237"/>
<path fill-rule="evenodd" clip-rule="evenodd" d="M37 8.51371V10.0548L39.0548 9.71237V8L37 8.51371Z" fill="white"/>
<path fill-rule="evenodd" clip-rule="evenodd" d="M40 7.34248V9.05485L42.0548 8.71237V7L40 7.34248Z" fill="white"/>
<path fill-rule="evenodd" clip-rule="evenodd" d="M42 7.34247V9.05484L44.0548 8.54113V7L42 7.34247Z" fill="white"/>
<path fill-rule="evenodd" clip-rule="evenodd" d="M45 6.51371V8.05484L47.0548 7.71237V6L45 6.51371Z" fill="white"/>
<path fill-rule="evenodd" clip-rule="evenodd" d="M37 11.5137V13.0548L39.0548 12.7124V11L37 11.5137Z" fill="white"/>
<path fill-rule="evenodd" clip-rule="evenodd" d="M40 10.5137V12.0548L42.0548 11.7124V10L40 10.5137Z" fill="white"/>
<path fill-rule="evenodd" clip-rule="evenodd" d="M42 10.3425V12.0548L44.0548 11.7124V10L42 10.3425Z" fill="white"/>
<path fill-rule="evenodd" clip-rule="evenodd" d="M45 9.34247V11.0548L47.0548 10.5411V9L45 9.34247Z" fill="white"/>
<path fill-rule="evenodd" clip-rule="evenodd" d="M37 14.3425V16.0548L39.0548 15.5411V14L37 14.3425Z" fill="white"/>
<path fill-rule="evenodd" clip-rule="evenodd" d="M40 14.3425V15.8836L42.0548 15.5411V14L40 14.3425Z" fill="white"/>
<path fill-rule="evenodd" clip-rule="evenodd" d="M42 13.5137V15.0548L44.0548 14.7124V13L42 13.5137Z" fill="white"/>
<path fill-rule="evenodd" clip-rule="evenodd" d="M45 12.3425V14.0548L47.0548 13.5411V12L45 12.3425Z" fill="white"/>
<path fill-rule="evenodd" clip-rule="evenodd" d="M37 17.3425V19.0548L39.0548 18.7124V17L37 17.3425Z" fill="white"/>
<path fill-rule="evenodd" clip-rule="evenodd" d="M40 17.3425V19.0548L42.0548 18.5411V17L40 17.3425Z" fill="white"/>
<path fill-rule="evenodd" clip-rule="evenodd" d="M42 16.3425V17.8836L44.0548 17.5411V16L42 16.3425Z" fill="white"/>
<path fill-rule="evenodd" clip-rule="evenodd" d="M45 16.3425V18.0548L47.0548 17.7124V16L45 16.3425Z" fill="white"/>
<path fill-rule="evenodd" clip-rule="evenodd" d="M37 20.3425V22.0548L39.0548 21.7124V20L37 20.3425Z" fill="white"/>
<path fill-rule="evenodd" clip-rule="evenodd" d="M40 20.3425V22.0548L42.0548 21.7124V20L40 20.3425Z" fill="white"/>
<path fill-rule="evenodd" clip-rule="evenodd" d="M42 19.3425V21.0548L44.0548 20.5411V19L42 19.3425Z" fill="white"/>
<path fill-rule="evenodd" clip-rule="evenodd" d="M45 19.5137V21.0548L47.0548 20.7124V19L45 19.5137Z" fill="white"/>
<path fill-rule="evenodd" clip-rule="evenodd" d="M37 23.5137V25.0548L39.0548 24.7124V23L37 23.5137Z" fill="white"/>
<path fill-rule="evenodd" clip-rule="evenodd" d="M40 23.3425V25.0548L42.0548 24.7124V23L40 23.3425Z" fill="white"/>
<path fill-rule="evenodd" clip-rule="evenodd" d="M42 22.3425V24.0548L44.0548 23.7124V22L42 22.3425Z" fill="white"/>
<path fill-rule="evenodd" clip-rule="evenodd" d="M45 22.3425V23.8836L47.0548 23.5411V22L45 22.3425Z" fill="white"/>
<path fill-rule="evenodd" clip-rule="evenodd" d="M37 27.3425V28.8836L39.0548 28.5411V27L37 27.3425Z" fill="white"/>
<path fill-rule="evenodd" clip-rule="evenodd" d="M40 26.5137V28.0548L42.0548 27.7124V26L40 26.5137Z" fill="white"/>
<path fill-rule="evenodd" clip-rule="evenodd" d="M42 25.3425V27.0548L44.0548 26.7124V25L42 25.3425Z" fill="white"/>
<path fill-rule="evenodd" clip-rule="evenodd" d="M45 25.3425V27.0548L47.0548 26.5411V25L45 25.3425Z" fill="white"/>
<path fill-rule="evenodd" clip-rule="evenodd" d="M49 6V7.71237L51.0548 8.39732V6.85618L49 6Z" fill="white"/>
<path fill-rule="evenodd" clip-rule="evenodd" d="M52 8V9.54113L54.0548 10.3973V8.68495L52 8Z" fill="white"/>
<path fill-rule="evenodd" clip-rule="evenodd" d="M49 10V11.7124L51.0548 12.5686V10.8562L49 10Z" fill="white"/>
<path fill-rule="evenodd" clip-rule="evenodd" d="M52 11V12.5411L54.0548 13.3973V11.8562L52 11Z" fill="white"/>
<path fill-rule="evenodd" clip-rule="evenodd" d="M49 13V14.7124L51.0548 15.5686V13.8562L49 13Z" fill="white"/>
<path fill-rule="evenodd" clip-rule="evenodd" d="M52 14V15.5411L54.0548 16.3973V14.8562L52 14Z" fill="white"/>
<path fill-rule="evenodd" clip-rule="evenodd" d="M49 16V17.7124L51.0548 18.5686V16.8562L49 16Z" fill="white"/>
<path fill-rule="evenodd" clip-rule="evenodd" d="M52 17V18.5411L54.0548 19.3973V17.8562L52 17Z" fill="white"/>
<path fill-rule="evenodd" clip-rule="evenodd" d="M49 19V20.5411L51.0548 21.3973V19.6849L49 19Z" fill="white"/>
<path fill-rule="evenodd" clip-rule="evenodd" d="M52 20V21.7124L54.0548 22.3973V20.8562L52 20Z" fill="white"/>
<path fill-rule="evenodd" clip-rule="evenodd" d="M49 22V23.5411L51.0548 24.3973V22.8562L49 22Z" fill="white"/>
<path fill-rule="evenodd" clip-rule="evenodd" d="M52 23V24.7124L54.0548 25.5686V23.8562L52 23Z" fill="white"/>
<path fill-rule="evenodd" clip-rule="evenodd" d="M49 25V26.5411L51.0548 27.3973V25.8562L49 25Z" fill="white"/>
<path fill-rule="evenodd" clip-rule="evenodd" d="M52 26V27.7124L54.0548 28.5686V26.8562L52 26Z" fill="white"/>
<path d="M27 13.2261V41.3089H37.103V11L27 13.2261Z" fill="#E73237"/>
<path fill-rule="evenodd" clip-rule="evenodd" d="M38 11V41.1377H43.6508V13.2261L38 11Z" fill="#E73237"/>
<path fill-rule="evenodd" clip-rule="evenodd" d="M28 14.3425V15.7124L29.7124 15.3699V14L28 14.3425Z" fill="white"/>
<path fill-rule="evenodd" clip-rule="evenodd" d="M30 14.3425V15.5411L31.7124 15.1987V14L30 14.3425Z" fill="white"/>
<path fill-rule="evenodd" clip-rule="evenodd" d="M33 13.3425V14.7124L34.7124 14.3699V13L33 13.3425Z" fill="white"/>
<path fill-rule="evenodd" clip-rule="evenodd" d="M35 13.3425V14.7124L36.7124 14.3699V13L35 13.3425Z" fill="white"/>
<path fill-rule="evenodd" clip-rule="evenodd" d="M28 17.3425V18.7124L29.7124 18.3699V17L28 17.3425Z" fill="white"/>
<path fill-rule="evenodd" clip-rule="evenodd" d="M30 16.3425V17.7124L31.7124 17.3699V16L30 16.3425Z" fill="white"/>
<path fill-rule="evenodd" clip-rule="evenodd" d="M33 16.3425V17.5411L34.7124 17.3699V16L33 16.3425Z" fill="white"/>
<path fill-rule="evenodd" clip-rule="evenodd" d="M35 15.3425V16.7124L36.7124 16.3699V15L35 15.3425Z" fill="white"/>
<path fill-rule="evenodd" clip-rule="evenodd" d="M28 19.3425V20.5411L29.7124 20.3699V19L28 19.3425Z" fill="white"/>
<path fill-rule="evenodd" clip-rule="evenodd" d="M30 19.3425V20.7124L31.7124 20.3699V19L30 19.3425Z" fill="white"/>
<path fill-rule="evenodd" clip-rule="evenodd" d="M33 18.1712V19.5411L34.7124 19.1987V18L33 18.1712Z" fill="white"/>
<path fill-rule="evenodd" clip-rule="evenodd" d="M35 18.3425V19.5411L36.7124 19.3699V18L35 18.3425Z" fill="white"/>
<path fill-rule="evenodd" clip-rule="evenodd" d="M28 22.1712V23.5411L29.7124 23.1987V22L28 22.1712Z" fill="white"/>
<path fill-rule="evenodd" clip-rule="evenodd" d="M30 21.3425V22.7124L31.7124 22.3699V21L30 21.3425Z" fill="white"/>
<path fill-rule="evenodd" clip-rule="evenodd" d="M33 21.3425V22.7124L34.7124 22.3699V21L33 21.3425Z" fill="white"/>
<path fill-rule="evenodd" clip-rule="evenodd" d="M35 21.1712V22.5411L36.7124 22.1987V21L35 21.1712Z" fill="white"/>
<path fill-rule="evenodd" clip-rule="evenodd" d="M28 24.3425V25.7124L29.7124 25.3699V24L28 24.3425Z" fill="white"/>
<path fill-rule="evenodd" clip-rule="evenodd" d="M30 24.3425V25.5411L31.7124 25.3699V24L30 24.3425Z" fill="white"/>
<path fill-rule="evenodd" clip-rule="evenodd" d="M33 23.3425V24.7124L34.7124 24.3699V23L33 23.3425Z" fill="white"/>
<path fill-rule="evenodd" clip-rule="evenodd" d="M35 23.3425V24.7124L36.7124 24.3699V23L35 23.3425Z" fill="white"/>
<path fill-rule="evenodd" clip-rule="evenodd" d="M28 27.3425V28.7124L29.7124 28.3699V27L28 27.3425Z" fill="white"/>
<path fill-rule="evenodd" clip-rule="evenodd" d="M30 27.1712V28.5411L31.7124 28.1987V27L30 27.1712Z" fill="white"/>
<path fill-rule="evenodd" clip-rule="evenodd" d="M33 26.3425V27.7124L34.7124 27.3699V26L33 26.3425Z" fill="white"/>
<path fill-rule="evenodd" clip-rule="evenodd" d="M35 25.3425V26.7124L36.7124 26.3699V25L35 25.3425Z" fill="white"/>
<path fill-rule="evenodd" clip-rule="evenodd" d="M28 29.3425V30.5411L29.7124 30.3699V29L28 29.3425Z" fill="white"/>
<path fill-rule="evenodd" clip-rule="evenodd" d="M30 29.3425V30.7124L31.7124 30.3699V29L30 29.3425Z" fill="white"/>
<path fill-rule="evenodd" clip-rule="evenodd" d="M33 29.3425V30.5411L34.7124 30.1987V29L33 29.3425Z" fill="white"/>
<path fill-rule="evenodd" clip-rule="evenodd" d="M35 28.3425V29.7124L36.7124 29.3699V28L35 28.3425Z" fill="white"/>
<path fill-rule="evenodd" clip-rule="evenodd" d="M38 13V14.1987L39.7124 14.8836V13.685L38 13Z" fill="white"/>
<path fill-rule="evenodd" clip-rule="evenodd" d="M41 14V15.3699L42.5411 15.8836V14.685L41 14Z" fill="white"/>
<path fill-rule="evenodd" clip-rule="evenodd" d="M38 16V17.3699L39.7124 18.0548V16.6849L38 16Z" fill="white"/>
<path fill-rule="evenodd" clip-rule="evenodd" d="M41 17V18.1987L42.5411 18.8836V17.5137L41 17Z" fill="white"/>
<path fill-rule="evenodd" clip-rule="evenodd" d="M38 18V19.3699L39.7124 20.0548V18.6849L38 18Z" fill="white"/>
<path fill-rule="evenodd" clip-rule="evenodd" d="M41 19V20.3699L42.5411 21.0548V19.6849L41 19Z" fill="white"/>
<path fill-rule="evenodd" clip-rule="evenodd" d="M38 21V22.1987L39.7124 22.8836V21.6849L38 21Z" fill="white"/>
<path fill-rule="evenodd" clip-rule="evenodd" d="M41 22V23.3699L42.5411 24.0548V22.6849L41 22Z" fill="white"/>
<path fill-rule="evenodd" clip-rule="evenodd" d="M38 23V24.3699L39.7124 25.0548V23.6849L38 23Z" fill="white"/>
<path fill-rule="evenodd" clip-rule="evenodd" d="M41 24V25.1987L42.5411 25.8836V24.6849L41 24Z" fill="white"/>
<path fill-rule="evenodd" clip-rule="evenodd" d="M38 26V27.3699L39.7124 28.0548V26.6849L38 26Z" fill="white"/>
<path fill-rule="evenodd" clip-rule="evenodd" d="M41 27V28.3699L42.5411 29.0548V27.6849L41 27Z" fill="white"/>
<path fill-rule="evenodd" clip-rule="evenodd" d="M38 28V29.3699L39.7124 30.0548V28.6849L38 28Z" fill="white"/>
<path fill-rule="evenodd" clip-rule="evenodd" d="M41 29V30.3699L42.5411 31.0548V29.6849L41 29Z" fill="white"/>
<path d="M21.1002 22.4992L17 37L17.6591 37.1864L21.7593 22.6856L21.1002 22.4992Z" fill="#E73237"/>
<path d="M22.1003 23.4993L18 38L18.6591 38.1864L22.7595 23.6856L22.1003 23.4993Z" fill="#E73237"/>
<path d="M26.699 38H13V40.2261H26.699V38Z" fill="#E73237"/>
<path fill-rule="evenodd" clip-rule="evenodd" d="M25.4796 36H20V38.2261H26.8495L25.4796 36Z" fill="#E73237"/>
<path d="M27.3064 1.26647L18 36L18.9924 36.2659L28.2988 1.53237L27.3064 1.26647Z" fill="#E73237"/>
<path d="M20.6234 37H16V38.7124H20.6234V37Z" fill="#E73237"/>
<path d="M13.3973 37H11V40.0823H13.3973V37Z" fill="#E73237"/>
<path d="M19.3973 35H17V38.0823H19.3973V35Z" fill="#E73237"/>
<path d="M16.3973 37H14V40.0823H16.3973V37Z" fill="#E73237"/>
<path fill-rule="evenodd" clip-rule="evenodd" d="M13.3699 39C12.6849 39 12 39.5137 12 40.3699C12 41.0548 12.5137 41.7398 13.3699 41.7398C14.0548 41.7398 14.7398 41.2261 14.7398 40.3699C14.5686 39.5137 14.0548 39 13.3699 39Z" fill="#E73237"/>
<path fill-rule="evenodd" clip-rule="evenodd" d="M16.3699 39C15.6849 39 15 39.5137 15 40.3699C15 41.0548 15.5137 41.7398 16.3699 41.7398C17.0548 41.7398 17.7398 41.2261 17.7398 40.3699C17.7398 39.5137 17.2261 39 16.3699 39Z" fill="#E73237"/>
<path fill-rule="evenodd" clip-rule="evenodd" d="M19.3699 39C18.6849 39 18 39.5137 18 40.3699C18 41.0548 18.5137 41.7398 19.3699 41.7398C20.0548 41.7398 20.7398 41.2261 20.7398 40.3699C20.7398 39.5137 20.2261 39 19.3699 39Z" fill="#E73237"/>
<path fill-rule="evenodd" clip-rule="evenodd" d="M22.3699 39C21.6849 39 21 39.5137 21 40.3699C21 41.0548 21.5137 41.7398 22.3699 41.7398C23.0548 41.7398 23.7398 41.2261 23.7398 40.3699C23.5686 39.5137 23.0548 39 22.3699 39Z" fill="#E73237"/>
<path fill-rule="evenodd" clip-rule="evenodd" d="M25.3699 39C24.6849 39 24 39.5137 24 40.3699C24 41.0548 24.5137 41.7398 25.3699 41.7398C26.0548 41.7398 26.7398 41.2261 26.7398 40.3699C26.7398 39.5137 26.0548 39 25.3699 39Z" fill="#E73237"/>
<path d="M27.1331 0.503848L27 1L28.8191 1.4882L28.9522 0.992045L27.1331 0.503848Z" fill="#E73237"/>
<path d="M28.6662 1.42759L27 10L27.1681 10.0327L28.8343 1.46026L28.6662 1.42759Z" fill="#E73237"/>
<path fill-rule="evenodd" clip-rule="evenodd" d="M29.1712 2L29 2.17124L30.8836 10.7331H31.0548L29.1712 2Z" fill="#E73237"/>
<path d="M31.1097 10H27V10.5137H31.1097V10Z" fill="#E73237"/>
<path d="M8.53443 30V32.5686H4.08226V41.4729H1V30H8.53443Z" fill="black"/>
<path d="M18.3906 33.7672C18.3906 34.9659 18.0481 35.9933 17.192 36.6782C16.507 37.3632 15.3083 37.7057 13.9385 37.7057H13.0823V41.4729H10V30H13.9385C15.3083 30 16.507 30.3425 17.192 31.0274C18.0481 31.7124 18.3906 32.7398 18.3906 33.7672ZM13.2535 35.3083H13.7672C14.2809 35.3083 14.6234 35.1371 14.7946 34.9659C15.1371 34.6234 15.1371 34.2809 15.1371 33.9384C15.1371 33.0823 14.6234 32.7398 13.9385 32.7398H13.0823V35.3083H13.2535Z" fill="black"/>
<path d="M30.9592 35.8221C30.9592 37.7057 30.4455 39.2468 29.5893 40.2742C28.5618 41.3016 27.192 41.8154 25.4796 41.8154C23.7672 41.8154 22.3973 41.3016 21.3699 40.2742C20.3425 39.2468 20 37.8769 20 35.8221C20 33.9385 20.5137 32.3973 21.3699 31.5411C22.3973 30.5137 23.7672 30 25.4796 30C27.3632 30 28.7331 30.5137 29.5893 31.5411C30.6167 32.5686 30.9592 33.9385 30.9592 35.8221ZM23.2535 35.8221C23.2535 38.0481 23.9385 39.0756 25.4796 39.0756C26.3358 39.0756 26.8495 38.7331 27.192 38.2194C27.5344 37.7057 27.7057 36.8495 27.7057 35.6508C27.7057 34.4522 27.5344 33.596 27.192 33.0823C26.8495 32.5686 26.1645 32.2261 25.4796 32.2261C23.9385 32.5686 23.2535 33.596 23.2535 35.8221Z" fill="black"/>
<path d="M38.4796 32.3973C37.7946 32.3973 37.1097 32.7398 36.7672 33.2535C36.4247 33.9384 36.0823 34.6234 36.0823 35.8221C36.0823 38.0481 36.9385 39.0756 38.6508 39.0756C39.1645 39.0756 39.6782 39.0756 40.192 38.9043C40.7057 38.7331 41.2194 38.5618 41.5619 38.3906V40.9592C40.5344 41.3016 39.507 41.6441 38.3084 41.6441C36.596 41.6441 35.2261 41.1304 34.3699 40.103C33.5137 39.0756 33 37.7057 33 35.8221C33 34.6234 33.1712 33.596 33.685 32.7398C34.1987 31.8836 34.7124 31.1987 35.5686 30.6849C36.4247 30.1712 37.4522 30 38.4796 30C39.6782 30 40.8769 30.3425 42.0756 30.8562L41.0481 33.2535C40.7057 33.0823 40.192 32.911 39.8495 32.7398C39.507 32.3973 38.9933 32.3973 38.4796 32.3973Z" fill="black"/>
<path d="M53.9317 41.4729H50.507L47.0823 35.6508V41.4729H44V30H47.0823V35.6508L50.3358 30H53.7605L50.3358 35.4796L53.9317 41.4729Z" fill="black"/>
<path d="M63.3906 33.7672C63.3906 34.9659 63.0481 35.9933 62.1919 36.6782C61.507 37.3632 60.3083 37.7057 58.9385 37.7057H58.0823V41.4729H55V30H58.9385C60.3083 30 61.507 30.3425 62.1919 31.0274C63.0481 31.7124 63.3906 32.7398 63.3906 33.7672ZM58.0823 35.3083H58.596C59.1097 35.3083 59.4522 35.1371 59.6234 34.9659C59.9659 34.6234 59.9659 34.2809 59.9659 33.9384C59.9659 33.0823 59.4522 32.7398 58.7672 32.7398H57.911V35.3083H58.0823Z" fill="black"/>
<path d="M72.2194 41.4729L71.7057 39.2468H67.9385L67.4247 41.4729H64L67.7672 30H71.8769L75.6441 41.4729H72.2194ZM71.0207 36.8495L70.507 34.9659C70.3358 34.6234 70.3358 33.9384 70.1645 33.4247C69.9933 32.7398 69.8221 32.2261 69.8221 32.0548C69.8221 32.3973 69.6508 32.7398 69.4796 33.4247C69.3083 34.1097 68.9659 35.3083 68.6234 37.0207H71.0207V36.8495Z" fill="black"/>
<path d="M86.7605 41.4729H83.6782V36.8495H80.0823V41.4729H77V30H80.0823V34.2809H83.6782V30H86.7605V41.4729Z" fill="black"/>
<path d="M3.76722 49.3083L3.42474 48.1097H1.54113L1.19866 49.3083H0L1.88361 44H3.2535L5.13711 49.3083H3.76722ZM3.2535 47.2535C2.91103 46.0548 2.73979 45.5411 2.73979 45.3699C2.73979 45.1987 2.73979 45.0274 2.56856 45.0274C2.56856 45.3699 2.22608 46.0548 1.88361 47.2535H3.2535Z" fill="#E73237"/>
<path d="M9.59597 45.5411C9.59597 46.0548 9.42474 46.5686 9.08226 46.911C8.73979 47.2535 8.22608 47.4247 7.54113 47.4247H7.02742V49.1371H6V44H7.71237C8.39732 44 8.91103 44.1712 9.08226 44.3425C9.42474 44.6849 9.59597 45.0274 9.59597 45.5411ZM7.19866 46.3973H7.54113C7.88361 46.3973 8.05484 46.3973 8.22608 46.2261C8.39732 46.0548 8.39732 45.8836 8.39732 45.7124C8.39732 45.3699 8.39732 45.1987 8.22608 45.1987C8.05484 45.0274 7.88361 45.0274 7.54113 45.0274H7.02742V46.3973H7.19866Z" fill="#E73237"/>
<path d="M13.0823 49.1371H10V44H13.0823V44.8562H11.1987V46.0548H12.911V46.911H11.1987V48.2809H13.0823V49.1371Z" fill="#E73237"/>
<path d="M18.2809 49.1371H17.2535V46.911H15.1987V49.1371H14V44H15.1987V46.0548H17.2535V44H18.2809V49.1371Z" fill="#E73237"/>
<path d="M19 48.2809H19.5137C19.8562 47.596 20.1987 46.911 20.3699 46.2261C20.5411 45.5411 20.7124 44.8562 20.8836 44H23.9659V48.2809H24.6508V50.6782H23.6234V49.1371H20.3699V50.6782H19.3425V48.2809H19ZM21.5686 44.8562C21.5686 45.3699 21.3973 46.0548 21.2261 46.5686C21.0548 47.2535 20.8836 47.7672 20.5411 48.2809H22.596V44.8562H21.5686Z" fill="#E73237"/>
<path d="M28.7672 49.3083L28.4247 48.1097H26.5411L26.1987 49.3083H25L26.8836 44H28.2535L30.1371 49.3083H28.7672ZM28.2535 47.2535C27.911 46.0548 27.7398 45.5411 27.7398 45.3699C27.7398 45.1987 27.7398 45.0274 27.5686 45.0274C27.5686 45.3699 27.2261 46.0548 26.8836 47.2535H28.2535Z" fill="#E73237"/>
<path d="M35.2261 45.1987C34.8836 45.1987 34.5411 45.3699 34.1987 45.7124C34.0274 45.8836 34.0274 46.3973 34.0274 46.911C34.0274 48.1097 34.5411 48.6234 35.3973 48.6234C35.7398 48.6234 36.2535 48.4522 36.7672 48.2809V49.1371C36.2535 49.3083 35.911 49.4796 35.3973 49.4796C34.7124 49.4796 34.0274 49.3083 33.6849 48.7946C33.3425 48.2809 33 47.596 33 46.7398C33 46.2261 33.1712 45.7124 33.3425 45.3699C33.5137 45.0274 33.8562 44.6849 34.1987 44.3425C34.5411 44.1712 35.0548 44 35.5686 44C36.0823 44 36.596 44.1712 37.1097 44.3425L36.7672 45.1987C36.596 45.0274 36.4247 45.0274 36.2535 45.0274C35.7398 45.1987 35.3973 45.1987 35.2261 45.1987Z" fill="#E73237"/>
<path d="M41.1097 49.1371H39.911V44.8562H38.0274V49.1371H37V44H41.1097V49.1371Z" fill="#E73237"/>
<path d="M45.911 49.1371H43V44H45.911V44.8562H44.0274V46.0548H45.7398V46.911H44.0274V48.2809H45.911V49.1371Z" fill="#E73237"/>
<path d="M51.1097 48.2809H51.7946V50.6782H50.7672V49.1371H47V44H48.0274V48.2809H49.911V44H51.1097V48.2809Z" fill="#E73237"/>
<path d="M54.5686 49.1371H53.3699V44.8562H52V44H55.9384V44.8562H54.5686V49.1371Z" fill="#E73237"/>
<path d="M59.911 49.1371H57V44H59.911V44.8562H58.0274V46.0548H59.911V46.911H58.0274V48.2809H59.911V49.1371Z" fill="#E73237"/>
<path d="M64.9659 49.1371H63.596L62.3973 47.2535L61.1987 49.1371H60L61.7124 46.5686L60.1712 44H61.3699L62.3973 45.8836L63.596 44H64.7946L63.0823 46.5686L64.9659 49.1371Z" fill="#E73237"/>
<path d="M70.4522 49.1371H69.2535V46.911H67.1987V49.1371H66V44H67.1987V46.0548H69.2535V44H70.4522V49.1371Z" fill="#E73237"/>
<path d="M71 44H72.0274V46.5686V47.2535V48.1097L74.4247 44.1712H75.7946V49.1371H74.7672V46.5686C74.7672 46.2261 74.7672 45.7124 74.7672 45.0274L72.3699 49.1371H71V44Z" fill="#E73237"/>
<path d="M82.1097 49.1371H80.911L79.0274 46.5686V49.1371H78V44H79.0274V46.5686L80.911 44H82.1097L80.2261 46.3973L82.1097 49.1371Z" fill="#E73237"/>
<path d="M82 44H83.0274V46.5686V47.2535V48.1097L85.4247 44.1712H86.7946V49.1371H85.7672V46.5686C85.7672 46.2261 85.7672 45.7124 85.7672 45.0274L83.3699 49.1371H82V44Z" fill="#E73237"/>
<path d="M86.4473 41H1V42.0274H86.4473V41Z" fill="#E73237"/>
<path fill-rule="evenodd" clip-rule="evenodd" d="M36 6.73979V41.3297H48.3291V4L36 6.73979Z" fill="#E73237"/>
<path fill-rule="evenodd" clip-rule="evenodd" d="M48 4V41.3297H54.8495V6.73979L48 4Z" fill="#E73237"/>
<path fill-rule="evenodd" clip-rule="evenodd" d="M37 8.51371V10.0548L39.0548 9.71237V8L37 8.51371Z" fill="white"/>
<path fill-rule="evenodd" clip-rule="evenodd" d="M40 7.34248V9.05485L42.0548 8.71237V7L40 7.34248Z" fill="white"/>
<path fill-rule="evenodd" clip-rule="evenodd" d="M42 7.34247V9.05484L44.0548 8.54113V7L42 7.34247Z" fill="white"/>
<path fill-rule="evenodd" clip-rule="evenodd" d="M45 6.51371V8.05484L47.0548 7.71237V6L45 6.51371Z" fill="white"/>
<path fill-rule="evenodd" clip-rule="evenodd" d="M37 11.5137V13.0548L39.0548 12.7124V11L37 11.5137Z" fill="white"/>
<path fill-rule="evenodd" clip-rule="evenodd" d="M40 10.5137V12.0548L42.0548 11.7124V10L40 10.5137Z" fill="white"/>
<path fill-rule="evenodd" clip-rule="evenodd" d="M42 10.3425V12.0548L44.0548 11.7124V10L42 10.3425Z" fill="white"/>
<path fill-rule="evenodd" clip-rule="evenodd" d="M45 9.34247V11.0548L47.0548 10.5411V9L45 9.34247Z" fill="white"/>
<path fill-rule="evenodd" clip-rule="evenodd" d="M37 14.3425V16.0548L39.0548 15.5411V14L37 14.3425Z" fill="white"/>
<path fill-rule="evenodd" clip-rule="evenodd" d="M40 14.3425V15.8836L42.0548 15.5411V14L40 14.3425Z" fill="white"/>
<path fill-rule="evenodd" clip-rule="evenodd" d="M42 13.5137V15.0548L44.0548 14.7124V13L42 13.5137Z" fill="white"/>
<path fill-rule="evenodd" clip-rule="evenodd" d="M45 12.3425V14.0548L47.0548 13.5411V12L45 12.3425Z" fill="white"/>
<path fill-rule="evenodd" clip-rule="evenodd" d="M37 17.3425V19.0548L39.0548 18.7124V17L37 17.3425Z" fill="white"/>
<path fill-rule="evenodd" clip-rule="evenodd" d="M40 17.3425V19.0548L42.0548 18.5411V17L40 17.3425Z" fill="white"/>
<path fill-rule="evenodd" clip-rule="evenodd" d="M42 16.3425V17.8836L44.0548 17.5411V16L42 16.3425Z" fill="white"/>
<path fill-rule="evenodd" clip-rule="evenodd" d="M45 16.3425V18.0548L47.0548 17.7124V16L45 16.3425Z" fill="white"/>
<path fill-rule="evenodd" clip-rule="evenodd" d="M37 20.3425V22.0548L39.0548 21.7124V20L37 20.3425Z" fill="white"/>
<path fill-rule="evenodd" clip-rule="evenodd" d="M40 20.3425V22.0548L42.0548 21.7124V20L40 20.3425Z" fill="white"/>
<path fill-rule="evenodd" clip-rule="evenodd" d="M42 19.3425V21.0548L44.0548 20.5411V19L42 19.3425Z" fill="white"/>
<path fill-rule="evenodd" clip-rule="evenodd" d="M45 19.5137V21.0548L47.0548 20.7124V19L45 19.5137Z" fill="white"/>
<path fill-rule="evenodd" clip-rule="evenodd" d="M37 23.5137V25.0548L39.0548 24.7124V23L37 23.5137Z" fill="white"/>
<path fill-rule="evenodd" clip-rule="evenodd" d="M40 23.3425V25.0548L42.0548 24.7124V23L40 23.3425Z" fill="white"/>
<path fill-rule="evenodd" clip-rule="evenodd" d="M42 22.3425V24.0548L44.0548 23.7124V22L42 22.3425Z" fill="white"/>
<path fill-rule="evenodd" clip-rule="evenodd" d="M45 22.3425V23.8836L47.0548 23.5411V22L45 22.3425Z" fill="white"/>
<path fill-rule="evenodd" clip-rule="evenodd" d="M37 27.3425V28.8836L39.0548 28.5411V27L37 27.3425Z" fill="white"/>
<path fill-rule="evenodd" clip-rule="evenodd" d="M40 26.5137V28.0548L42.0548 27.7124V26L40 26.5137Z" fill="white"/>
<path fill-rule="evenodd" clip-rule="evenodd" d="M42 25.3425V27.0548L44.0548 26.7124V25L42 25.3425Z" fill="white"/>
<path fill-rule="evenodd" clip-rule="evenodd" d="M45 25.3425V27.0548L47.0548 26.5411V25L45 25.3425Z" fill="white"/>
<path fill-rule="evenodd" clip-rule="evenodd" d="M49 6V7.71237L51.0548 8.39732V6.85618L49 6Z" fill="white"/>
<path fill-rule="evenodd" clip-rule="evenodd" d="M52 8V9.54113L54.0548 10.3973V8.68495L52 8Z" fill="white"/>
<path fill-rule="evenodd" clip-rule="evenodd" d="M49 10V11.7124L51.0548 12.5686V10.8562L49 10Z" fill="white"/>
<path fill-rule="evenodd" clip-rule="evenodd" d="M52 11V12.5411L54.0548 13.3973V11.8562L52 11Z" fill="white"/>
<path fill-rule="evenodd" clip-rule="evenodd" d="M49 13V14.7124L51.0548 15.5686V13.8562L49 13Z" fill="white"/>
<path fill-rule="evenodd" clip-rule="evenodd" d="M52 14V15.5411L54.0548 16.3973V14.8562L52 14Z" fill="white"/>
<path fill-rule="evenodd" clip-rule="evenodd" d="M49 16V17.7124L51.0548 18.5686V16.8562L49 16Z" fill="white"/>
<path fill-rule="evenodd" clip-rule="evenodd" d="M52 17V18.5411L54.0548 19.3973V17.8562L52 17Z" fill="white"/>
<path fill-rule="evenodd" clip-rule="evenodd" d="M49 19V20.5411L51.0548 21.3973V19.6849L49 19Z" fill="white"/>
<path fill-rule="evenodd" clip-rule="evenodd" d="M52 20V21.7124L54.0548 22.3973V20.8562L52 20Z" fill="white"/>
<path fill-rule="evenodd" clip-rule="evenodd" d="M49 22V23.5411L51.0548 24.3973V22.8562L49 22Z" fill="white"/>
<path fill-rule="evenodd" clip-rule="evenodd" d="M52 23V24.7124L54.0548 25.5686V23.8562L52 23Z" fill="white"/>
<path fill-rule="evenodd" clip-rule="evenodd" d="M49 25V26.5411L51.0548 27.3973V25.8562L49 25Z" fill="white"/>
<path fill-rule="evenodd" clip-rule="evenodd" d="M52 26V27.7124L54.0548 28.5686V26.8562L52 26Z" fill="white"/>
<path d="M27 13.2261V41.3089H37.103V11L27 13.2261Z" fill="#E73237"/>
<path fill-rule="evenodd" clip-rule="evenodd" d="M38 11V41.1377H43.6508V13.2261L38 11Z" fill="#E73237"/>
<path fill-rule="evenodd" clip-rule="evenodd" d="M28 14.3425V15.7124L29.7124 15.3699V14L28 14.3425Z" fill="white"/>
<path fill-rule="evenodd" clip-rule="evenodd" d="M30 14.3425V15.5411L31.7124 15.1987V14L30 14.3425Z" fill="white"/>
<path fill-rule="evenodd" clip-rule="evenodd" d="M33 13.3425V14.7124L34.7124 14.3699V13L33 13.3425Z" fill="white"/>
<path fill-rule="evenodd" clip-rule="evenodd" d="M35 13.3425V14.7124L36.7124 14.3699V13L35 13.3425Z" fill="white"/>
<path fill-rule="evenodd" clip-rule="evenodd" d="M28 17.3425V18.7124L29.7124 18.3699V17L28 17.3425Z" fill="white"/>
<path fill-rule="evenodd" clip-rule="evenodd" d="M30 16.3425V17.7124L31.7124 17.3699V16L30 16.3425Z" fill="white"/>
<path fill-rule="evenodd" clip-rule="evenodd" d="M33 16.3425V17.5411L34.7124 17.3699V16L33 16.3425Z" fill="white"/>
<path fill-rule="evenodd" clip-rule="evenodd" d="M35 15.3425V16.7124L36.7124 16.3699V15L35 15.3425Z" fill="white"/>
<path fill-rule="evenodd" clip-rule="evenodd" d="M28 19.3425V20.5411L29.7124 20.3699V19L28 19.3425Z" fill="white"/>
<path fill-rule="evenodd" clip-rule="evenodd" d="M30 19.3425V20.7124L31.7124 20.3699V19L30 19.3425Z" fill="white"/>
<path fill-rule="evenodd" clip-rule="evenodd" d="M33 18.1712V19.5411L34.7124 19.1987V18L33 18.1712Z" fill="white"/>
<path fill-rule="evenodd" clip-rule="evenodd" d="M35 18.3425V19.5411L36.7124 19.3699V18L35 18.3425Z" fill="white"/>
<path fill-rule="evenodd" clip-rule="evenodd" d="M28 22.1712V23.5411L29.7124 23.1987V22L28 22.1712Z" fill="white"/>
<path fill-rule="evenodd" clip-rule="evenodd" d="M30 21.3425V22.7124L31.7124 22.3699V21L30 21.3425Z" fill="white"/>
<path fill-rule="evenodd" clip-rule="evenodd" d="M33 21.3425V22.7124L34.7124 22.3699V21L33 21.3425Z" fill="white"/>
<path fill-rule="evenodd" clip-rule="evenodd" d="M35 21.1712V22.5411L36.7124 22.1987V21L35 21.1712Z" fill="white"/>
<path fill-rule="evenodd" clip-rule="evenodd" d="M28 24.3425V25.7124L29.7124 25.3699V24L28 24.3425Z" fill="white"/>
<path fill-rule="evenodd" clip-rule="evenodd" d="M30 24.3425V25.5411L31.7124 25.3699V24L30 24.3425Z" fill="white"/>
<path fill-rule="evenodd" clip-rule="evenodd" d="M33 23.3425V24.7124L34.7124 24.3699V23L33 23.3425Z" fill="white"/>
<path fill-rule="evenodd" clip-rule="evenodd" d="M35 23.3425V24.7124L36.7124 24.3699V23L35 23.3425Z" fill="white"/>
<path fill-rule="evenodd" clip-rule="evenodd" d="M28 27.3425V28.7124L29.7124 28.3699V27L28 27.3425Z" fill="white"/>
<path fill-rule="evenodd" clip-rule="evenodd" d="M30 27.1712V28.5411L31.7124 28.1987V27L30 27.1712Z" fill="white"/>
<path fill-rule="evenodd" clip-rule="evenodd" d="M33 26.3425V27.7124L34.7124 27.3699V26L33 26.3425Z" fill="white"/>
<path fill-rule="evenodd" clip-rule="evenodd" d="M35 25.3425V26.7124L36.7124 26.3699V25L35 25.3425Z" fill="white"/>
<path fill-rule="evenodd" clip-rule="evenodd" d="M28 29.3425V30.5411L29.7124 30.3699V29L28 29.3425Z" fill="white"/>
<path fill-rule="evenodd" clip-rule="evenodd" d="M30 29.3425V30.7124L31.7124 30.3699V29L30 29.3425Z" fill="white"/>
<path fill-rule="evenodd" clip-rule="evenodd" d="M33 29.3425V30.5411L34.7124 30.1987V29L33 29.3425Z" fill="white"/>
<path fill-rule="evenodd" clip-rule="evenodd" d="M35 28.3425V29.7124L36.7124 29.3699V28L35 28.3425Z" fill="white"/>
<path fill-rule="evenodd" clip-rule="evenodd" d="M38 13V14.1987L39.7124 14.8836V13.685L38 13Z" fill="white"/>
<path fill-rule="evenodd" clip-rule="evenodd" d="M41 14V15.3699L42.5411 15.8836V14.685L41 14Z" fill="white"/>
<path fill-rule="evenodd" clip-rule="evenodd" d="M38 16V17.3699L39.7124 18.0548V16.6849L38 16Z" fill="white"/>
<path fill-rule="evenodd" clip-rule="evenodd" d="M41 17V18.1987L42.5411 18.8836V17.5137L41 17Z" fill="white"/>
<path fill-rule="evenodd" clip-rule="evenodd" d="M38 18V19.3699L39.7124 20.0548V18.6849L38 18Z" fill="white"/>
<path fill-rule="evenodd" clip-rule="evenodd" d="M41 19V20.3699L42.5411 21.0548V19.6849L41 19Z" fill="white"/>
<path fill-rule="evenodd" clip-rule="evenodd" d="M38 21V22.1987L39.7124 22.8836V21.6849L38 21Z" fill="white"/>
<path fill-rule="evenodd" clip-rule="evenodd" d="M41 22V23.3699L42.5411 24.0548V22.6849L41 22Z" fill="white"/>
<path fill-rule="evenodd" clip-rule="evenodd" d="M38 23V24.3699L39.7124 25.0548V23.6849L38 23Z" fill="white"/>
<path fill-rule="evenodd" clip-rule="evenodd" d="M41 24V25.1987L42.5411 25.8836V24.6849L41 24Z" fill="white"/>
<path fill-rule="evenodd" clip-rule="evenodd" d="M38 26V27.3699L39.7124 28.0548V26.6849L38 26Z" fill="white"/>
<path fill-rule="evenodd" clip-rule="evenodd" d="M41 27V28.3699L42.5411 29.0548V27.6849L41 27Z" fill="white"/>
<path fill-rule="evenodd" clip-rule="evenodd" d="M38 28V29.3699L39.7124 30.0548V28.6849L38 28Z" fill="white"/>
<path fill-rule="evenodd" clip-rule="evenodd" d="M41 29V30.3699L42.5411 31.0548V29.6849L41 29Z" fill="white"/>
<path d="M21.1002 22.4992L17 37L17.6591 37.1864L21.7593 22.6856L21.1002 22.4992Z" fill="#E73237"/>
<path d="M22.1003 23.4993L18 38L18.6591 38.1864L22.7595 23.6856L22.1003 23.4993Z" fill="#E73237"/>
<path d="M26.699 38H13V40.2261H26.699V38Z" fill="#E73237"/>
<path fill-rule="evenodd" clip-rule="evenodd" d="M25.4796 36H20V38.2261H26.8495L25.4796 36Z" fill="#E73237"/>
<path d="M27.3064 1.26647L18 36L18.9924 36.2659L28.2988 1.53237L27.3064 1.26647Z" fill="#E73237"/>
<path d="M20.6234 37H16V38.7124H20.6234V37Z" fill="#E73237"/>
<path d="M13.3973 37H11V40.0823H13.3973V37Z" fill="#E73237"/>
<path d="M19.3973 35H17V38.0823H19.3973V35Z" fill="#E73237"/>
<path d="M16.3973 37H14V40.0823H16.3973V37Z" fill="#E73237"/>
<path fill-rule="evenodd" clip-rule="evenodd" d="M13.3699 39C12.6849 39 12 39.5137 12 40.3699C12 41.0548 12.5137 41.7398 13.3699 41.7398C14.0548 41.7398 14.7398 41.2261 14.7398 40.3699C14.5686 39.5137 14.0548 39 13.3699 39Z" fill="#E73237"/>
<path fill-rule="evenodd" clip-rule="evenodd" d="M16.3699 39C15.6849 39 15 39.5137 15 40.3699C15 41.0548 15.5137 41.7398 16.3699 41.7398C17.0548 41.7398 17.7398 41.2261 17.7398 40.3699C17.7398 39.5137 17.2261 39 16.3699 39Z" fill="#E73237"/>
<path fill-rule="evenodd" clip-rule="evenodd" d="M19.3699 39C18.6849 39 18 39.5137 18 40.3699C18 41.0548 18.5137 41.7398 19.3699 41.7398C20.0548 41.7398 20.7398 41.2261 20.7398 40.3699C20.7398 39.5137 20.2261 39 19.3699 39Z" fill="#E73237"/>
<path fill-rule="evenodd" clip-rule="evenodd" d="M22.3699 39C21.6849 39 21 39.5137 21 40.3699C21 41.0548 21.5137 41.7398 22.3699 41.7398C23.0548 41.7398 23.7398 41.2261 23.7398 40.3699C23.5686 39.5137 23.0548 39 22.3699 39Z" fill="#E73237"/>
<path fill-rule="evenodd" clip-rule="evenodd" d="M25.3699 39C24.6849 39 24 39.5137 24 40.3699C24 41.0548 24.5137 41.7398 25.3699 41.7398C26.0548 41.7398 26.7398 41.2261 26.7398 40.3699C26.7398 39.5137 26.0548 39 25.3699 39Z" fill="#E73237"/>
<path d="M27.1331 0.503848L27 1L28.8191 1.4882L28.9522 0.992045L27.1331 0.503848Z" fill="#E73237"/>
<path d="M28.6662 1.42759L27 10L27.1681 10.0327L28.8343 1.46026L28.6662 1.42759Z" fill="#E73237"/>
<path fill-rule="evenodd" clip-rule="evenodd" d="M29.1712 2L29 2.17124L30.8836 10.7331H31.0548L29.1712 2Z" fill="#E73237"/>
<path d="M31.1097 10H27V10.5137H31.1097V10Z" fill="#E73237"/>
<path d="M8.53443 30V32.5686H4.08226V41.4729H1V30H8.53443Z" fill="#2D2828"/>
<path d="M18.3906 33.7672C18.3906 34.9659 18.0481 35.9933 17.192 36.6782C16.507 37.3632 15.3083 37.7057 13.9385 37.7057H13.0823V41.4729H10V30H13.9385C15.3083 30 16.507 30.3425 17.192 31.0274C18.0481 31.7124 18.3906 32.7398 18.3906 33.7672ZM13.2535 35.3083H13.7672C14.2809 35.3083 14.6234 35.1371 14.7946 34.9659C15.1371 34.6234 15.1371 34.2809 15.1371 33.9384C15.1371 33.0823 14.6234 32.7398 13.9385 32.7398H13.0823V35.3083H13.2535Z" fill="#2D2828"/>
<path d="M30.9592 35.8221C30.9592 37.7057 30.4455 39.2468 29.5893 40.2742C28.5618 41.3016 27.192 41.8154 25.4796 41.8154C23.7672 41.8154 22.3973 41.3016 21.3699 40.2742C20.3425 39.2468 20 37.8769 20 35.8221C20 33.9385 20.5137 32.3973 21.3699 31.5411C22.3973 30.5137 23.7672 30 25.4796 30C27.3632 30 28.7331 30.5137 29.5893 31.5411C30.6167 32.5686 30.9592 33.9385 30.9592 35.8221ZM23.2535 35.8221C23.2535 38.0481 23.9385 39.0756 25.4796 39.0756C26.3358 39.0756 26.8495 38.7331 27.192 38.2194C27.5344 37.7057 27.7057 36.8495 27.7057 35.6508C27.7057 34.4522 27.5344 33.596 27.192 33.0823C26.8495 32.5686 26.1645 32.2261 25.4796 32.2261C23.9385 32.5686 23.2535 33.596 23.2535 35.8221Z" fill="#2D2828"/>
<path d="M38.4796 32.3973C37.7946 32.3973 37.1097 32.7398 36.7672 33.2535C36.4247 33.9384 36.0823 34.6234 36.0823 35.8221C36.0823 38.0481 36.9385 39.0756 38.6508 39.0756C39.1645 39.0756 39.6782 39.0756 40.192 38.9043C40.7057 38.7331 41.2194 38.5618 41.5619 38.3906V40.9592C40.5344 41.3016 39.507 41.6441 38.3084 41.6441C36.596 41.6441 35.2261 41.1304 34.3699 40.103C33.5137 39.0756 33 37.7057 33 35.8221C33 34.6234 33.1712 33.596 33.685 32.7398C34.1987 31.8836 34.7124 31.1987 35.5686 30.6849C36.4247 30.1712 37.4522 30 38.4796 30C39.6782 30 40.8769 30.3425 42.0756 30.8562L41.0481 33.2535C40.7057 33.0823 40.192 32.911 39.8495 32.7398C39.507 32.3973 38.9933 32.3973 38.4796 32.3973Z" fill="#2D2828"/>
<path d="M53.9317 41.4729H50.507L47.0823 35.6508V41.4729H44V30H47.0823V35.6508L50.3358 30H53.7605L50.3358 35.4796L53.9317 41.4729Z" fill="#2D2828"/>
<path d="M63.3906 33.7672C63.3906 34.9659 63.0481 35.9933 62.1919 36.6782C61.507 37.3632 60.3083 37.7057 58.9385 37.7057H58.0823V41.4729H55V30H58.9385C60.3083 30 61.507 30.3425 62.1919 31.0274C63.0481 31.7124 63.3906 32.7398 63.3906 33.7672ZM58.0823 35.3083H58.596C59.1097 35.3083 59.4522 35.1371 59.6234 34.9659C59.9659 34.6234 59.9659 34.2809 59.9659 33.9384C59.9659 33.0823 59.4522 32.7398 58.7672 32.7398H57.911V35.3083H58.0823Z" fill="#2D2828"/>
<path d="M72.2194 41.4729L71.7057 39.2468H67.9385L67.4247 41.4729H64L67.7672 30H71.8769L75.6441 41.4729H72.2194ZM71.0207 36.8495L70.507 34.9659C70.3358 34.6234 70.3358 33.9384 70.1645 33.4247C69.9933 32.7398 69.8221 32.2261 69.8221 32.0548C69.8221 32.3973 69.6508 32.7398 69.4796 33.4247C69.3083 34.1097 68.9659 35.3083 68.6234 37.0207H71.0207V36.8495Z" fill="#2D2828"/>
<path d="M86.7605 41.4729H83.6782V36.8495H80.0823V41.4729H77V30H80.0823V34.2809H83.6782V30H86.7605V41.4729Z" fill="#2D2828"/>
</svg>
