<svg width="20" height="20" fill="none" xmlns="http://www.w3.org/2000/svg"><path d="M17.656 2H2.344A2.346 2.346 0 000 4.344v1.933l8.601 6.398c.419.311.909.467 1.399.467s.98-.156 1.399-.467L20 6.277V4.344A2.346 2.346 0 0017.656 2zm.782 3.492l-7.972 5.93a.776.776 0 01-.932 0l-7.972-5.93V4.344c0-.431.351-.782.782-.782h15.312c.431 0 .782.351.782.782v1.148zm0 3.895L20 8.224v7.682a2.346 2.346 0 01-2.344 2.344H2.344A2.346 2.346 0 010 15.906V8.224l1.563 1.163v6.52c0 .43.35.78.78.78h15.313c.431 0 .782-.35.782-.78v-6.52z" fill="#E73237"/></svg>