<svg width="10" height="16" viewBox="0 0 10 16" fill="none" xmlns="http://www.w3.org/2000/svg">
<path d="M4.45339 11.2187C3.23243 11.0914 2.13154 10.7906 1.18901 10.0535C1.07206 9.96175 0.951313 9.87333 0.84459 9.77089C0.432045 9.37469 0.390477 8.92091 0.716917 8.45327C0.996181 8.0531 1.46497 7.94603 1.95224 8.17582C2.04659 8.22036 2.13649 8.27596 2.2226 8.33565C3.97917 9.54261 6.39225 9.57591 8.1554 8.38992C8.3301 8.25599 8.51683 8.14678 8.73323 8.09102C9.15403 7.98298 9.54645 8.13755 9.77227 8.50571C10.0303 8.92617 10.0269 9.33658 9.70909 9.66301C9.2215 10.1635 8.63511 10.5256 7.98354 10.7782C7.36744 11.0171 6.69263 11.1374 6.02474 11.2172C6.12551 11.3269 6.17301 11.3808 6.23604 11.4442C7.14295 12.3554 8.05382 13.2628 8.95773 14.1768C9.2657 14.4882 9.33005 14.8743 9.16046 15.2366C8.97505 15.6324 8.56005 15.8929 8.1531 15.865C7.89528 15.8472 7.69422 15.7189 7.51555 15.5389C6.8312 14.8503 6.13392 14.1743 5.46339 13.4726C5.26825 13.2685 5.17442 13.3071 5.00221 13.4843C4.31369 14.1931 3.61396 14.891 2.91012 15.5849C2.59407 15.8965 2.21798 15.9526 1.85146 15.7746C1.46184 15.5858 1.21392 15.1881 1.23305 14.7884C1.24625 14.5181 1.3792 14.3115 1.56477 14.1263C2.46227 13.2301 3.3573 12.3316 4.25265 11.4339C4.31186 11.3742 4.36715 11.3109 4.45339 11.2187Z" fill="white"/>
<path d="M5.20763 8.09698C3.02945 8.08954 1.24336 6.28383 1.25606 4.10218C1.26859 1.89643 3.05584 0.118912 5.25547 0.125016C7.45956 0.130954 9.22866 1.93404 9.21761 4.16272C9.20639 6.3399 7.40793 8.10457 5.20763 8.09698ZM7.18721 4.10744C7.18343 3.02421 6.32072 2.16184 5.23963 2.16085C4.14946 2.1597 3.27902 3.03773 3.28743 4.13087C3.29552 5.20998 4.16565 6.06623 5.24971 6.0623C6.33046 6.05848 7.19087 5.19052 7.18721 4.10744Z" fill="white"/>
</svg>
