<svg width="12" height="19" viewBox="0 0 12 19" fill="none" xmlns="http://www.w3.org/2000/svg">
<path d="M9.66776 11.9922C10.7928 11.2539 11.3201 10.832 10.8631 9.91797C10.617 9.42578 9.8787 9.00391 8.96463 9.74219C8.96463 9.74219 7.66385 10.7617 5.62479 10.7617C3.55057 10.7617 2.28495 9.74219 2.28495 9.74219C1.33573 8.96875 0.632598 9.42578 0.351348 9.91797C-0.0705263 10.832 0.421661 11.2539 1.54667 11.9922C2.53104 12.625 3.86698 12.8711 4.74588 12.9414L4.0076 13.6797C2.98807 14.6992 2.03885 15.6836 1.33573 16.3516C0.351348 17.3359 1.93338 18.918 2.95291 17.9688L5.62479 15.2617C6.64432 16.3164 7.6287 17.3008 8.29667 17.9688C9.28104 18.9531 10.8982 17.3711 9.91385 16.3516L7.24198 13.6797L6.5037 12.9414C7.3826 12.8711 8.68338 12.625 9.66776 11.9922ZM1.05448 4.82031C1.05448 7.35156 3.09354 9.39062 5.62479 9.39062C8.12088 9.39062 10.16 7.35156 10.16 4.82031C10.16 2.28906 8.12088 0.25 5.62479 0.25C3.09354 0.25 1.05448 2.28906 1.05448 4.82031ZM3.37479 4.82031C3.37479 3.58984 4.35917 2.57031 5.62479 2.57031C6.85526 2.57031 7.83963 3.58984 7.83963 4.82031C7.83963 6.05078 6.85526 7.07031 5.62479 7.07031C4.35917 7.07031 3.37479 6.05078 3.37479 4.82031Z" fill="#6400D1"/>
</svg>
