<svg width="33" height="35" viewBox="0 0 33 35" fill="none" xmlns="http://www.w3.org/2000/svg">
<path d="M24.5396 25.4196L18.2521 22.7857C16.7652 22.1627 15.0671 22.6879 14.2151 24.0349L14.2106 24.0418L14.1961 24.0648C14.1788 24.0926 14.156 24.1016 14.1396 24.105C14.1107 24.1103 14.0929 24.0974 14.0865 24.0923C12.3771 22.8165 10.9468 21.2416 9.83477 19.4112C8.72295 17.5802 7.9846 15.5838 7.64128 13.4773C7.64001 13.4701 7.6371 13.4511 7.65321 13.4304C7.66646 13.4138 7.68447 13.4044 7.70762 13.4026L7.74284 13.3996C9.33613 13.2672 10.5897 11.9985 10.7227 10.3841L11.3316 3.00335C11.4174 1.96325 10.8327 0.985994 9.87638 0.569093C9.53493 0.415027 9.16514 0.288831 8.77681 0.193613C5.30022 -0.655189 1.77793 1.36131 0.757971 4.78463C0.695115 4.99855 0.644215 5.21672 0.598255 5.43495L0.597713 5.43737C0.422566 6.19757 0.365377 6.65211 0.279126 7.33876L0.260632 7.48473C0.239395 7.64847 -0.257715 11.5214 0.184775 13.9429C0.87157 17.6988 2.32449 21.2968 4.38707 24.3472C6.56592 27.5694 9.3308 30.1181 12.6043 31.9224C13.435 32.3803 14.1493 31.0871 13.3175 30.6284C10.2504 28.9382 7.65744 26.5462 5.61112 23.5195C3.6623 20.6369 2.28837 17.2338 1.63823 13.6771C1.23721 11.4839 1.72039 7.71389 1.72585 7.6732L1.74474 7.52315C1.82014 6.92447 1.91633 6.33892 2.04201 5.7489L2.04383 5.7396C2.08 5.55783 2.12409 5.37816 2.17575 5.20025C2.97288 2.53584 5.71703 0.967676 8.42596 1.62897C8.72756 1.70254 9.01224 1.79983 9.27231 1.91741C9.27595 1.9192 9.2798 1.92091 9.28365 1.92262C9.66161 2.08598 9.89295 2.47167 9.85899 2.88187L9.25028 10.2626C9.17649 11.1545 8.49093 11.8548 7.62143 11.9274L7.59227 11.9295C7.15948 11.9632 6.75812 12.1775 6.49125 12.5177C6.22629 12.8551 6.11389 13.2914 6.18312 13.7149C6.55693 16.0097 7.36087 18.1842 8.57215 20.1783C9.78281 22.1716 11.3405 23.8866 13.2027 25.2763C13.5477 25.5341 13.9884 25.6362 14.4117 25.557C14.8389 25.4768 15.2168 25.2187 15.45 24.8461L15.4635 24.8249C15.9288 24.0896 16.8614 23.8049 17.681 24.1483L23.9686 26.7823C24.7358 27.1039 25.0955 28.0061 24.9764 28.7919C24.7643 30.1625 23.7187 31.4292 22.5563 32.1192C21.3726 32.8212 19.9839 33.0287 18.6461 32.702C17.7247 32.4771 17.3728 33.9118 18.2956 34.1372C19.6388 34.465 21.0219 34.3738 22.2875 33.8864C22.6385 33.7512 22.9808 33.5852 23.3101 33.3899C24.8533 32.4739 26.1567 30.8243 26.4365 29.018L26.4417 28.9843C26.6635 27.5502 25.9066 25.9924 24.5396 25.4196Z" fill="#E73237"/>
<path d="M15.3209 31.9418C14.9459 32.0862 14.7526 32.5221 14.8968 32.8966C15.0411 33.2713 15.4771 33.4649 15.8519 33.3206C16.2157 33.1805 16.4097 32.7654 16.286 32.3963C16.1545 32.0044 15.7074 31.7929 15.3209 31.9418Z" fill="#E73237"/>
<path d="M24.6299 1.76809C20.247 1.76809 16.6816 5.33369 16.6816 9.71685C16.6816 10.0998 16.7094 10.4856 16.7646 10.8665L15.4469 15.1471C15.3082 15.5973 15.6506 16.0777 16.114 16.1021L20.1988 16.316C21.5111 17.1996 23.0384 17.6654 24.6299 17.6654C29.0129 17.6654 32.5787 14.0996 32.5787 9.71685C32.5787 5.33369 29.0129 1.76809 24.6299 1.76809ZM24.6299 16.1878C23.2741 16.1878 21.9759 15.773 20.8758 14.988C20.7614 14.9063 20.6258 14.8589 20.4857 14.8518L17.1375 14.6761L18.2268 11.1382C18.3548 10.7227 18.1592 10.1489 18.1592 9.71685C18.1592 6.14849 21.0618 3.24588 24.6299 3.24588C28.1981 3.24588 31.1009 6.14849 31.1009 9.71685C31.1009 13.2847 28.1981 16.1878 24.6299 16.1878Z" fill="#E73237"/>
<path d="M21.9471 9.18641C21.5454 9.18641 21.2083 9.52353 21.2083 9.92508C21.2083 10.3269 21.5456 10.6642 21.9471 10.6642C22.337 10.6642 22.6672 10.3461 22.6844 9.95742C22.7025 9.54371 22.362 9.18641 21.9471 9.18641Z" fill="#E73237"/>
<path d="M24.8533 9.18641C24.4509 9.18641 24.1147 9.52261 24.1147 9.92508C24.1147 10.3273 24.4516 10.6642 24.8533 10.6642C25.2437 10.6637 25.573 10.3466 25.5899 9.95742C25.6081 9.54371 25.2689 9.18641 24.8533 9.18641Z" fill="#E73237"/>
<path d="M27.7588 9.18641C27.3573 9.18641 27.0202 9.52353 27.0202 9.92508C27.0204 10.3269 27.3577 10.6642 27.7588 10.6642C28.1491 10.6642 28.4789 10.3461 28.4961 9.95742C28.5147 9.54371 28.1741 9.18641 27.7588 9.18641Z" fill="#E73237"/>
</svg>
