<svg width="20" height="20" fill="none" xmlns="http://www.w3.org/2000/svg"><path d="M19.657 9.803a11.891 11.891 0 00-3.343-6.449A11.89 11.89 0 009.865.011a.74.74 0 00-.25 1.458 10.43 10.43 0 015.651 2.929 10.407 10.407 0 012.929 5.651.739.739 0 00.85.604.733.733 0 00.612-.85zm-3.816.188A7.3 7.3 0 0013.8 6.048a7.242 7.242 0 00-3.935-2.037.74.74 0 00-.25 1.458 5.796 5.796 0 013.142 1.63 5.797 5.797 0 011.63 3.143.739.739 0 00.85.603.74.74 0 00.604-.854zm.439 4.855a18.85 18.85 0 00-.69-.694c-.115-.11-.23-.226-.345-.34l-1.002-1.003c-.427-.427-.928-.653-1.442-.653-.517 0-1.014.226-1.441.653l-.312.308c-.239.234-.485.477-.723.731-.423-.205-.855-.489-1.356-.883a14.169 14.169 0 01-1.708-1.634.737.737 0 00-1.044-.07.737.737 0 00-.07 1.043 15.087 15.087 0 001.894 1.815c.004 0 .004.005.008.005.727.574 1.34.952 1.992 1.22a.242.242 0 00.05.016c.156.053.624.21 1.084-.247l.029-.028c.279-.317.575-.604.887-.912.107-.103.213-.21.32-.316.099-.1.25-.222.399-.222.147 0 .295.119.398.222l1.002 1.002.357.353c.23.222.444.435.65.653.003.008.012.012.016.016.156.156.324.403-.008.756l-1.253 1.253a1.434 1.434 0 01-.936.44c-.637.053-1.315-.07-2.198-.4-1.47-.541-2.842-1.367-4.325-2.599-1.79-1.5-3.2-3.298-4.193-5.348-.354-.743-.768-1.729-.838-2.776-.037-.583.119-1.002.497-1.356.275-.23.517-.48.747-.718.148-.156.288-.3.436-.436l.004-.004c.291-.28.534-.283.805-.012l2.025 2.025.012.012c.086.082.189.21.193.35 0 .147-.11.29-.201.385L4.743 8.71a.744.744 0 000 1.047.744.744 0 001.047 0l1.257-1.256c.423-.423.64-.92.637-1.446-.004-.514-.226-.998-.641-1.397l-2.02-2.02c-.847-.846-1.997-.85-2.872-.013-.172.16-.328.325-.484.485-.218.226-.423.44-.645.624a.145.145 0 01-.029.025C.274 5.412-.054 6.266.007 7.3c.087 1.3.567 2.457.978 3.32v.004a17.608 17.608 0 004.575 5.84c1.614 1.34 3.126 2.247 4.756 2.851.6.222 1.475.501 2.444.501.128 0 .26-.004.39-.016h.005a2.912 2.912 0 001.856-.867l1.257-1.257.012-.012c.81-.842.805-2 0-2.818z" fill="#E73237"/></svg>