<svg width="9" height="10" viewBox="0 0 9 10" fill="none" xmlns="http://www.w3.org/2000/svg">
<path d="M7.92391 2.75217H6.98478L6.4663 1.96957C6.27065 1.67609 5.92826 1.5 5.57609 1.5H3.42391C3.07174 1.5 2.72935 1.67609 2.5337 1.96957L2.01522 2.75217H1.07609C0.479348 2.75217 0 3.23152 0 3.82826V7.62391C0 8.22065 0.479348 8.7 1.07609 8.7H7.92391C8.52065 8.7 9 8.22065 9 7.62391V3.82826C9 3.23152 8.52065 2.75217 7.92391 2.75217ZM4.5 7.81956C3.15978 7.81956 2.07391 6.7337 2.07391 5.39348C2.07391 4.05326 3.15978 2.97717 4.5 2.97717C5.84022 2.97717 6.92609 4.06304 6.92609 5.40326C6.92609 6.7337 5.84022 7.81956 4.5 7.81956Z" fill="white"/>
<path d="M4.5 4.28506C3.88464 4.28506 3.38263 4.78706 3.38263 5.40242C3.38263 6.01778 3.88464 6.51168 4.5 6.51168C5.11536 6.51168 5.61736 6.00968 5.61736 5.39432C5.61736 4.77896 5.11536 4.28506 4.5 4.28506Z" fill="white"/>
</svg>
