<svg width="108" height="108" viewBox="0 0 108 108" fill="none" xmlns="http://www.w3.org/2000/svg">
<circle cx="54" cy="54" r="54" fill="white" fill-opacity="0.15"/>
<circle cx="54" cy="54" r="42" fill="white" fill-opacity="0.3"/>
<circle cx="54" cy="54" r="30" fill="white"/>
<path d="M64.1233 51.0107C63.7849 50.7997 63.3399 50.9029 63.1291 51.2412C62.9183 51.5795 63.0215 52.0244 63.3596 52.2352C64.1466 52.726 64.6163 53.5726 64.6163 54.5001C64.6163 55.4275 64.1466 56.2741 63.3596 56.7649L51.5242 64.1445C50.6892 64.6651 49.6771 64.6908 48.8169 64.2134C47.9566 63.736 47.443 62.8635 47.443 61.8797V47.1203C47.443 46.1365 47.9566 45.264 48.8169 44.7866C49.6771 44.3093 50.6892 44.3349 51.5242 44.8555L58.414 49.1515C58.7523 49.3622 59.1973 49.2591 59.4082 48.9209C59.619 48.5828 59.5158 48.1377 59.1777 47.9269L52.2878 43.631C51.0015 42.829 49.4424 42.7892 48.1167 43.5248C46.7913 44.2603 46 45.6044 46 47.1203V61.8796C46 63.3955 46.7913 64.7396 48.1168 65.4751C48.7481 65.8254 49.4323 65.9999 50.115 65.9999C50.8655 65.9999 51.6143 65.789 52.2878 65.3689L64.1233 57.9892C65.3357 57.2332 66.0596 55.9289 66.0596 54.4999C66.0596 53.071 65.3357 51.7667 64.1233 51.0107Z" fill="#E73237"/>
</svg>
