<svg width="30" height="30" viewBox="0 0 30 30" fill="none" xmlns="http://www.w3.org/2000/svg">
<path d="M9.75781 9.87891C9.75781 10.3641 9.36414 10.7578 8.87891 10.7578C8.39345 10.7578 8 10.3641 8 9.87891C8 9.39345 8.39345 9 8.87891 9C9.36414 9 9.75781 9.39345 9.75781 9.87891Z" fill="#E73237"/>
<path d="M12.7578 9.87891C12.7578 10.3641 12.3644 10.7578 11.8789 10.7578C11.3934 10.7578 11 10.3641 11 9.87891C11 9.39345 11.3934 9 11.8789 9C12.3644 9 12.7578 9.39345 12.7578 9.87891Z" fill="#E73237"/>
<path d="M21.7578 11.8789C21.7578 12.3644 21.3644 12.7578 20.8789 12.7578C20.3937 12.7578 20 12.3644 20 11.8789C20 11.3934 20.3937 11 20.8789 11C21.3644 11 21.7578 11.3934 21.7578 11.8789Z" fill="#E73237"/>
<path d="M15.7578 9.87891C15.7578 10.3641 15.3644 10.7578 14.8789 10.7578C14.3934 10.7578 14 10.3641 14 9.87891C14 9.39345 14.3934 9 14.8789 9C15.3644 9 15.7578 9.39345 15.7578 9.87891Z" fill="#E73237"/>
<path d="M7.36642 16.0243L9.96927 14.2892H11.6751C11.8765 15.8794 13.237 17.1133 14.8811 17.1133H20.734L23.3369 18.8485C23.9203 19.2376 24.7033 18.8178 24.7033 18.1172V11.0567C24.7033 9.27437 23.2531 7.82417 21.4708 7.82417H19.0284C18.8291 6.23276 17.4734 5 15.8225 5H9.2325C7.44699 5 6 6.44447 6 8.2325V15.293C6 15.9943 6.78392 16.4125 7.36642 16.0243ZM22.9455 11.0567V16.475L21.4875 15.5032C21.3433 15.4068 21.1735 15.3555 21 15.3555H14.8811C14.2095 15.3555 13.6417 14.9042 13.4643 14.2892H15.8225C17.6048 14.2892 19.0547 12.839 19.0547 11.0567V9.58198H21.4708C22.2838 9.58198 22.9455 10.2437 22.9455 11.0567ZM7.75781 8.2325C7.75781 7.4099 8.42546 6.75781 9.2325 6.75781H15.8222C16.6451 6.75781 17.2969 7.42546 17.2969 8.2325V11.0567C17.2969 11.8699 16.6355 12.5314 15.8222 12.5314H9.70331C9.52982 12.5314 9.35999 12.5826 9.21579 12.679L7.75781 13.6508V8.2325Z" fill="#E73237"/>
<path d="M27.2383 2H2.76169C1.2204 2 0 3.25107 0 4.76169V21.7072C0 23.2482 1.25107 24.4689 2.76169 24.4689H14.1211V26.4766H10.293C9.80759 26.4766 9.41414 26.8701 9.41414 27.3555C9.41414 27.841 9.80759 28.2344 10.293 28.2344H19.7072C20.1924 28.2344 20.5861 27.841 20.5861 27.3555C20.5861 26.8701 20.1924 26.4766 19.7072 26.4766H15.8789V24.4689H27.2383C28.7796 24.4689 30 23.2178 30 21.7072V4.76169C30 3.2204 28.7489 2 27.2383 2ZM2.76169 3.75781H27.2383C27.7853 3.75781 28.2422 4.20001 28.2422 4.76169V18.9453H1.75781V4.76169C1.75781 4.21466 2.20001 3.75781 2.76169 3.75781ZM27.9476 22.4172C27.7583 22.6067 27.5063 22.7111 27.2383 22.7111H2.76169C2.49344 22.7111 2.24167 22.6067 2.0517 22.4163C1.86218 22.2272 1.75781 21.9752 1.75781 21.7072V20.7031H28.2422V21.7072C28.2422 21.9752 28.1378 22.2272 27.9476 22.4172Z" fill="#E73237"/>
</svg>
