<svg width="16" height="16" viewBox="0 0 16 16" fill="none" xmlns="http://www.w3.org/2000/svg">
<path d="M15.3333 8.4445H4.66667C4.29867 8.4445 4 8.14583 4 7.77783C4 7.40983 4.29867 7.11116 4.66667 7.11116H15.3333C15.7013 7.11116 16 7.40983 16 7.77783C16 8.14583 15.7013 8.4445 15.3333 8.4445Z" fill="#9C9C9C"/>
<path d="M15.3333 3.33333H8.66667C8.29867 3.33333 8 3.03467 8 2.66667C8 2.29867 8.29867 2 8.66667 2H15.3333C15.7013 2 16 2.29867 16 2.66667C16 3.03467 15.7013 3.33333 15.3333 3.33333Z" fill="#9C9C9C"/>
<path d="M15.3333 13.5555H0.666667C0.298665 13.5555 0 13.2568 0 12.8888C0 12.5208 0.298665 12.2222 0.666667 12.2222H15.3333C15.7013 12.2222 16 12.5208 16 12.8888C16 13.2568 15.7013 13.5555 15.3333 13.5555Z" fill="#9C9C9C"/>
</svg>
