<svg width="9" height="9" viewBox="0 0 9 9" fill="none" xmlns="http://www.w3.org/2000/svg">
<path d="M8.98708 3.41752C8.95608 3.31744 8.87356 3.24453 8.77425 3.2294L5.98422 2.80438L4.73645 0.154069C4.69203 0.0597221 4.60038 0 4.50001 0C4.39966 0 4.30799 0.0597406 4.26357 0.154069L3.01573 2.8044L0.225754 3.2294C0.126437 3.24453 0.0439257 3.31746 0.012918 3.41752C-0.0181074 3.51758 0.00776759 3.62742 0.0796269 3.70086L2.09844 5.76386L1.62193 8.67686C1.60497 8.78055 1.64564 8.88537 1.72684 8.94719C1.80801 9.00901 1.91562 9.01717 2.00452 8.96823L4.49999 7.59291L6.9954 8.96825C7.03398 8.98952 7.0761 9 7.11807 9C7.17274 9 7.22716 8.9822 7.27308 8.94721C7.35427 8.88537 7.39495 8.78057 7.37798 8.67686L6.90134 5.76386L8.92036 3.70087C8.99223 3.62742 9.01811 3.51758 8.98708 3.41752ZM6.43399 5.46941C6.37183 5.53291 6.34346 5.62442 6.35816 5.71409L6.76792 8.21829L4.62272 7.03597C4.54591 6.99364 4.45413 6.99364 4.37731 7.03597L2.232 8.21831L2.64164 5.71407C2.6563 5.6244 2.62794 5.53293 2.56582 5.46943L0.830317 3.69594L3.22876 3.33054C3.31465 3.31746 3.38886 3.26093 3.42729 3.17935L4.49999 0.900918L5.57266 3.17933C5.61109 3.26091 5.6853 3.31746 5.77119 3.33054L8.16967 3.69592L6.43399 5.46941Z" fill="#E73237"/>
</svg>
