<svg width="18" height="15" viewBox="0 0 18 15" fill="none" xmlns="http://www.w3.org/2000/svg">
<path d="M7.2856 9.86477C7.22049 9.92323 7.18064 10.0047 7.17446 10.092L6.91782 13.7015C6.91087 13.7992 6.98887 13.8843 7.08556 13.8688C7.36245 13.8246 7.51159 13.6766 7.68476 13.5047L9.55721 11.7151L13.4371 14.5566C14.1487 14.9531 14.6501 14.7443 14.842 13.9019L17.3888 1.96821L17.3895 1.9675C17.6152 0.915603 17.0091 0.504265 16.3158 0.762318L1.34593 6.49362C0.32426 6.89021 0.339729 7.45974 1.17225 7.7178L4.85151 8.86219C4.94544 8.89142 5.0474 8.87822 5.13079 8.82605L13.8893 3.34566C14.3077 3.06862 14.6881 3.22191 14.3752 3.49895L7.2856 9.86477Z" fill="white"/>
</svg>
