<svg width="18" height="14" viewBox="0 0 18 14" fill="none" xmlns="http://www.w3.org/2000/svg">
<path d="M17.4375 1.87317C16.81 2.14844 16.1413 2.3309 15.4441 2.41949C16.1613 1.99129 16.7087 1.3184 16.966 0.507344C16.2974 0.906016 15.5591 1.18762 14.7723 1.34477C14.1374 0.668713 13.2325 0.25 12.2453 0.25C10.33 0.25 8.78802 1.80461 8.78802 3.71042C8.78802 3.98464 8.8112 4.24833 8.86817 4.49933C5.99203 4.35906 3.44707 2.98059 1.73742 0.880703C1.43894 1.39856 1.26387 1.99129 1.26387 2.62937C1.26387 3.8275 1.88086 4.88958 2.80055 5.50444C2.24472 5.49391 1.69945 5.33255 1.2375 5.07838C1.2375 5.08891 1.2375 5.10261 1.2375 5.11631C1.2375 6.7975 2.43668 8.19391 4.00922 8.51558C3.72762 8.59256 3.4207 8.62948 3.10219 8.62948C2.8807 8.62948 2.65711 8.61683 2.44722 8.57042C2.89547 9.94047 4.16744 10.9477 5.67984 10.9804C4.50281 11.9011 3.00832 12.4559 1.39043 12.4559C1.10672 12.4559 0.834609 12.4432 0.5625 12.4084C2.09496 13.3967 3.91113 13.9609 5.86969 13.9609C12.2358 13.9609 15.7163 8.6875 15.7163 4.11647C15.7163 3.96355 15.711 3.81589 15.7036 3.66931C16.3902 3.18203 16.9671 2.57348 17.4375 1.87317Z" fill="white"/>
</svg>
