<svg width="18" height="18" viewBox="0 0 18 18" fill="none" xmlns="http://www.w3.org/2000/svg">
<g clip-path="url(#clip0)">
<path d="M17.3432 12.2314C16.8045 11.5853 16.1705 11.0338 15.5707 10.4483C15.0296 9.92044 14.9955 9.61425 15.4305 9.00506C15.9052 8.34019 16.4158 7.70081 16.8949 7.03894C17.342 6.42038 17.7992 5.8035 18.0345 5.06288C18.1837 4.59169 18.0517 4.38356 17.5685 4.30106C17.4853 4.28663 17.3992 4.28588 17.3145 4.28588L14.4478 4.2825C14.0947 4.27725 13.8995 4.43119 13.7747 4.74413C13.6061 5.16713 13.4323 5.58975 13.2315 5.99794C12.7759 6.92344 12.267 7.818 11.5535 8.5755C11.3962 8.74256 11.2222 8.95369 10.9594 8.86669C10.6305 8.74669 10.5335 8.20481 10.539 8.02163L10.5362 4.71281C10.4724 4.24013 10.3676 4.02938 9.89829 3.9375L6.92042 3.93806C6.52292 3.93806 6.32361 4.09163 6.11136 4.34025C5.98892 4.48388 5.95198 4.57706 6.20361 4.62469C6.69786 4.71844 6.97629 5.03831 7.05017 5.53388C7.16867 6.32569 7.16042 7.12069 7.09217 7.91569C7.07211 8.14781 7.03217 8.37937 6.94011 8.59613C6.79611 8.93681 6.56361 9.00619 6.25817 8.79656C5.98161 8.60681 5.78736 8.33906 5.59723 8.07019C4.88304 7.06106 4.31323 5.97281 3.84861 4.82925C3.71436 4.49888 3.48279 4.29863 3.13273 4.29319C2.27267 4.2795 1.41242 4.27725 0.552357 4.29394C0.0348569 4.30369 -0.119456 4.55494 0.0912944 5.02406C1.02804 7.10775 2.07073 9.1335 3.43179 10.9789C4.13061 11.9259 4.93292 12.762 5.96942 13.3545C7.14411 14.0261 8.40861 14.2283 9.74042 14.166C10.364 14.1368 10.5514 13.9746 10.5802 13.353C10.5997 12.9278 10.6479 12.5049 10.8577 12.1228C11.0636 11.7478 11.3754 11.6764 11.7349 11.9096C11.9147 12.0264 12.0662 12.1751 12.2092 12.3319C12.5602 12.7159 12.8987 13.1115 13.263 13.4826C13.7199 13.9476 14.2612 14.2223 14.9419 14.1662L17.5766 14.1668C18.0011 14.139 18.2212 13.6185 17.9775 13.1447C17.8063 12.8128 17.5817 12.5173 17.3432 12.2314Z" fill="white"/>
</g>
<defs>
<clipPath id="clip0">
<rect width="18" height="18" fill="white"/>
</clipPath>
</defs>
</svg>
