<svg width="16" height="16" viewBox="0 0 16 16" fill="none" xmlns="http://www.w3.org/2000/svg">
<path d="M13.1792 2.77477C11.9016 1.50195 10.202 0.800531 8.39314 0.799805C6.58834 0.799805 4.88606 1.5006 3.60007 2.77311C2.31179 4.04778 1.60166 5.74177 1.6 7.53681V7.54016C1.60021 8.6266 1.88565 9.72263 2.42748 10.7231L1.61857 14.3998L5.33763 13.5539C6.27957 14.0286 7.33055 14.2788 8.39056 14.2792H8.39325C10.1977 14.2792 11.9 13.5783 13.1862 12.3057C14.4757 11.03 15.1861 9.33818 15.1869 7.542C15.1874 5.75847 14.4745 4.06544 13.1792 2.77477ZM8.39314 13.2178H8.39075C7.43897 13.2174 6.49589 12.9784 5.66365 12.5265L5.48778 12.4311L3.01476 12.9935L3.55193 10.5523L3.44837 10.3737C2.93352 9.48585 2.66146 8.50573 2.66146 7.53901C2.66343 4.40992 5.23438 1.86127 8.39295 1.86127C9.91885 1.86189 11.3526 2.45342 12.43 3.52671C13.5238 4.61662 14.1259 6.04247 14.1254 7.54171C14.1241 10.6715 11.5526 13.2178 8.39314 13.2178Z" fill="white"/>
<path d="M6.85601 4.7998H6.55823C6.45457 4.7998 6.28628 4.83862 6.14392 4.99352C6.00147 5.14856 5.6 5.52322 5.6 6.28525C5.6 7.04726 6.15689 7.78354 6.23449 7.88698C6.31223 7.99032 7.30946 9.60401 8.88889 10.2248C10.2016 10.7407 10.4687 10.6381 10.7536 10.6122C11.0385 10.5865 11.673 10.2377 11.8025 9.87607C11.9319 9.51447 11.9319 9.20442 11.8932 9.13968C11.8542 9.07514 11.7506 9.03643 11.5953 8.95905C11.4398 8.88153 10.6782 8.50051 10.5358 8.44875C10.3933 8.39718 10.2897 8.37133 10.1861 8.52646C10.0824 8.68128 9.77727 9.03945 9.68658 9.14278C9.596 9.24625 9.50532 9.2592 9.3499 9.18171C9.19445 9.104 8.69911 8.93756 8.1055 8.41004C7.64345 7.99946 7.32285 7.47588 7.23216 7.32087C7.14156 7.16596 7.22251 7.08211 7.30043 7.0048C7.37026 6.9355 7.46459 6.84068 7.5423 6.75029C7.6199 6.65983 7.64201 6.59528 7.69388 6.49192C7.74567 6.38859 7.71972 6.29812 7.68091 6.22071C7.64201 6.14319 7.34379 5.37734 7.20559 5.07104C7.08917 4.81311 6.96674 4.80437 6.85601 4.7998Z" fill="white"/>
</svg>
