<svg width="14" height="10" viewBox="0 0 14 10" fill="none" xmlns="http://www.w3.org/2000/svg">
<g clip-path="url(#clip0)">
<path d="M13.6902 1.41691L13.7077 1.53124C13.5386 0.930995 13.0818 0.467836 12.5014 0.299254L12.4892 0.296339C11.3978 8.03757e-06 7.00592 8.06135e-06 7.00592 8.06135e-06C7.00592 8.06135e-06 2.62514 -0.00582521 1.52265 0.296339C0.931159 0.467836 0.473833 0.930995 0.307585 1.51899L0.304668 1.53124C-0.103077 3.66096 -0.105994 6.22002 0.32275 8.50023L0.304668 8.38473C0.473833 8.98499 0.930577 9.44814 1.51099 9.61673L1.52324 9.61964C2.61347 9.91655 7.0065 9.91655 7.0065 9.91655C7.0065 9.91655 11.3867 9.91655 12.4898 9.61964C13.0818 9.44814 13.5392 8.98499 13.7054 8.39699L13.7083 8.38473C13.8938 7.39426 14 6.25443 14 5.09011C14 5.04752 14 5.00437 13.9994 4.9612C14 4.92152 14 4.87429 14 4.82702C14 3.66214 13.8938 2.52231 13.6902 1.41691ZM6.02544 6.84355C5.83879 6.95203 5.60477 6.81735 5.60477 6.60147V3.3211C5.60477 3.10502 5.8391 2.97037 6.02578 3.07918L8.8442 4.72183C9.02967 4.82993 9.0295 5.09798 8.84389 5.20583L6.02544 6.84355Z" fill="white"/>
</g>
<defs>
<clipPath id="clip0">
<rect width="14" height="9.94" fill="white"/>
</clipPath>
</defs>
</svg>
