<svg width="15" height="13" viewBox="0 0 15 13" fill="none" xmlns="http://www.w3.org/2000/svg">
<path d="M14.7602 5.9174L9.34322 0.500252C9.18858 0.345619 8.98249 0.260742 8.76273 0.260742C8.54274 0.260742 8.33676 0.345741 8.18213 0.500252L7.6903 0.992199C7.53579 1.14659 7.45067 1.35281 7.45067 1.57268C7.45067 1.79244 7.53579 2.00561 7.6903 2.15999L10.8505 5.32716H0.810359C0.35768 5.32716 0 5.68155 0 6.13435V6.82983C0 7.28263 0.35768 7.67275 0.810359 7.67275H10.8864L7.69042 10.8576C7.53591 11.0122 7.45079 11.2128 7.45079 11.4327C7.45079 11.6524 7.53591 11.8559 7.69042 12.0104L8.18225 12.5008C8.33688 12.6554 8.54286 12.7397 8.76286 12.7397C8.98261 12.7397 9.18871 12.6543 9.34334 12.4997L14.7604 7.08264C14.9154 6.92751 15.0006 6.72044 15 6.50032C15.0005 6.27947 14.9154 6.07228 14.7602 5.9174Z" fill="#386ADD"/>
</svg>
