<svg width="9" height="9" viewBox="0 0 9 9" fill="none" xmlns="http://www.w3.org/2000/svg">
<path d="M7.00031 4.14882L2.99519 0.143779C2.90256 0.0510728 2.7789 0 2.64705 0C2.5152 0 2.39154 0.0510728 2.29891 0.143779L2.00396 0.438655C1.81203 0.6308 1.81203 0.94309 2.00396 1.13494L5.36715 4.49813L2.00022 7.86506C1.90759 7.95776 1.85645 8.08135 1.85645 8.21313C1.85645 8.34505 1.90759 8.46864 2.00022 8.56142L2.29517 8.85622C2.38788 8.94893 2.51146 9 2.64332 9C2.77517 9 2.89883 8.94893 2.99146 8.85622L7.00031 4.84752C7.09316 4.75452 7.14416 4.63035 7.14387 4.49835C7.14416 4.36584 7.09316 4.24175 7.00031 4.14882Z" fill="#386ADD"/>
</svg>
