<svg width="46" height="46" viewBox="0 0 46 46" fill="none" xmlns="http://www.w3.org/2000/svg">
<g clip-path="url(#clip0)">
<path d="M19.9351 10.7345C19.9351 11.5813 19.2485 12.2678 18.4017 12.2678C17.555 12.2678 16.8684 11.5813 16.8684 10.7345C16.8684 9.88773 17.555 9.20117 18.4017 9.20117C19.2485 9.20117 19.9351 9.88773 19.9351 10.7345Z" fill="#6400D1"/>
<path d="M29.1348 10.7345C29.1348 11.5813 28.4482 12.2678 27.6014 12.2678C26.7547 12.2678 26.0681 11.5813 26.0681 10.7345C26.0681 9.88773 26.7547 9.20117 27.6014 9.20117C28.4482 9.20117 29.1348 9.88773 29.1348 10.7345Z" fill="#6400D1"/>
<path d="M40.6927 10.8806L40.0638 11.5106L39.7295 10.9648C39.4095 10.4437 38.8697 10.0967 38.2625 10.0222C37.6557 9.94772 37.0478 10.1536 36.6109 10.5815C36.0812 11.0868 35.8855 11.8494 36.1067 12.5471L36.7199 15.0825L32.9679 18.8498V16.1014C34.6614 16.1014 36.0345 14.7284 36.0345 13.0349C36.0345 11.3414 34.6614 9.96831 32.9679 9.96831H32.4805C32.0268 8.57877 31.2729 7.30602 30.2723 6.23991L32.6613 4.44833L31.7412 3.222L29.1223 5.18578C28.5559 4.74368 27.9432 4.36411 27.2948 4.05378L29.0272 1.16277L27.7103 0.374419L25.8457 3.48703C25.1689 3.28564 24.4723 3.15687 23.7682 3.10371V0.00195312H22.2349V3.10746C21.5308 3.16099 20.8341 3.28938 20.1573 3.49078L18.2927 0.378162L16.9773 1.16277L18.7083 4.05378C18.0595 4.36411 17.4464 4.74368 16.8792 5.18578L14.2619 3.222L13.3418 4.44833L15.7308 6.23991C14.7302 7.30602 13.9763 8.57877 13.5229 9.96831H13.0352C11.3417 9.96831 9.9686 11.3414 9.9686 13.0349C9.9686 14.7284 11.3417 16.1014 13.0352 16.1014V18.8498L9.2787 15.084L9.87577 12.6149C10.1206 11.9006 9.93154 11.1093 9.39063 10.583C8.9534 10.1551 8.34548 9.94922 7.7383 10.0237C7.13113 10.0982 6.59058 10.4452 6.27015 10.9663L5.93699 11.5139L5.3081 10.8836C4.09525 9.6752 2.13634 9.66622 0.91226 10.8637C0.328668 11.4346 0 12.2166 0 13.033C0 13.8494 0.328668 14.6311 0.91226 15.2023L4.83195 18.9382L13.0352 27.1541V36.0342C13.037 36.2606 13.1396 36.4748 13.3152 36.6181V36.6237C14.3397 37.4712 15.562 38.0466 16.8684 38.2967V46.0005H18.4017V35.5689H18.5383C18.6708 35.5689 18.8026 35.5827 18.9351 35.5932C19.0923 35.6055 19.2492 35.6224 19.4068 35.6437C19.5355 35.6617 19.6643 35.6815 19.7901 35.7059C19.9627 35.7381 20.1345 35.7826 20.3044 35.8242C20.4111 35.8507 20.5186 35.8754 20.6234 35.9069C20.9004 35.9896 21.1729 36.0877 21.439 36.2004L23.9553 37.2785C24.2451 37.4027 24.5416 37.5083 24.8429 37.6064C25.0177 37.661 25.1948 37.7 25.3718 37.7445C25.4991 37.7767 25.6249 37.8156 25.7552 37.8426C25.9547 37.8841 26.1546 37.9092 26.3548 37.9377C26.4668 37.9538 26.5772 37.9758 26.6891 37.9882C26.88 38.0084 27.0724 38.0137 27.2619 38.0226C27.3753 38.0283 27.4872 38.0421 27.6006 38.0429V46.0005H29.1339V37.9253C30.3573 37.7434 31.5331 37.3241 32.5954 36.6911C32.8264 36.5526 32.9675 36.3033 32.9679 36.0342V27.1541L41.1711 18.9382L45.0994 15.1914C45.6778 14.6191 46.0023 13.8386 46.0001 13.0251C45.9978 12.2117 45.6692 11.4327 45.0878 10.8637C43.8645 9.66659 41.9067 9.67408 40.6927 10.8806ZM35.2723 18.708L37.2526 20.689L36.0382 21.9056L34.058 19.9268L35.2723 18.708ZM22.297 13.5223L22.9869 11.9126L23.6768 13.5223C23.7783 13.754 23.7547 14.0213 23.6139 14.2316C23.4691 14.433 23.2362 14.5524 22.9881 14.5524C22.7399 14.5524 22.507 14.433 22.3622 14.2316C22.2203 14.022 22.1956 13.7544 22.297 13.5223ZM29.9013 16.1014C25.6316 18.5665 20.3714 18.5665 16.1017 16.1014H29.9013ZM14.5685 20.318L22.7066 23.7087C22.8952 23.7877 23.1078 23.7877 23.2969 23.7087L31.4346 20.318V23.7679H14.5685V20.318ZM23.0015 19.5214C26.0131 19.5409 28.9576 18.6323 31.4346 16.9194V18.6567L23.0015 22.171L14.5685 18.6567V16.9194C17.0455 18.6323 19.99 19.5409 23.0015 19.5214ZM14.5685 29.1344H31.4346V31.4343H14.5685V29.1344ZM14.5685 27.6011V25.3012H31.4346V27.6011H14.5685ZM32.9679 11.5016C33.8146 11.5016 34.5012 12.1881 34.5012 13.0349C34.5012 13.8816 33.8146 14.5682 32.9679 14.5682V13.0349C32.9638 12.5213 32.9203 12.0084 32.8376 11.5016H32.9679ZM14.5685 13.0349C14.5685 8.37738 18.344 4.60181 23.0015 4.60181C27.659 4.60181 31.4346 8.37738 31.4346 13.0349V14.5682H25.1427C25.3307 14.0306 25.3101 13.4422 25.0843 12.9192L23.6914 9.66622C23.5705 9.38509 23.2935 9.20279 22.9873 9.20279C22.6811 9.20279 22.4045 9.38509 22.2832 9.66622L20.8888 12.9192C20.6634 13.4422 20.6421 14.0306 20.8296 14.5682H14.5685V13.0349ZM11.9518 14.1182C11.5142 13.6795 11.3832 13.0207 11.6206 12.4483C11.8575 11.8759 12.4156 11.5023 13.0352 11.5016H13.1654C13.0827 12.0084 13.0393 12.5213 13.0352 13.0349V14.5682C12.6283 14.5689 12.2382 14.4068 11.9518 14.1182ZM11.9451 19.9268L9.9686 21.907L8.75425 20.6905L10.7308 18.708L11.9451 19.9268ZM1.53553 13.0263C1.53628 12.622 1.70024 12.2349 1.99035 11.953C2.6125 11.3451 3.60786 11.3492 4.22477 11.9632L5.54281 13.2831C5.70827 13.4511 5.94223 13.5324 6.17619 13.5032C6.40978 13.4755 6.61754 13.3422 6.74032 13.1416L7.5837 11.7614C7.66081 11.6405 7.78846 11.5607 7.93071 11.5439C8.07333 11.5274 8.21595 11.5757 8.3189 11.6757C8.44954 11.8127 8.48473 12.0144 8.40836 12.1878L7.74242 14.9309L5.35564 17.3165L1.98249 14.1014C1.69537 13.8176 1.53441 13.4302 1.53553 13.0263ZM8.43532 16.408L9.64967 17.6261L7.66867 19.6056L6.45432 18.3883L8.43532 16.408ZM11.0489 22.9952L13.0284 21.0158L13.0359 21.0232V24.986L11.0489 22.9952ZM16.8684 36.7424C16.3335 36.6084 15.818 36.4051 15.3351 36.1382C15.83 35.9376 16.3436 35.7867 16.8684 35.6883V36.7424ZM28.194 36.4879C28.0001 36.5002 27.8062 36.5002 27.613 36.498C27.4947 36.498 27.3768 36.498 27.2596 36.4935C27.0601 36.4826 26.8624 36.4572 26.6644 36.4313C26.5566 36.4175 26.4484 36.4096 26.3402 36.3913C26.1216 36.3531 25.9064 36.2996 25.6915 36.2434C25.6073 36.2213 25.5208 36.2075 25.4373 36.182C25.1394 36.0952 24.847 35.9904 24.5618 35.8687L22.0455 34.7906C21.7179 34.6517 21.3829 34.5316 21.0419 34.4301C20.9401 34.3998 20.8364 34.3781 20.7353 34.3538C20.4923 34.2894 20.2494 34.2317 20.0031 34.1872C19.8807 34.1651 19.7579 34.149 19.6344 34.1314C19.4045 34.0985 19.1691 34.0738 18.9351 34.0584C18.8078 34.0502 18.6817 34.0423 18.5518 34.0393C18.4691 34.0393 18.3863 34.027 18.3036 34.027C18.1396 34.027 17.9761 34.0431 17.8128 34.0517C17.7361 34.0517 17.6549 34.0517 17.5759 34.0517C17.5632 34.0517 17.5531 34.0599 17.5399 34.0614C16.5169 34.1411 15.5137 34.3856 14.5685 34.7854V32.9676H31.4346V35.5865C30.431 36.1139 29.326 36.4212 28.194 36.4879ZM32.9679 21.021L32.9757 21.0131L34.9549 22.9926L32.9679 24.9837V21.021ZM38.3344 19.6056L36.3526 17.6239L37.5677 16.408L39.5495 18.3905L38.3344 19.6056ZM44.0292 14.0898L40.6459 17.3165L38.2599 14.9316L37.5764 12.1226C37.5221 11.9654 37.5648 11.791 37.6849 11.6764C37.7879 11.5765 37.9301 11.5278 38.0723 11.5443C38.215 11.5611 38.3422 11.6405 38.4194 11.7614L39.2627 13.1416C39.3855 13.3422 39.5933 13.4755 39.8272 13.5032C40.0608 13.532 40.2948 13.4508 40.4602 13.2831L41.7775 11.9617C42.3944 11.3477 43.3902 11.3432 44.0131 11.9515C44.3006 12.2312 44.4642 12.6145 44.4675 13.0158C44.4709 13.4171 44.3137 13.803 44.0307 14.0875L44.0292 14.0898Z" fill="#6400D1"/>
</g>
<defs>
<clipPath id="clip0">
<rect width="46" height="46" fill="white"/>
</clipPath>
</defs>
</svg>
