<svg width="48" height="48" viewBox="0 0 48 48" fill="none" xmlns="http://www.w3.org/2000/svg">
<path d="M47.2643 23.0683V2.69879C47.2643 2.30991 46.9491 1.99463 46.5601 1.99463H1.44C1.05103 1.99463 0.735845 2.30991 0.735845 2.69879V23.0684C0.298782 23.2997 0 23.7587 0 24.2867V25.7321C0 26.2601 0.298782 26.7192 0.735845 26.9506V45.3013C0.735845 45.6902 1.05113 46.0055 1.44 46.0055H4.63913H7.78023H7.99333H15.8813H23.9825H32.0837H40.0068H40.1847H43.3609H46.56C46.949 46.0055 47.2642 45.6902 47.2642 45.3013V26.9506C47.7012 26.7191 48 26.2601 48 25.7321V24.2867C48.0001 23.7587 47.7013 23.2997 47.2643 23.0683ZM45.5902 3.40304C45.3082 3.81779 44.7875 4.3036 43.9632 4.82129C43.9531 4.82767 43.9428 4.83395 43.9327 4.84032C43.8848 4.87013 43.8357 4.90004 43.7859 4.93004C43.7631 4.94373 43.7404 4.95732 43.7173 4.97101C43.6794 4.99351 43.6405 5.01601 43.6014 5.0386C43.5699 5.05679 43.5385 5.07498 43.5063 5.09326C43.4753 5.11079 43.4434 5.12842 43.4117 5.14595C43.3723 5.16779 43.3334 5.18964 43.293 5.21157C43.286 5.21542 43.2786 5.21926 43.2715 5.22301C43.1695 5.27813 43.0639 5.33326 42.9555 5.38857C42.9263 5.40348 42.8977 5.41829 42.868 5.4331C42.8265 5.45401 42.7837 5.47482 42.7414 5.49573C42.7024 5.51485 42.6635 5.53407 42.6236 5.5532C42.5856 5.57157 42.5469 5.58985 42.5082 5.60823C42.4587 5.63167 42.4086 5.6551 42.3578 5.67854C42.3264 5.69307 42.2949 5.7076 42.2631 5.72214C42.1938 5.75373 42.1233 5.78532 42.0516 5.81692C42.0361 5.82386 42.0208 5.8307 42.0051 5.83764C41.7171 5.96382 41.4109 6.09039 41.0848 6.21686C41.0847 6.21686 41.0847 6.21695 41.0846 6.21695C40.6631 6.38045 40.213 6.54226 39.7317 6.70126C38.429 7.13148 37.0248 7.50423 35.5468 7.81689C35.5234 7.81942 35.4999 7.82289 35.4764 7.82786C34.0741 8.1213 32.5981 8.36252 31.0895 8.54495C31.0705 8.5473 31.0518 8.55123 31.0331 8.55499C28.7621 8.82583 26.3929 8.9673 24 8.9673C21.6072 8.9673 19.2379 8.82592 16.9669 8.55517C16.9483 8.55133 16.9297 8.54739 16.9107 8.54514C15.4015 8.36261 13.9256 8.12139 12.5238 7.82805C12.5003 7.82308 12.4768 7.81961 12.4534 7.81708C10.9754 7.50442 9.57124 7.13167 8.26849 6.70145C7.78717 6.54254 7.33698 6.38064 6.91558 6.21714C6.91548 6.21714 6.91539 6.21704 6.91539 6.21704C6.58942 6.09067 6.28314 5.96411 5.99532 5.83792C5.97948 5.83098 5.96401 5.82395 5.94826 5.81701C5.87673 5.78542 5.80642 5.75392 5.73723 5.72242C5.70536 5.70789 5.67386 5.69336 5.64245 5.67882C5.59164 5.65539 5.54157 5.63186 5.49207 5.60851C5.45335 5.59014 5.41473 5.57185 5.37667 5.55348C5.33682 5.53426 5.29792 5.51514 5.25892 5.49601C5.21645 5.4751 5.17379 5.45429 5.13226 5.43339C5.10263 5.41848 5.07395 5.40367 5.04479 5.38885C4.93754 5.3342 4.83292 5.27954 4.73185 5.22498C4.7237 5.22057 4.71517 5.21617 4.7071 5.21176C4.66688 5.19001 4.62817 5.16826 4.58898 5.14642C4.5572 5.12879 4.52504 5.11107 4.49401 5.09345C4.46176 5.07517 4.43035 5.05698 4.39885 5.03879C4.35976 5.0162 4.32095 4.9937 4.28298 4.9712C4.25982 4.95751 4.23704 4.94382 4.21435 4.93023C4.16448 4.90023 4.11545 4.87032 4.06763 4.84051C4.05741 4.83413 4.0472 4.82785 4.03707 4.82148C3.21273 4.3037 2.69204 3.81779 2.40994 3.40313H45.5902V3.40304ZM2.14416 5.1902C2.3611 5.37798 2.61001 5.56923 2.8921 5.76292C3.64032 6.28061 4.63754 6.81911 5.96139 7.35686C5.96036 11.7806 4.67017 16.7035 3.56607 20.1059C3.44607 20.4759 3.64857 20.8731 4.0186 20.9931C4.38798 21.1129 4.78557 20.9105 4.90576 20.5407C5.99851 17.1731 7.26733 12.3476 7.36323 7.88167C7.51464 7.93408 7.66858 7.98648 7.82683 8.0387C8.97499 8.41783 10.198 8.75402 11.4788 9.04502C9.99049 13.6628 7.56395 17.4698 5.74529 19.8955C5.51204 20.2066 5.57514 20.648 5.88629 20.8813C6.01295 20.9762 6.16117 21.0221 6.30817 21.0221C6.52229 21.0221 6.73379 20.9248 6.87217 20.7403C8.77455 18.2029 11.3207 14.2036 12.8647 9.33771C13.8345 9.52764 14.8325 9.69255 15.8517 9.83177C14.36 13.4863 11.3759 17.2506 9.05233 19.8427C8.79274 20.1323 8.81702 20.5775 9.10671 20.8371C9.39639 21.0968 9.84152 21.0723 10.1011 20.7828C14.4336 15.9497 16.4013 12.3274 17.295 10.0097C19.4707 10.2503 21.7259 10.3755 24 10.3755C26.2741 10.3755 28.5295 10.2503 30.7052 10.0097C32.2278 13.9698 35.4304 18.0298 37.9049 20.7898C38.1644 21.0793 38.6096 21.1035 38.8993 20.8439C39.1889 20.5844 39.2132 20.1391 38.9535 19.8495C36.6277 17.2557 33.6408 13.4884 32.1483 9.83186C33.1675 9.69274 34.1654 9.52783 35.1352 9.3378C36.6811 14.2095 39.2315 18.2128 41.1371 20.7527C41.2755 20.9371 41.4868 21.0344 41.7009 21.0344C41.848 21.0344 41.9963 20.9884 42.123 20.8934C42.4341 20.6599 42.4971 20.2185 42.2636 19.9075C40.4418 17.4793 38.0112 13.6683 36.5211 9.04492C37.8019 8.75392 39.0249 8.41774 40.1731 8.03861C40.3313 7.98639 40.4853 7.93398 40.6367 7.88158C40.7326 12.3451 42.0001 17.1675 43.0917 20.5329C43.2117 20.9029 43.6089 21.1052 43.9789 20.9855C44.3487 20.8655 44.5514 20.4683 44.4314 20.0984C43.3284 16.698 42.0396 11.7784 42.0386 7.35676C43.3625 6.81901 44.3597 6.28051 45.1079 5.76282C45.39 5.56914 45.639 5.37798 45.8558 5.1901V22.9082H41.9496C41.1896 22.9082 40.5712 23.5266 40.5712 24.2866V25.732C40.5712 26.1065 40.7219 26.4462 40.9652 26.6949C40.5388 27.9909 40.0305 29.6177 39.5433 31.3798H8.45692C7.96961 29.6177 7.4612 27.9906 7.03492 26.6949C7.2782 26.4462 7.42886 26.1065 7.42886 25.732V24.2866C7.42886 23.5266 6.81048 22.9082 6.05045 22.9082H2.14416V5.1902ZM1.40841 25.7021V24.3167H6.02045V25.7021H3.34398H1.44H1.40841ZM5.03167 44.3678C4.95376 44.5093 4.80338 44.5971 4.63913 44.5971H2.14416V27.1105H2.81879C5.3836 35.7939 6.21142 42.2256 5.03167 44.3678ZM8.48439 44.5971V40.7104C8.48439 39.8735 9.1653 39.1925 10.0022 39.1925H13.6594C14.4963 39.1925 15.1771 39.8735 15.1771 40.7104V44.5971H8.48439ZM16.5855 44.5971V40.7104C16.5855 39.8735 17.2664 39.1925 18.1033 39.1925H21.7604C22.5975 39.1925 23.2783 39.8735 23.2783 40.7104V44.5971H16.5855ZM24.6868 44.5971V40.7104C24.6868 39.8735 25.3677 39.1925 26.2045 39.1925H29.8616C30.6986 39.1925 31.3794 39.8735 31.3794 40.7104V44.5971H24.6868ZM39.4805 44.5971H32.7878V40.7104C32.7878 39.8735 33.4687 39.1925 34.3056 39.1925H37.9627C38.7996 39.1925 39.4805 39.8735 39.4805 40.7104V44.5971ZM40.889 44.5971V40.7104C40.889 39.0968 39.5763 37.7841 37.9628 37.7841H34.3057C33.4173 37.7841 32.6208 38.1826 32.0837 38.8096C31.5466 38.1826 30.75 37.7841 29.8616 37.7841H26.2045C25.3162 37.7841 24.5196 38.1826 23.9825 38.8095C23.4454 38.1826 22.6488 37.7841 21.7604 37.7841H18.1033C17.2151 37.7841 16.4185 38.1826 15.8813 38.8095C15.3442 38.1826 14.5476 37.7841 13.6593 37.7841H10.0022C8.38867 37.7841 7.07598 39.0968 7.07598 40.7104V44.5971H6.47439C7.90164 40.9899 5.8622 32.5199 4.28645 27.1105H5.68904C6.35439 29.1312 7.22514 31.9765 7.89227 34.8658C7.97973 35.2447 8.35783 35.481 8.73686 35.3935C9.1158 35.306 9.35205 34.9279 9.26458 34.5489C9.12808 33.9578 8.98333 33.3689 8.83361 32.7883H39.1667C39.0155 33.3745 38.8693 33.9693 38.7317 34.5663C38.6443 34.9453 38.8806 35.3234 39.2597 35.4108C39.3129 35.423 39.3661 35.4289 39.4186 35.4289C39.7391 35.4289 40.029 35.2086 40.1042 34.8828C40.772 31.9872 41.6445 29.1354 42.3112 27.1104H43.7138C42.1381 32.5198 40.0986 40.9898 41.5259 44.5971H40.889ZM45.8559 44.5971H43.3611C43.1968 44.5971 43.0464 44.5093 42.9685 44.3678C41.7888 42.2256 42.6166 35.7939 45.1813 27.1105H45.8559V44.5971ZM46.5917 25.7021H46.5601H44.6561H41.9796V24.3167H46.5917V25.7021Z" fill="#6400D1"/>
</svg>
