<svg width="46" height="46" viewBox="0 0 46 46" fill="none" xmlns="http://www.w3.org/2000/svg">
<g clip-path="url(#clip0)">
<path d="M5.09387 37.4101C4.66775 38.4318 2.81374 43.1178 3.59964 45.4758C3.68634 45.7355 3.90502 45.9296 4.17353 45.9844C4.44205 46.0395 4.71934 45.9468 4.90081 45.7419C5.08263 45.5369 5.14125 45.2505 5.05455 44.9907C4.56385 43.5189 5.72111 39.8404 6.56563 37.8671C6.60634 37.772 6.6274 37.6691 6.6274 37.5656C6.6274 34.0004 6.6274 34.0004 9.5267 30.376C10.8426 28.729 11.0767 26.5949 10.2635 24.2309C11.287 24.743 12.3393 25.1955 13.4151 25.5858C13.5994 26.1288 13.592 26.7188 13.3937 27.2569C13.2063 27.6353 13.36 28.0941 13.7377 28.2833C13.7472 28.2878 14.67 28.7715 14.1199 30.4219C14.0332 30.6557 14.0666 30.9169 14.2084 31.1218C14.3505 31.3265 14.5836 31.449 14.8332 31.45C14.9824 31.4497 15.1277 31.4033 15.2495 31.317C15.2572 31.3128 16.0252 30.9183 18.5647 31.0309C18.5598 31.1612 18.5615 31.2949 18.5647 31.429C17.4011 31.4248 16.273 31.8281 15.3755 32.5687C15.1084 32.826 14.8869 33.1271 14.7212 33.4592C13.9918 33.151 13.1845 33.079 12.412 33.2528C11.0564 33.5729 9.9114 34.6501 9.00897 36.4557C8.81942 36.8344 8.97316 37.2949 9.3519 37.4845C9.73063 37.674 10.1911 37.5203 10.3807 37.1416C11.0662 35.7705 11.8626 34.966 12.7482 34.7491C13.2807 34.6333 13.837 34.7059 14.3218 34.9545C14.3147 35.0591 14.2951 35.1563 14.2951 35.2651C14.2951 35.6884 14.6387 36.0317 15.062 36.0317C15.4853 36.0317 15.829 35.6884 15.829 35.2651C15.7904 34.6807 16.0052 34.1082 16.4183 33.6933C17.1154 33.1738 17.9729 32.9155 18.8406 32.9632C18.8799 33.0808 18.9252 33.1959 18.9768 33.3082C19.0993 33.5532 19.3432 33.7144 19.6167 33.7309C19.8904 33.7473 20.1516 33.6164 20.3025 33.3879C20.4538 33.1591 20.471 32.8674 20.3485 32.6224C19.8399 31.6052 20.2063 29.9316 20.3906 29.3724C20.4542 29.1801 20.4391 28.9702 20.3485 28.7884C19.7869 27.6648 18.896 25.5156 18.896 24.53C18.9073 24.2664 19.0389 24.0224 19.2534 23.8687C19.3703 23.7746 19.5103 23.7143 19.6588 23.6949C19.6616 23.7174 19.663 23.7406 19.6626 23.7634C19.6879 24.3734 19.8238 24.974 20.0638 25.5356C20.0719 25.5532 20.0758 25.5725 20.0849 25.589C20.1512 25.7546 20.2165 25.9186 20.2934 26.0821C20.2994 26.1 20.3109 26.1141 20.3183 26.1316C20.7939 27.1376 21.4184 28.0667 22.1709 28.8866C22.4085 29.2464 22.3166 31.1187 21.9779 32.8147C21.9758 32.8263 21.98 32.8368 21.9779 32.8484C21.9761 32.86 21.9691 32.8688 21.9677 32.88C21.2899 38.9798 16.783 39.097 16.5956 39.0991C16.2821 39.0991 16.0003 39.2897 15.8834 39.5807C14.5334 42.9566 10.3758 43.7029 10.3337 43.7106C9.92228 43.7868 9.64814 44.1788 9.71764 44.5913C9.78679 45.004 10.1739 45.2849 10.5874 45.2227C10.95 45.1543 11.308 45.0634 11.6594 44.9507C11.6246 45.182 11.6745 45.4182 11.7998 45.6158C11.9644 45.8461 12.2259 45.9879 12.5088 45.9998C12.7651 46.0002 13.0044 45.8721 13.1466 45.6587C13.2891 45.4456 13.3151 45.1753 13.2168 44.9384C13.2919 44.6839 13.3832 44.434 13.4895 44.1908C15.0582 43.4143 16.3316 42.149 17.1172 40.5849C19.4127 40.2578 21.4019 38.825 22.4398 36.7512C24.4567 36.5505 26.4233 35.9997 28.2514 35.124C28.7635 34.9123 29.2787 34.7056 29.7972 34.5083C29.8762 34.5101 29.9513 34.5125 30.0373 34.5125C31.7884 34.5125 34.8664 34.1559 36.3027 32.7445C37.8278 31.3619 39.1521 29.7726 40.2367 28.0228C40.6685 27.4844 40.8201 26.7733 40.645 26.1056C40.5534 25.8368 40.3954 25.5953 40.1862 25.4033C41.8419 23.4492 42.7243 20.9564 42.666 18.3958C42.666 12.1199 42.666 7.16266 35.3097 3.89341L33.8137 3.2244C27.8986 0.571156 24.6395 -0.890776 18.7097 0.591163C14.6247 1.61258 13.0859 3.08154 11.9627 4.15385C11.5106 4.65509 10.962 5.06015 10.3502 5.34516C10.3056 5.36096 10.2621 5.37921 10.2199 5.39992C8.69692 5.90536 8.12935 7.65266 8.60496 10.2115C8.26062 10.4551 7.93735 10.7275 7.63865 11.0255C7.04369 11.5281 6.679 12.2512 6.6274 13.0283C6.64425 13.4772 6.70673 13.923 6.81344 14.3593C6.84538 14.5141 6.87872 14.6738 6.90891 14.8381C6.91031 14.8503 6.91207 14.8626 6.91417 14.8749C6.97771 15.2003 7.01035 15.5306 7.0107 15.8619C7.00087 16.5583 6.80817 17.4934 5.40064 18.5496C4.40063 19.2993 3.99522 20.0754 4.19494 20.8553C4.56315 22.2927 6.95068 22.8143 7.89769 22.9656C7.94402 22.9926 8.00334 23.027 8.07108 23.0659C9.0925 24.9028 9.91385 27.4345 8.32907 29.4188C5.19566 33.3353 5.09597 33.5346 5.09387 37.4101ZM18.7697 29.5044C17.7872 29.437 16.8006 29.4669 15.8244 29.5939C15.8764 28.7547 15.5727 27.9326 14.988 27.3289C15.0799 26.9189 15.1038 26.4963 15.0578 26.0783C15.9367 26.2548 16.8272 26.3654 17.7226 26.4086C18.0333 27.3633 18.4082 28.2959 18.8437 29.2004C18.8213 29.2861 18.7957 29.3907 18.7697 29.5044ZM22.4247 26.7346C24.2282 26.9298 25.9442 27.2952 26.7884 28.1397C27.171 28.5041 27.6332 28.7736 28.1383 28.9274C27.6002 29.3356 27.0221 29.688 26.4125 29.9786C25.596 30.317 24.7146 30.4697 23.8319 30.4258C23.8778 29.337 23.7631 28.3128 23.272 27.8221C22.9575 27.4861 22.6736 27.1218 22.4247 26.7343V26.7346ZM29.5388 32.9615C29.489 32.9797 29.4402 33.0018 29.3907 33.0204C29.3591 33.0306 29.3286 33.0429 29.2988 33.0569C28.7505 33.2644 28.2064 33.4834 27.6659 33.707C26.2054 34.3872 24.6623 34.8744 23.0758 35.1559C23.2699 34.4883 23.4057 33.8053 23.4823 33.1145C23.55 32.7751 23.6209 32.3784 23.682 31.9586C24.8519 32.0197 26.0204 31.8119 27.0973 31.351C28.3107 30.7884 29.4016 29.9923 30.3075 29.0084C30.4346 28.8649 30.569 28.728 30.7105 28.5985C31.1275 28.1966 31.4946 27.7459 31.8028 27.2555C32.1619 26.6009 32.8141 26.1586 33.5554 26.067C33.7712 26.0477 33.9885 26.0846 34.1854 26.1744C34.1209 26.3671 33.9738 26.7511 33.6459 27.4696L33.6277 27.5097C33.6235 27.5202 33.6175 27.529 33.614 27.5395C33.4943 27.7947 33.376 28.0541 33.2567 28.3173C32.3795 30.2503 31.4725 32.25 29.5388 32.9615ZM38.9612 27.172C37.9338 28.8336 36.6772 30.3416 35.2279 31.6512C34.4136 32.2665 33.4476 32.6498 32.4325 32.7596C33.3599 31.6087 34.1082 30.3244 34.653 28.9502C34.7305 28.7792 34.8095 28.6094 34.8874 28.4391C35.8208 28.1787 36.74 27.8705 37.6418 27.5167C38.0402 27.3029 38.4171 27.0519 38.7681 26.7669C38.8752 26.6834 38.9886 26.589 39.1044 26.4893C39.1395 26.5149 39.1686 26.5479 39.189 26.5862C39.209 26.6465 39.1834 26.8382 38.9612 27.172ZM10.5358 6.9324C11.2052 7.39116 11.4958 8.23392 11.2515 9.00789C11.1153 9.54773 10.7591 9.72499 10.0764 9.77448C9.92544 8.86433 9.80224 7.34939 10.5358 6.9324ZM9.09356 21.8827C9.06934 21.869 9.03529 21.8504 9.01283 21.8378C8.73273 21.6798 8.56565 21.5784 8.55968 21.5749C8.48457 21.5324 8.40243 21.5033 8.31749 21.4882L8.9156 20.9982C9.23887 20.7286 9.2845 20.2488 9.01774 19.9231C8.75098 19.5977 8.27151 19.5478 7.94367 19.8118L6.49051 21.0031C6.02894 20.8171 5.7169 20.6195 5.6811 20.4776C5.6811 20.4755 5.70847 20.2355 6.32098 19.776C7.13004 19.2102 7.77554 18.4408 8.19218 17.5457C8.90402 18.2611 9.35084 18.3958 9.69448 18.3958C10.4944 18.3197 11.195 17.8272 11.5376 17.1003C11.8784 16.4639 12.2747 15.1326 11.0988 13.3691C10.7552 12.7124 10.0764 12.2993 9.3347 12.2957C8.93069 12.3287 8.5474 12.4884 8.23956 12.752C8.36171 12.5106 8.52598 12.2926 8.7243 12.1083C9.01844 11.8177 9.33996 11.5558 9.68395 11.3256C10.573 11.3192 12.2803 11.2048 12.7387 9.3803C13.068 8.25077 12.778 7.03138 11.9757 6.17107C12.3432 5.89097 12.6924 5.58771 13.0216 5.26338C14.0764 4.25564 15.3899 3.00221 19.0821 2.07942C24.4974 0.725949 27.4005 2.02852 33.1861 4.62385L34.687 5.29462C41.1325 8.15951 41.1325 12.2319 41.1325 18.3958C41.2034 20.8957 40.2171 23.3092 38.4157 25.0439L38.4136 25.046C38.2041 25.2446 38.0026 25.4184 37.8201 25.5612C37.5624 25.7666 37.2908 25.9537 37.0075 26.1211C36.9475 26.145 36.4287 26.3485 35.6579 26.6013C35.7246 26.4296 35.7611 26.2478 35.765 26.0639C35.6979 25.3612 35.177 24.7859 34.4845 24.6493C33.4143 24.3253 31.7365 24.5907 30.5245 26.4079C30.2847 26.7922 30.0004 27.1467 29.6775 27.4644C29.6126 27.523 29.5532 27.5914 29.489 27.6553C28.8983 27.6409 28.3296 27.4296 27.8726 27.0551C26.8712 26.0537 25.2443 25.5791 23.4352 25.3183C25.1622 24.7237 26.5574 23.4271 27.2759 21.7479C27.4802 21.2365 28.1025 19.6802 27.2275 18.7581C26.2018 17.677 24.0649 18.4046 22.18 19.0466L21.7202 19.2021C19.9052 19.8086 17.9227 17.8718 17.9041 17.8539C17.6033 17.5633 17.1249 17.5675 16.8293 17.863C16.5334 18.1589 16.5292 18.6373 16.8199 18.9381C16.9276 19.0463 19.4864 21.5637 22.2053 20.657L22.6736 20.4987C23.4384 20.2383 25.7663 19.4453 26.1148 19.8135C26.1166 19.8157 26.2864 20.0908 25.8512 21.1782C25.0242 23.2478 22.8434 24.0428 21.2811 24.3482C21.2302 24.1572 21.2018 23.961 21.1962 23.7634C21.2151 23.326 21.0544 22.8996 20.7515 22.5837C20.4647 22.305 20.0786 22.1526 19.6788 22.1607C18.406 22.2232 17.3962 23.2562 17.3625 24.53C17.3625 24.6286 17.3787 24.7409 17.3881 24.8476C16.6696 24.8062 15.9553 24.7079 15.2519 24.5542C14.9392 24.4742 14.6194 24.3794 14.2909 24.2699C13.8455 24.1225 13.393 23.948 12.9462 23.7644L13.9209 22.9701C14.1333 22.7967 14.2372 22.5236 14.1933 22.253C14.1498 21.9827 13.9651 21.756 13.7089 21.6588C13.453 21.5612 13.1642 21.6079 12.9518 21.7809L11.3758 23.0656C11.0922 22.9301 10.8184 22.796 10.5643 22.6669L11.2582 22.106C11.5874 21.8395 11.6387 21.3566 11.3723 21.0273C11.1059 20.6977 10.6229 20.6468 10.2936 20.9129L9.09356 21.8827ZM8.46526 14.8893C8.94578 14.0508 9.31645 13.8321 9.41402 13.8272C9.48423 13.8251 9.62849 13.929 9.8233 14.2206C10.3147 14.7854 10.4705 15.5675 10.2336 16.2775C10.1367 16.5211 9.95843 16.7237 9.72888 16.8504C9.26555 16.4983 8.86084 16.0747 8.53125 15.5948C8.52177 15.3586 8.49966 15.1231 8.46526 14.8893Z" fill="#6400D1"/>
<path d="M17.491 16.962C17.79 16.9634 18.0877 16.9167 18.3716 16.823C20.921 15.9728 21.1962 14.9588 21.1962 14.5621C21.1403 13.2831 20.3895 12.1371 19.239 11.5758C18.842 11.3164 18.4917 10.991 18.2038 10.6144C17.6029 9.9303 16.9213 9.15458 15.9034 9.12158C15.0666 9.15001 14.2831 9.53787 13.7531 10.1858C12.6173 11.3354 12.4902 13.1416 13.4541 14.4389C14.3186 15.877 15.8191 16.8152 17.491 16.962ZM14.8377 11.2704C15.0904 10.9545 15.445 10.7369 15.8409 10.6544H15.8542C16.2084 10.666 16.6377 11.1542 17.0522 11.6263C17.4625 12.1595 17.9722 12.6081 18.5534 12.9475C19.1459 13.2318 19.5577 13.7927 19.651 14.4435C19.1516 14.897 18.5443 15.2154 17.8869 15.3681C16.9932 15.6629 15.5043 14.8377 14.7591 13.6327C14.1912 12.9363 14.2245 11.9275 14.8374 11.2701L14.8377 11.2704Z" fill="#6400D1"/>
<path d="M34.6688 8.35309C38.288 10.0783 38.1634 16.6322 38.162 16.6982C38.1511 17.1212 38.4849 17.4732 38.9079 17.4845L38.9286 17.4848C39.3438 17.4848 39.6836 17.1542 39.6945 16.7389C39.7033 16.429 39.8479 9.12319 35.3284 6.96873C35.0809 6.84833 34.7878 6.87009 34.5607 7.02559C34.3333 7.18108 34.2069 7.44644 34.2294 7.72093C34.2518 7.99506 34.4196 8.23655 34.6688 8.35309Z" fill="#6400D1"/>
</g>
<defs>
<clipPath id="clip0">
<rect width="46" height="46" fill="white"/>
</clipPath>
</defs>
</svg>
