<svg width="53" height="53" viewBox="0 0 53 53" fill="none" xmlns="http://www.w3.org/2000/svg">
<g clip-path="url(#clip0)">
<path d="M51.7118 5.7652C51.66 5.07444 51.2997 4.4579 50.7233 4.07365C49.8786 3.51042 48.7587 3.58827 47.9999 4.26267L41.5932 9.95748H36.0265V7.38563C37.0327 6.63866 37.686 5.44213 37.686 4.0956C37.686 1.8373 35.8487 0 33.5905 0C31.5958 0 29.9305 1.43369 29.5688 3.3244C29.5264 3.32223 29.4841 3.31912 29.4415 3.31912C28.0983 3.31912 27.0056 4.41194 27.0056 5.75505C27.0056 7.09827 28.0984 8.19098 29.4415 8.19098C30.1033 8.19098 30.7106 7.9295 31.1545 7.49008V11.0511C30.6389 11.6287 30.3247 12.3898 30.3247 13.2232V16.0237C30.3247 16.4525 30.6723 16.8001 31.1011 16.8001C31.5299 16.8001 31.8775 16.4525 31.8775 16.0237V13.2232C31.8775 12.2786 32.6459 11.5102 33.5905 11.5102H41.0981L41.7806 13.2505C41.6665 13.2661 41.5514 13.2767 41.435 13.2767H35.1809C34.7521 13.2767 34.4045 13.6243 34.4045 14.0531C34.4045 14.4818 34.7521 14.8294 35.1809 14.8294H37.0223C37.0024 17.6516 35.7364 20.4988 34.4781 22.6368L31.721 18.9794C31.5743 18.7848 31.3447 18.6704 31.101 18.6704C28.7273 18.6704 26.974 19.9266 25.9211 20.9804C25.482 21.42 24.8878 21.6763 24.2482 21.702L17.0972 21.9902C16.681 22.007 16.3521 22.3493 16.3521 22.766C16.3521 23.0284 16.4044 23.2716 16.4863 23.4992L5.42499 24.8818L4.30868 24.6028C3.57579 24.4196 2.81412 24.5811 2.2188 25.0459C1.62348 25.5107 1.28198 26.2106 1.28198 26.9659V28.1596C1.28198 28.5883 1.62959 28.9359 2.05835 28.9359H18.1429C18.3144 29.0754 18.4935 29.1997 18.6645 29.3181C18.9371 29.5068 19.2189 29.7019 19.3397 29.8825C19.4631 30.0668 19.5369 30.4046 19.6081 30.7313C19.7311 31.2945 19.8704 31.933 20.3467 32.4093C20.8229 32.8856 21.4613 33.025 22.0245 33.148C22.3512 33.2193 22.689 33.2931 22.8735 33.4165C23.054 33.5374 23.2491 33.8192 23.4378 34.0917C23.7677 34.5682 24.1416 35.1083 24.7695 35.3686C25.3867 35.6246 26.0272 35.5095 26.5923 35.4077C26.9244 35.348 27.2677 35.2862 27.4913 35.3304C27.6976 35.3712 27.9822 35.5543 28.2573 35.7313C28.7474 36.0466 29.3029 36.404 29.9906 36.404C30.3228 36.404 30.624 36.3201 30.9019 36.1984L29.5764 48.1279H28.5583V38.4627C28.5583 38.0339 28.2107 37.6863 27.782 37.6863C27.3532 37.6863 27.0056 38.0339 27.0056 38.4627V52.2236C27.0056 52.6524 27.3532 53 27.782 53H32.7608C33.0549 53 33.3237 52.8339 33.4552 52.5708C33.5867 52.3078 33.5584 51.993 33.3819 51.7578L31.077 48.6846L32.5618 35.3211C32.7832 35.2997 33.0901 35.3542 33.3887 35.4079C33.9537 35.5097 34.594 35.6249 35.2114 35.3689C35.5117 35.2444 35.7027 34.9458 35.6897 34.621L35.2807 24.2981C35.8042 23.4776 36.357 22.5191 36.8578 21.4679H44.7451C45.8858 21.4679 46.8139 20.5398 46.8139 19.399C46.8139 18.3247 45.975 17.4187 44.9038 17.3363L38.3919 16.8354C38.506 16.1735 38.5712 15.5025 38.5753 14.8295H41.4352C42.4562 14.8295 43.4346 14.4513 44.1901 13.7645L50.987 7.58552C51.4994 7.11939 51.7636 6.45596 51.7118 5.7652ZM4.60111 27.3832H2.83461V26.9659C2.83461 26.692 2.95842 26.4383 3.17425 26.2698C3.39018 26.1013 3.66636 26.0427 3.93198 26.1091L4.601 26.2764V27.3832H4.60111ZM6.15384 26.3556L17.3051 24.9617C17.3635 25.0725 17.4084 25.1762 17.426 25.2651C17.4702 25.4886 17.4084 25.8319 17.3486 26.1639C17.2799 26.546 17.2053 26.9626 17.2432 27.3832H6.15384V26.3556ZM28.5582 51.4473V49.6809H29.883L31.2079 51.4473H28.5582ZM33.6635 33.8797C33.2117 33.7985 32.6996 33.7062 32.1883 33.8074C31.692 33.9056 31.2625 34.1819 30.8836 34.4257C30.5583 34.635 30.2218 34.8514 29.9906 34.8514C29.7593 34.8514 29.4228 34.635 29.0975 34.4257C28.7185 34.1819 28.289 33.9056 27.7926 33.8074C27.6323 33.7757 27.472 33.763 27.3134 33.763C26.9662 33.763 26.6276 33.8239 26.3173 33.8797C25.9453 33.9466 25.5604 34.0159 25.3643 33.9345C25.1584 33.8491 24.9327 33.5232 24.7144 33.208C24.4558 32.8345 24.1628 32.4113 23.7373 32.1264C23.3081 31.839 22.8022 31.7286 22.3557 31.6311C21.9837 31.5498 21.5989 31.4659 21.4445 31.3115C21.2902 31.1572 21.2063 30.7724 21.1251 30.4004C21.0277 29.954 20.9172 29.4481 20.6299 29.019C20.345 28.5934 19.9217 28.3003 19.5482 28.0418C19.2331 27.8236 18.9073 27.5979 18.8219 27.392C18.7405 27.1958 18.8098 26.8112 18.8767 26.4391C18.9581 25.9873 19.0502 25.4751 18.9491 24.9639C18.8509 24.4676 18.5746 24.0381 18.3308 23.6592C18.2964 23.6059 18.262 23.5523 18.2283 23.4988L24.3109 23.2536C25.3417 23.2121 26.3037 22.7946 27.0196 22.0781C27.8064 21.2906 29.0687 20.3624 30.7246 20.2375L33.7232 24.2152L34.1091 33.9524C33.9675 33.9344 33.8145 33.9069 33.6635 33.8797ZM44.7844 18.8844C45.0517 18.905 45.261 19.1309 45.261 19.3989C45.261 19.6835 45.0294 19.9151 44.7449 19.9151H37.5253C37.7182 19.4112 37.8928 18.8936 38.0418 18.3656L44.7844 18.8844ZM33.5905 6.63835C33.0774 6.63835 32.5997 6.48515 32.1997 6.22274L35.8368 2.90589C36.0258 3.26116 36.1332 3.66601 36.1332 4.0956C36.1333 5.49761 34.9926 6.63835 33.5905 6.63835ZM33.5905 1.55273C33.9974 1.55273 34.3819 1.64931 34.7232 1.82001L31.2201 5.01461C31.1092 4.72932 31.0476 4.4196 31.0476 4.0956C31.0477 2.69348 32.1883 1.55273 33.5905 1.55273ZM29.4415 6.63835C28.9545 6.63835 28.5583 6.2421 28.5583 5.75516C28.5583 5.26812 28.9546 4.87196 29.4415 4.87196C29.4854 4.87196 29.5287 4.87569 29.5716 4.8819C29.6714 5.39347 29.8671 5.87089 30.1387 6.29551C29.974 6.50585 29.7178 6.63835 29.4415 6.63835ZM32.7073 10.0798V8.09409C32.9919 8.15693 33.2873 8.19109 33.5905 8.19109C33.8936 8.19109 34.189 8.15693 34.4736 8.09409V9.95748H33.5905C33.2844 9.95758 32.9884 10.0007 32.7073 10.0798ZM49.9423 6.43639L43.1852 12.5792L42.6155 11.1263L49.0315 5.42308C49.2628 5.21739 49.6043 5.19369 49.8619 5.36542C50.0376 5.4826 50.1475 5.67059 50.1633 5.88124C50.1792 6.092 50.0986 6.29437 49.9423 6.43639Z" fill="#6400D1"/>
</g>
<defs>
<clipPath id="clip0">
<rect width="53" height="53" fill="white"/>
</clipPath>
</defs>
</svg>
