<svg width="46" height="46" viewBox="0 0 46 46" fill="none" xmlns="http://www.w3.org/2000/svg">
<path d="M25.9973 3.83679C26.1413 3.48944 25.9764 3.09115 25.6291 2.94717C25.2817 2.8032 24.8834 2.96806 24.7395 3.31541C24.5955 3.66275 24.7603 4.06105 25.1077 4.20503C25.455 4.349 25.8533 4.18414 25.9973 3.83679Z" fill="#6400D1"/>
<path d="M36.2506 2.9042C34.4127 2.9042 32.7042 3.46806 31.2884 4.43154L28.9066 3.11237C28.6775 1.3588 27.1747 0 25.3597 0C23.5447 0 22.042 1.3588 21.8129 3.11246L19.4311 4.43163C18.0153 3.46815 16.3068 2.90429 14.4689 2.90429C10.3262 2.90429 6.8403 5.76833 5.88598 9.62029H3.03353C2.46644 9.62029 1.93268 9.84095 1.52883 10.2433C1.12822 10.6453 0.90756 11.1791 0.90756 11.7463C0.90756 12.8129 1.69729 13.6983 2.72267 13.8492V15.4288H2.30742C1.53548 15.4288 0.907471 16.0567 0.907471 16.8286V18.2808C0.907471 19.0527 1.53548 19.6806 2.30742 19.6806H2.72231V21.7908C2.72231 22.163 3.02401 22.4646 3.39614 22.4646C3.76828 22.4646 4.06997 22.163 4.06997 21.7908V19.6806H5.62696V27.0458H4.06997V24.9354C4.06997 24.5632 3.76828 24.2616 3.39614 24.2616C3.02401 24.2616 2.72231 24.5632 2.72231 24.9354V27.2194C2.29008 27.458 1.99638 27.918 1.99638 28.4456V43.1484C1.99638 44.7208 3.27602 46 4.84892 46C6.42127 46 7.70056 44.7208 7.70056 43.1484V35.6105C7.70056 35.2382 7.39886 34.9366 7.02673 34.9366C6.6546 34.9366 6.3529 35.2382 6.3529 35.6105V43.1483C6.3529 43.9775 5.67826 44.6523 4.84892 44.6523C4.01912 44.6523 3.34403 43.9775 3.34403 43.1483V28.4454C3.34403 28.4167 3.36739 28.3933 3.39614 28.3933H6.30079C6.32954 28.3933 6.3529 28.4167 6.3529 28.4454V32.4659C6.3529 32.8382 6.6546 33.1398 7.02673 33.1398C7.39886 33.1398 7.70056 32.8382 7.70056 32.4659V28.4454C7.70056 27.9178 7.40686 27.4577 6.97462 27.2192V19.6805H7.38988C8.08662 19.6805 8.6644 19.1684 8.77069 18.5013C10.3108 19.8025 12.2997 20.5881 14.4689 20.5881C19.3444 20.5881 23.3109 16.6217 23.3109 11.7463C23.3109 10.2849 22.9542 8.9054 22.3238 7.68973L23.8735 6.83163C24.3265 7.03935 24.8296 7.15614 25.3597 7.15614C25.8899 7.15614 26.3929 7.03935 26.8459 6.83154L28.3956 7.68964C27.7653 8.90531 27.4085 10.2849 27.4085 11.7462C27.4085 16.6216 31.3749 20.5881 36.2505 20.5881C41.126 20.5881 45.0925 16.6216 45.0925 11.7462C45.0925 6.87071 41.126 2.9042 36.2506 2.9042ZM2.25531 11.7462C2.25531 11.5381 2.33635 11.3421 2.4818 11.1961C2.6296 11.0489 2.82554 10.9679 3.03362 10.9679H5.66164C5.63918 11.2244 5.62696 11.4839 5.62696 11.7462C5.62696 12.0084 5.63909 12.2679 5.66164 12.5244H3.03353C2.60444 12.5244 2.25531 12.1754 2.25531 11.7462ZM5.62696 13.8721V15.4286H4.07042V13.8721H5.62696ZM7.44208 18.2807C7.44208 18.3094 7.41863 18.3329 7.38979 18.3329H2.30751C2.27867 18.3329 2.25522 18.3094 2.25522 18.2807V16.8285C2.25522 16.7998 2.27867 16.7763 2.30751 16.7763H7.20148C7.27919 16.8883 7.35942 16.9983 7.44208 17.1065V18.2807ZM14.4689 19.2404C10.3366 19.2404 6.97462 15.8785 6.97462 11.7462C6.97462 7.61381 10.3366 4.25186 14.4689 4.25186C18.6013 4.25186 21.9633 7.61381 21.9633 11.7462C21.9633 15.8785 18.6013 19.2404 14.4689 19.2404ZM21.613 6.54269C21.2989 6.1127 20.9476 5.71173 20.5628 5.34525L21.928 4.58904C22.0785 5.09899 22.3396 5.56178 22.6838 5.94972L21.613 6.54269ZM25.3597 5.8084C24.1299 5.8084 23.1293 4.80781 23.1293 3.57803C23.1293 2.34825 24.1299 1.34766 25.3597 1.34766C26.5895 1.34766 27.5901 2.34825 27.5901 3.57803C27.5901 4.80781 26.5896 5.8084 25.3597 5.8084ZM28.0356 5.94972C28.3798 5.56187 28.6408 5.09908 28.7914 4.58913L30.1567 5.34534C29.772 5.71182 29.4206 6.11279 29.1066 6.54278L28.0356 5.94972ZM36.2506 19.2404C32.1182 19.2404 28.7563 15.8785 28.7563 11.7462C28.7563 7.61381 32.1181 4.25186 36.2506 4.25186C40.383 4.25186 43.7449 7.61381 43.7449 11.7462C43.7449 15.8785 40.3829 19.2404 36.2506 19.2404Z" fill="#6400D1"/>
<path d="M36.2503 5.80811C32.9762 5.80811 30.3125 8.4717 30.3125 11.7459C30.3125 15.0201 32.9762 17.6837 36.2503 17.6837C37.5968 17.6837 38.8673 17.2424 39.9246 16.4076C40.2167 16.177 40.2666 15.7533 40.0359 15.4612C39.8053 15.169 39.3816 15.1193 39.0895 15.3499C38.2724 15.995 37.2907 16.3361 36.2502 16.3361C33.7192 16.3361 31.6601 14.277 31.6601 11.746C31.6601 9.21498 33.7192 7.15585 36.2502 7.15585C38.7812 7.15585 40.8403 9.21498 40.8403 11.746C40.8403 12.2155 40.7695 12.678 40.6298 13.1209C40.5178 13.4759 40.7149 13.8543 41.0698 13.9662C41.4249 14.0783 41.8032 13.8811 41.915 13.5263C42.096 12.952 42.1879 12.353 42.1879 11.7461C42.188 8.47179 39.5244 5.80811 36.2503 5.80811Z" fill="#6400D1"/>
<path d="M14.469 5.80811C11.1949 5.80811 8.53125 8.4717 8.53125 11.7459C8.53125 15.0199 11.1949 17.6836 14.469 17.6836C17.7431 17.6836 20.4067 15.02 20.4067 11.7459C20.4067 8.47179 17.7431 5.80811 14.469 5.80811ZM14.469 16.3359C11.938 16.3359 9.87891 14.2769 9.87891 11.7459C9.87891 9.21489 11.938 7.15576 14.469 7.15576C17 7.15576 19.059 9.21489 19.059 11.7459C19.059 14.2769 17 16.3359 14.469 16.3359Z" fill="#6400D1"/>
</svg>
