<svg width="132" height="25" viewBox="0 0 132 25" fill="none" xmlns="http://www.w3.org/2000/svg">
<path d="M114.789 5.81721H122.298V16.8898C122.298 16.8898 122.298 18.373 123.394 18.373C124.495 18.373 124.312 16.9269 124.312 16.9269V5.8544H132V17.8524C132 17.8524 132 25 123.507 25C115.01 25 114.826 18.9266 114.789 18.1127V5.81721ZM80.9453 12.6673V5.8544H92.7406V0H99.9204V7.25913C99.9204 7.25913 102.847 4.99917 106.329 5.25946C109.806 5.51975 112.625 6.99884 112.846 7.41199L110.869 12.2252C110.869 12.2252 107.392 10.4487 106.4 10.7048C105.412 10.9651 105.191 11.337 105.666 11.8906C106.145 12.4484 108.489 12.6673 109.076 13.002C109.66 13.3366 112.333 14.0018 112.808 17.4103C113.288 20.8147 110.869 24.0786 107.646 24.5579C104.423 25.0372 100.175 25.0372 96.8017 22.4467L98.8197 17.5219C98.8197 17.5219 101.676 19.1869 103.139 19.3356C104.603 19.4802 105.228 19.5215 105.412 18.8522C105.595 18.1871 104.423 17.7822 103.619 17.6293C102.814 17.4806 99.4034 16.6295 98.5987 14.5555C97.794 12.4855 97.5397 10.0025 99.737 7.37481H92.9575V24.372H85.2649V12.6673H80.9453ZM42.2322 5.74285H49.2243L51.4258 12.6673L53.7314 5.78003H60.7278L63.3628 22.7029L69.2251 5.78003H76.6967L82.9216 24.2604H75.1581L72.9233 15.6297L70.7636 24.3348H56.5542L55.4493 17.6293L53.548 24.2604H49.2243L47.323 17.5921L46.2598 24.2604H39.3011L42.2322 5.74285ZM29.2277 4.89175C23.7658 4.89175 19.3378 9.33315 19.3378 14.8157C19.3378 20.2983 23.7658 24.7397 29.2277 24.7397C34.6897 24.7397 39.1176 20.2983 39.1176 14.8157C39.1176 9.33315 34.6897 4.89175 29.2277 4.89175ZM29.1527 17.4103C27.7184 17.4103 26.5551 16.2494 26.5551 14.8157C26.5551 13.3821 27.7184 12.2252 29.1527 12.2252C30.5911 12.2252 31.7586 13.3821 31.7586 14.8157C31.7586 16.2494 30.5911 17.4103 29.1527 17.4103ZM0 5.55693H7.72596V14.1877L11.5743 5.55693H20.2926L16.0815 14.5555L20.547 24.0373H11.7953L7.72596 15.076V24.0373H0V5.55693Z" fill="#9C9C9C"/>
</svg>
