<svg width="135" height="24" viewBox="0 0 135 24" fill="none" xmlns="http://www.w3.org/2000/svg">
<path d="M5.50515 1.83729C5.50515 1.83729 5.49563 10.3635 5.50515 10.3014H16.6202C16.6202 10.3305 16.6012 1.83535 16.6202 1.83729C16.6012 1.83535 22.0682 1.83729 22.1254 1.83729C22.1254 1.83729 22.1444 22.9757 22.1254 23H16.6202V13.6849C16.6202 13.714 5.50515 13.6849 5.50515 13.6849C5.50515 13.7237 5.49563 23.0068 5.50515 23H0C0 23 0.0285735 1.83729 0 1.83729H5.50515Z" fill="#9C9C9C"/>
<path d="M26 23.1631H31.4957V2H26V23.1631Z" fill="#9C9C9C"/>
<path d="M56.335 1.83691V5.43493H47.9153V23H42.4197V5.43493H34C34 5.43493 34.0095 1.84468 34 1.83691C34.0095 1.84468 56.335 1.83691 56.335 1.83691Z" fill="#9C9C9C"/>
<path d="M65.0866 5.43206L61.2578 15.0606H68.9155L65.0866 5.43206ZM78.1638 22.997H72.0395C72.049 22.997 70.2394 18.449 70.2394 18.449H59.9244C59.9244 18.449 58.1528 23.0038 58.1338 22.997C58.1338 23.0038 52 22.997 52 22.997L61.715 1.83408C61.715 1.84378 68.4583 1.83408 68.4583 1.83408L78.1638 22.997Z" fill="#9C9C9C"/>
<path d="M77.7429 16.621C77.2572 15.1937 77 13.6897 77 12.1061C77 9.88307 77.381 7.72991 78.4287 5.93674C79.5049 4.09602 81.1622 2.67546 83.1623 1.92054C85.0577 1.19086 87.1055 0.790108 89.258 0.790108C91.7249 0.790108 94.0584 1.34028 96.2014 2.27956C98.1825 3.14995 99.6778 4.96932 100.125 7.16906C100.221 7.60377 100.287 8.05885 100.316 8.51297H94.5441C94.5251 7.94241 94.4393 7.38738 94.2489 6.88572C93.8107 5.7155 92.8488 4.80048 91.6677 4.43952C90.9058 4.19597 90.0867 4.06982 89.258 4.06982C88.3056 4.06982 87.3817 4.23381 86.534 4.54626C85.1244 5.05083 84.0291 6.21619 83.5243 7.65325C83.0385 9.04083 82.7718 10.5439 82.7718 12.1061C82.7718 13.4025 82.9814 14.6493 83.2957 15.8225C83.7148 17.3624 84.8577 18.6034 86.3054 19.1691C87.2198 19.5185 88.2199 19.7232 89.258 19.7232C90.1438 19.7232 90.9915 19.5873 91.8011 19.3234C92.8773 18.9702 93.7536 18.1619 94.2108 17.1227C94.506 16.4328 94.6584 15.6682 94.6584 14.8512H100.459C100.421 15.543 100.325 16.2242 100.183 16.8607C99.6778 18.9557 98.2396 20.7158 96.3347 21.5299C94.1536 22.4586 91.7725 23 89.258 23C87.315 23 85.4292 22.6895 83.6767 22.1267C80.9908 21.267 78.6668 19.2972 77.7429 16.621Z" fill="#9C9C9C"/>
<path d="M108.496 1.83729V10.3014H119.611C119.611 10.3305 119.601 1.83535 119.611 1.83729C119.601 1.83535 125.059 1.83729 125.116 1.83729C125.116 1.83729 125.135 22.9757 125.116 23H119.611V13.6849C119.611 13.714 108.496 13.6849 108.496 13.6849C108.505 13.7237 108.496 23.0068 108.496 23H103C103 23 103.029 1.83729 103 1.83729H108.496Z" fill="#9C9C9C"/>
<path d="M129 23.1631H134.505V2H129V23.1631Z" fill="#9C9C9C"/>
</svg>
