<svg xmlns="http://www.w3.org/2000/svg">
    <symbol viewBox="0 0 16 16" id="bool_cover">
        <path d="M13.293 2H10V1h5v5h-1V2.707L2.707 14H6v1H1v-5h1v3.293z"/>
    </symbol>

    <symbol viewBox="0 0 16 16" id="bool_section_title">
        <path d="M1 2h11v1H7v11H6V3H1V2zm9 6h5v1h-2v5h-1V9h-2V8z"/>
    </symbol>

    <symbol viewBox="0 0 16 16" id="bool_section_footer">
        <path d="M2.00024 13H14.0002V9.00003H2.00024V13Z"/>
        <path d="M16.0002 15H0.000244141V1.00003H16.0002V15ZM15.0002 14H1.00024V2.00003H15.0002V14Z"/>
    </symbol>

    <symbol viewBox="0 0 16 16" id="bool_slider">
        <path d="M6 13l-1-.833L.78 8.65 0 8l.78-.65L5 3.832 6 3v10zM1.562 8L5 10.865v-5.73L1.562 8zM10 13V3l1 .833 4.22 3.516L16 8l-.78.65L11 12.168 10 13zm4.438-5L11 5.135v5.73L14.438 8z"/>
    </symbol>

    <symbol viewBox="0 0 16 16" id="bool_wide">
        <path d="M0 2h16v12H0V2zm1 1v10h14V3H1zm13 5l-.833.625L11 10.25 10 11V8.5H6V11l-1-.75-2.167-1.625L2 8l.833-.625L5 5.75 6 5v2.5h4V5l1 .75 2.167 1.625L14 8zm-3 1l1.333-1L11 7v2zM3.667 8L5 9V7L3.667 8z" />
    </symbol>

    <symbol viewBox="0 0 16 14" id="bool_header">
        <path clip-rule="evenodd" d="M1 1H15V13H1V1ZM0 0H1H15H16V1V13V14H15H1H0V13V1V0ZM14 2H2V6H14V2Z"/>
    </symbol>

    <symbol viewBox="0 0 16 16" id="bool_tabs">
        <path d="M6 4V3H10V4H7H6ZM11 4H12H15L15 3H11V4ZM16 5V4V3C16 2.44772 15.5523 2 15 2H6C6 1.44772 5.55228 1 5 1H1C0.447715 1 0 1.44772 0 2V13C0 13.5523 0.447715 14 1 14H15C15.5523 14 16 13.5523 16 13V5ZM5 3V2H1V13H15V5H12H6H5V4V3ZM3 7.5C3 7.22386 3.22386 7 3.5 7H12.5C12.7761 7 13 7.22386 13 7.5C13 7.77614 12.7761 8 12.5 8H3.5C3.22386 8 3 7.77614 3 7.5ZM3.5 10C3.22386 10 3 10.2239 3 10.5C3 10.7761 3.22386 11 3.5 11H8.5C8.77614 11 9 10.7761 9 10.5C9 10.2239 8.77614 10 8.5 10H3.5Z"/>
    </symbol>

    <symbol viewBox="0 0 14 14" id="bool_categories" fill="none">
        <path d="M1.5 11.5H12.5C13.0523 11.5 13.5 11.0523 13.5 10.5V5.5C13.5 4.94772 13.0523 4.5 12.5 4.5H7.11803C6.73926 4.5 6.393 4.286 6.22361 3.94721L5.77639 3.05279C5.607 2.714 5.26074 2.5 4.88197 2.5H1.5C0.947715 2.5 0.5 2.94772 0.5 3.5V10.5C0.5 11.0523 0.947715 11.5 1.5 11.5Z"
              stroke="currentColor"
        />
    </symbol>

    <symbol viewBox="0 0 16 16" id="bool_image">
        <path d="M2 3H14V13H2V3ZM0 3C0 1.89543 0.895431 1 2 1H14C15.1046 1 16 1.89543 16 3V13C16 14.1046 15.1046 15 14 15H2C0.895431 15 0 14.1046 0 13V3ZM7.47368 10.2105L6 8L4 11H7H8H13L10 6L7.47368 10.2105ZM6 7C6.55228 7 7 6.55228 7 6C7 5.44772 6.55228 5 6 5C5.44772 5 5 5.44772 5 6C5 6.55228 5.44772 7 6 7Z"/>
    </symbol>

    <symbol viewBox="0 0 16 16" id="bool_title">
        <path d="M0 3H10V5H6V13H4V5H0V3ZM10 7H16V9H14V13H12V9H10V7Z"/>
    </symbol>

    <symbol viewBox="0 0 16 16" id="bool_article">
        <path d="M9.99997 7C10.5523 7 11 6.55228 11 6C11 5.44772 10.5523 5 9.99997 5C9.44769 5 8.99997 5.44772 8.99997 6C8.99997 6.55228 9.44769 7 9.99997 7Z"/>
        <path d="M8.41421 14.4142L15 8V1H7.99998L1.58579 7.58579C0.804737 8.36684 0.804739 9.63317 1.58579 10.4142L5.58579 14.4142C6.36684 15.1953 7.63316 15.1953 8.41421 14.4142ZM3 9L8.8284 3H13V7.17157L7 13L3 9Z"/>
    </symbol>

    <symbol viewBox="0 0 16 16" id="bool_desc">
        <path d="M0 3H16V5H0V3ZM0 7H16V9H0V7ZM10 11H0V13H10V11Z"/>
    </symbol>

    <symbol viewBox="0 0 16 16" id="bool_option">
        <path d="M11 5C11.5523 5 12 4.55228 12 4C12 3.44772 11.5523 3 11 3C10.4477 3 10 3.44772 10 4C10 4.55228 10.4477 5 11 5ZM11 7C12.3062 7 13.4175 6.16519 13.8293 5H16V3H13.8293C13.4175 1.83481 12.3062 1 11 1C9.69378 1 8.58254 1.83481 8.17071 3H0V5H8.17071C8.58254 6.16519 9.69378 7 11 7ZM7.82929 11H16V13H7.82929C7.41746 14.1652 6.30622 15 5 15C3.69378 15 2.58254 14.1652 2.17071 13H0V11H2.17071C2.58254 9.83481 3.69378 9 5 9C6.30622 9 7.41746 9.83481 7.82929 11ZM6 12C6 11.4477 5.55228 11 5 11C4.44772 11 4 11.4477 4 12C4 12.5523 4.44772 13 5 13C5.55228 13 6 12.5523 6 12Z"/>
    </symbol>

    <symbol viewBox="0 0 16 16" id="bool_available">
        <path d="M0 5H2V11C2 12.1046 2.89543 13 4 13H12C13.1046 13 14 12.1046 14 11V5H16V3H14C12.8954 3 12 3.89543 12 5V11H4V5C4 3.89543 3.10457 3 2 3H0V5ZM6 8C5.44772 8 5 8.44772 5 9C5 9.55228 5.44772 10 6 10H10C10.5523 10 11 9.55228 11 9C11 8.44772 10.5523 8 10 8H6Z"/>
    </symbol>

    <symbol viewBox="0 0 16 16" id="bool_price">
        <path d="M2 8C2 4.68617 4.68617 2 8 2C11.3138 2 14 4.68617 14 8C14 11.3138 11.3138 14 8 14C4.68617 14 2 11.3138 2 8ZM0 8C0 3.5816 3.5816 0 8 0C12.4184 0 16 3.5816 16 8C16 12.4184 12.4184 16 8 16C3.5816 16 0 12.4184 0 8ZM8.70146 11.38V12.47H7.55146V11.4C6.14146 11.17 5.50146 10.13 5.43146 9.31001L6.81146 9.00002C6.86146 9.58002 7.26146 10.1 8.12146 10.1C8.62146 10.1 8.98146 9.86001 8.98146 9.47001C8.98146 9.18001 8.76146 8.99002 8.36146 8.90001L7.47146 8.69001C6.35146 8.42001 5.66146 7.74002 5.66146 6.79001C5.66146 5.67001 6.50146 4.90001 7.55146 4.72001V3.64001H8.70146V4.75001C9.80146 4.99001 10.3015 5.78001 10.4415 6.46001L9.05146 6.83001C8.99146 6.52001 8.82146 6.00001 8.03146 6.00001C7.47146 6.00001 7.19146 6.33001 7.19146 6.65001C7.19146 6.92001 7.39146 7.13001 7.78146 7.22001L8.65146 7.41001C9.99146 7.71001 10.5215 8.49002 10.5215 9.39001C10.5215 10.31 9.86146 11.17 8.70146 11.38Z"/>
    </symbol>

    <symbol viewBox="0 0 16 16" fill="none" id="bool_button">
        <rect x="1" y="4" width="14" height="8" rx="1" stroke="currentColor" stroke-width="2"/>
    </symbol>

    <symbol viewBox="0 0 16 16" id="align_start">
        <path d="M2 2h2v6H2V2zm5 0h2v12H7V2zm7 0h-2v6h2V2z"/>
    </symbol>

    <symbol viewBox="0 0 16 16" id="align_end">
        <path d="M7 2h2v12H7V2zM2 8h2v6H2V8zm12 0h-2v6h2V8z"/>

    </symbol>

    <symbol viewBox="0 0 16 14" id="align_center">
        <path d="M7 2h2v12H7V2zM2 5h2v6H2V5zm12 0h-2v6h2V5z"/>
    </symbol>

    <symbol viewBox="0 0 16 16" id="align_stretch">
        <path d="M4 2H2v12h2V2zm3 0h2v12H7V2zm5 0h2v12h-2V2z"/>
    </symbol>

    <symbol viewBox="0 0 16 16" id="align_content_start">
        <path d="M14 3H2V1h12v2zM9 15V9h3L8 5 4 9h3v6h2z"/>
    </symbol>

    <symbol viewBox="0 0 16 16" id="align_content_center">
        <path d="M4 1l4 4 4-4H4zm0 14l4-4 4 4H4zm10-8H2v2h12V7z"/>
    </symbol>

    <symbol viewBox="0 0 16 16" id="align_content_end">
        <path d="M9 1v6h3l-4 4-4-4h3V1h2zm5 14v-2H2v2h12z"/>
    </symbol>

    <symbol viewBox="0 0 16 16" id="justify_center">
        <path d="M5 2v2h6V2H5zM2 9V7h12v2H2zm3 5v-2h6v2H5z"/>
    </symbol>

    <symbol viewBox="0 0 16 16" id="justify_end">
        <path d="M8 2v2h6V2H8zM2 9V7h12v2H2zm6 5v-2h6v2H8z"/>
    </symbol>

    <symbol viewBox="0 0 16 16" id="justify_start">
        <path d="M2 4V2h6v2H2zm0 5V7h12v2H2zm0 3v2h6v-2H2z"/>
    </symbol>

    <symbol viewBox="0 0 16 16" id="none">
        <path d="M14.5 8a6 6 0 0 1-9.874 4.582l8.456-8.456A5.976 5.976 0 0 1 14.5 8zM3.918 11.874l8.456-8.456a6 6 0 0 0-8.456 8.456zM15.5 8a7 7 0 1 1-14 0 7 7 0 0 1 14 0z"/>
    </symbol>

    <symbol viewBox="0 0 16 16" id="settings">
        <path d="M15.5 8.76v-1.6l-1.94-.64-.45-1.09.88-1.84-1.13-1.13-1.81.91-1.09-.45L9.27 1h-1.6l-.63 1.94-1.11.45-1.84-.88-1.13 1.13.91 1.81-.45 1.09-1.92.68v1.59l1.94.64.45 1.09-.88 1.84 1.13 1.13 1.81-.91 1.09.45.69 1.95h1.59l.63-1.97 1.11-.45 1.84.88 1.13-1.13-.92-1.81.47-1.09 1.92-.69v.02zm-7 2.23c-1.66 0-3-1.34-3-3s1.34-3 3-3 3 1.34 3 3-1.34 3-3 3z"/>
    </symbol>

    <symbol viewBox="0 0 14 11" id="apply">
        <path d="M1 5l4 4 8-8" fill="none" stroke="currentColor" stroke-width="2"/>
    </symbol>

    <symbol viewBox="0 0 16 16" id="color_contrast">
        <path d="M8.728 13V3.322c-.473.31-1.064.742-1.648 1.277C5.742 5.825 4.728 7.33 4.728 9c0 1.457.527 2.403 1.204 3.005.714.635 1.723.995 2.796.995zm0 2c-3 0-6-2-6-6 0-5 6-8 6-8s6 3 6 8c0 4-3 6-6 6z"/>
    </symbol>

    <symbol viewBox="0 0 16 16" id="color_light">
        <g transform="translate(2 1)">
            <path d="M11 8c0 1.73-.638 2.952-1.54 3.753C8.54 12.57 7.288 13 6 13s-2.54-.43-3.46-1.247C1.637 10.953 1 9.73 1 8c0-2.086 1.257-3.837 2.676-5.138A14.204 14.204 0 0 1 6 1.144a14.204 14.204 0 0 1 2.324 1.718C9.744 4.162 11 5.914 11 8z"
                  fill="none" stroke="currentColor" stroke-width="2"/>
        </g>
    </symbol>

    <symbol viewBox="0 0 16 16" id="color_dark">
        <path d="M8 15.5c3 0 6-2 6-6 0-5-6-8-6-8s-6 3-6 8c0 4 3 6 6 6z"/>
    </symbol>

    <symbol viewBox="0 0 16 16" id="color_custom">
        <path d="M15.5 8.76v-1.6l-1.94-.64-.45-1.09.88-1.84-1.13-1.13-1.81.91-1.09-.45L9.27 1h-1.6l-.63 1.94-1.11.45-1.84-.88-1.13 1.13.91 1.81-.45 1.09-1.92.68v1.59l1.94.64.45 1.09-.88 1.84 1.13 1.13 1.81-.91 1.09.45.69 1.95h1.59l.63-1.97 1.11-.45 1.84.88 1.13-1.13-.92-1.81.47-1.09 1.92-.69v.02zm-7 2.23c-1.66 0-3-1.34-3-3s1.34-3 3-3 3 1.34 3 3-1.34 3-3 3z"
        />
    </symbol>

    <symbol viewBox="0 0 16 16" id="column30">
        <path d="M0 0.00012207H3V16.0001H0V0.00012207Z"/>
        <path d="M5 0H16V16H5V0Z"/>
    </symbol>

    <symbol viewBox="0 0 16 16" id="column40">
        <path d="M5 0H0V16H5V0Z"/>
        <path d="M16 0H7V16H16V0Z"/>
    </symbol>

    <symbol viewBox="0 0 16 16" id="column50">
        <path d="M7 0H0V16H7V0Z"/>
        <path d="M16 0H9V16H16V0Z"/>
    </symbol>

    <symbol viewBox="0 0 16 16" id="column60">
        <rect x="11" width="5" height="16"/>
        <rect width="9" height="16"/>
    </symbol>

    <symbol viewBox="0 0 16 16" id="column70">
        <path d="M13 0H16V16H13V0Z"/>
        <path d="M0 0H11V16H0V0Z"/>
    </symbol>

    <symbol viewBox="0 0 14 16" id="resize_vertical">
        <path d="M6 0H8V16H6V0ZM4 4L0 8L4 12V4ZM14 8L10 4V12L14 8Z"/>
    </symbol>

    <symbol viewBox="0 0 16 14" id="resize_horizontal">
        <path d="M0 8L0 6L16 6V8H0ZM4 10L8 14L12 10H4ZM8 0L4 4H12L8 0Z"/>
    </symbol>

    <symbol viewBox="0 0 16 16" id="column_vertical">
        <rect x="4" y="1" width="8" height="14" rx="1" fill="none" stroke="currentColor" stroke-width="2"/>
    </symbol>

    <symbol viewBox="0 0 16 16" id="column_horizontal">
        <rect x="15" y="4" width="8" height="14" rx="1" transform="rotate(90 15 4)" fill="none" stroke="currentColor" stroke-width="2"/>
    </symbol>

    <symbol viewBox="0 0 16 16" id="icon_plus">
        <path d="M9 1H7v6H1v2h6v6h2V9h6V7H9V1z"/>
    </symbol>

    <symbol viewBox="0 0 16 16" fill="none" id="icon_arrow">
        <path d="M3 6l5 5 5-5" stroke="currentColor" stroke-width="2" stroke-linecap="round" stroke-linejoin="round"/>
    </symbol>

    <symbol viewBox="0 0 14 14" fill="none" id="video_upload">
        <path d="M7.35355 0.646401C7.15829 0.451139 6.84171 0.451139 6.64645 0.646401L2.64645 4.6464L3.35355 5.35351L6.5 2.20706V9.99995H7.5V2.20706L10.6464 5.35351L11.3536 4.6464L7.35355 0.646401ZM0 14H3H12H14V13H12H3H0V14Z"/>
    </symbol>

    <symbol viewBox="0 0 6 6" id="dot">
        <circle cx="3" cy="3" r="3"/>
    </symbol>

    <symbol viewBox="0 0 16 16" id="swap">
        <path d="M12 0L16 4L12 8V5H4V3H12V0ZM4 8L0 12L4 16V13H12V11H4V8Z"/>
    </symbol>

    <symbol viewBox="0 0 16 16" id="unload">
        <path d="M10.1508 1.24075C9.73147 0.881324 9.10017 0.929886 8.74074 1.34921C8.38132 1.76854 8.42988 2.39984 8.84921 2.75926L10.5163 4.18818C8.78209 4.47347 7.35231 5.08864 6.26659 6.07097C4.68049 7.506 4 9.56721 4 12H6C6 9.93279 6.56951 8.494 7.60841 7.55404C8.31132 6.91807 9.30486 6.44106 10.6607 6.1926L9.24074 7.84921C8.88132 8.26854 8.92988 8.89984 9.34921 9.25926C9.76853 9.61868 10.3998 9.57012 10.7593 9.15079L13.7593 5.65079C14.1187 5.23147 14.0701 4.60017 13.6508 4.24075L10.1508 1.24075ZM2 3H0V13C0 14.6569 1.34315 16 3 16H13C14.6569 16 16 14.6569 16 13V10H14V13C14 13.5523 13.5523 14 13 14H3C2.44772 14 2 13.5523 2 13V3Z"/>
    </symbol>

    <symbol viewBox="0 0 16 16" id="linked">
        <path d="M0 3C0 1.89543 0.89543 1 2 1H5C6.10457 1 7 1.89543 7 3V5H5V3H2V13H5V11H7V13C7 14.1046 6.10457 15 5 15H2C0.895431 15 0 14.1046 0 13V3ZM16 3C16 1.89543 15.1046 1 14 1H11C9.89543 1 9 1.89543 9 3V5H11V3H14V13H11V11H9V13C9 14.1046 9.89543 15 11 15H14C15.1046 15 16 14.1046 16 13V3ZM12 7H4V9H12V7Z"/>
    </symbol>

    <symbol viewBox="0 0 16 16" id="shadow">
        <path d="M7.57066 13.9849L4.79289 11.2071L6.20711 9.79289L10.0536 13.6394C10.5638 13.4535 11.0417 13.2004 11.4765 12.8907L7.29289 8.70711L8.70711 7.29289L12.8907 11.4765C13.2004 11.0417 13.4535 10.5638 13.6394 10.0536L9.79289 6.20711L11.2071 4.79289L13.9849 7.57066C13.7648 4.45734 11.1693 2 8 2C4.68629 2 2 4.68629 2 8C2 11.1693 4.45734 13.7648 7.57066 13.9849ZM16 8C16 12.4183 12.4183 16 8 16C3.58172 16 0 12.4183 0 8C0 3.58172 3.58172 0 8 0C12.4183 0 16 3.58172 16 8Z"/>
    </symbol>

    <symbol viewBox="0 0 16 16" id="shift">
        <path d="M2 2H14V8H2V2ZM0 2C0 0.89543 0.895431 0 2 0H14C15.1046 0 16 0.895431 16 2V8C16 9.10457 15.1046 10 14 10H2C0.895431 10 0 9.10457 0 8V2ZM4 12H2V14H4V12ZM7 12H9V16H7V12ZM14 12H12V14H14V12Z"/>
    </symbol>

    <symbol viewBox="0 0 16 16" id="shift_down">
        <path d="M0 14C0 15.1046 0.895431 16 2 16H14C15.1046 16 16 15.1046 16 14V8C16 6.89543 15.1046 6 14 6H2C0.895431 6 0 6.89543 0 8V14ZM2 14H14V8H2V14Z"/>
        <path d="M4 4H2V2H4V4Z"/>
        <path d="M7 4H9V0H7V4Z"/>
        <path d="M14 4H12V2H14V4Z"/>
    </symbol>

    <symbol viewBox="0 0 16 16" id="scale">
        <path d="M2 3C2 2.44772 2.44772 2 3 2H6V0H3C1.34315 0 0 1.34315 0 3V6H2V3ZM14 3C14 2.44772 13.5523 2 13 2H10V0H13C14.6569 0 16 1.34315 16 3V6H14V3ZM13 14C13.5523 14 14 13.5523 14 13V9H16V13C16 14.6569 14.6569 16 13 16H10V14H13ZM2 13C2 13.5523 2.44772 14 3 14H6V16H3C1.34315 16 0 14.6569 0 13V10H2V13Z"/>
    </symbol>

    <symbol viewBox="0 0 16 16" id="fill">
        <path d="M2 2H14V14H8.93811C8.48686 10.3813 5.61872 7.51314 2 7.06189V2ZM0 2C0 0.895431 0.895431 0 2 0H14C15.1046 0 16 0.895431 16 2V14C16 15.1046 15.1046 16 14 16H2C0.895431 16 0 15.1046 0 14V2ZM7 8L8 9L10.5 6.5L12 8V5V4H11H8L9.5 5.5L7 8Z"/>
    </symbol>

    <symbol viewBox="0 0 16 16" id="fadein">
        <path d="M5 1H7V3H5V1ZM5 5V3H3V5H1V7H3V9H1V11H3V13H5V15H7V13H9V15H11V13H13V11H15V9H13V7H15V5H13V3H11V1H9V3H7V5H5ZM5 7H3V5H5V7ZM7 7H5V9H3V11H5V13H7V11H9V13H11V11H13V9H11V7H13V5H11V3H9V5H7V7ZM9 7V5H11V7H9ZM9 9V7H7V9H5V11H7V9H9ZM9 9V11H11V9H9Z"/>
    </symbol>

    <symbol viewBox="0 0 16 16" id="border">
        <path d="M16 0H0V1H16V0ZM16 3H0V5H16V3ZM0 7H16V10H0V7ZM16 12H0V16H16V12Z"/>
    </symbol>

    <symbol viewBox="0 0 16 16" id="drop">
        <path d="M10.7963 12.0052C11.4734 11.4033 12 10.4573 12 9C12 7.32886 10.9865 5.82578 9.64855 4.59931C9.06428 4.06373 8.47316 3.63311 8 3.32248C7.52684 3.63311 6.93572 4.06373 6.35145 4.59931C5.01348 5.82578 4 7.32886 4 9C4 10.4573 4.5266 11.4033 5.20373 12.0052C5.91767 12.6398 6.92614 13 8 13C9.07386 13 10.0823 12.6398 10.7963 12.0052ZM7.1037 2.78795C7.10128 2.7867 7.1002 2.78615 7.10049 2.7863L7.10198 2.78705L7.10351 2.78782L7.1037 2.78795ZM14 9C14 13 11 15 8 15C5 15 2 13 2 9C2 4 8 1 8 1C8 1 14 4 14 9Z"/>
        <path d="M8 11.5C8 11.5 9.25 11.5 10 10.5C10.75 9.5 10.5 8 10.5 8" stroke="currentColor"/>
    </symbol>

    <symbol viewBox="0 0 16 16" id="picture">
        <path d="M2 3H14V13H2V3ZM0 3C0 1.89543 0.895431 1 2 1H14C15.1046 1 16 1.89543 16 3V13C16 14.1046 15.1046 15 14 15H2C0.895431 15 0 14.1046 0 13V3ZM7.47368 10.2105L6 8L4 11H7H8H13L10 6L7.47368 10.2105ZM6 7C6.55228 7 7 6.55228 7 6C7 5.44772 6.55228 5 6 5C5.44772 5 5 5.44772 5 6C5 6.55228 5.44772 7 6 7Z"/>
    </symbol>

    <symbol viewBox="0 0 16 16" id="fill_bottom_left">
        <path d="M2 2H14V14H8.93811C8.48686 10.3813 5.61872 7.51314 2 7.06189V2ZM0 2C0 0.895431 0.895431 0 2 0H14C15.1046 0 16 0.895431 16 2V14C16 15.1046 15.1046 16 14 16H2C0.895431 16 0 15.1046 0 14V2ZM7 8L8 9L10.5 6.5L12 8V5V4H11H8L9.5 5.5L7 8Z"/>
    </symbol>

    <symbol viewBox="0 0 16 16" id="fill_bottom_center">
        <path d="M2 2H14V12.7084C12.5341 11.0475 10.3894 10 8 10C5.61061 10 3.46589 11.0475 2 12.7084V2ZM0 2C0 0.895432 0.895432 0 2 0H14C15.1046 0 16 0.895432 16 2V14C16 15.1046 15.1046 16 14 16H2C0.895432 16 0 15.1046 0 14V2ZM5 6L8 3L11 6L9 6V8H7V6L5 6Z"/>
    </symbol>

    <symbol viewBox="0 0 16 16" id="fill_bottom_right">
        <path d="M9 8L8 9L5.5 6.5L4 8V4H8L6.5 5.5L9 8Z"/>
        <path d="M16 2C16 0.895431 15.1046 0 14 0H2C0.895431 0 0 0.895431 0 2V14C0 15.1046 0.895431 16 2 16H14C15.1046 16 16 15.1046 16 14V2ZM14 2H2V14H7.06189C7.51314 10.3813 10.3813 7.51314 14 7.06189V2Z"/>
    </symbol>

    <symbol viewBox="0 0 16 16" id="fill_top_left">
        <path d="M2 14H14V2H8.93811C8.48686 5.61872 5.61872 8.48686 2 8.93811V14ZM0 14C0 15.1046 0.895431 16 2 16H14C15.1046 16 16 15.1046 16 14V2C16 0.895431 15.1046 0 14 0H2C0.895431 0 0 0.895431 0 2V14ZM7 8L8 7L10.5 9.5L12 8V12H8L9.5 10.5L7 8Z"/>
    </symbol>

    <symbol viewBox="0 0 16 16" id="time">
        <path d="M7.00003 1C7.00003 0.447715 7.44775 0 8.00003 0C12.4183 0 16 3.58172 16 8C16 12.4183 12.4183 16 8.00003 16C5.08876 16 2.54182 14.4443 1.14351 12.1237C0.85847 11.6506 1.01088 11.0361 1.48393 10.7511C1.95697 10.466 2.57152 10.6184 2.85656 11.0915C3.90804 12.8365 5.81865 14 8.00003 14C11.3137 14 14 11.3137 14 8C14 4.68629 11.3137 2 8.00003 2C7.44775 2 7.00003 1.55228 7.00003 1ZM1.02993 9.19061C0.477852 9.20567 0.0180921 8.77033 0.00302887 8.21825C0.00114824 8.14933 0.000146914 8.08056 1.57927e-05 8.01196C-0.00103947 7.45967 0.445819 7.0111 0.998103 7.01005C1.55039 7.00899 1.99896 7.45585 2.00001 8.00813C2.00011 8.05983 2.00087 8.11169 2.00228 8.1637C2.01735 8.71578 1.58201 9.17554 1.02993 9.19061ZM1.01886 4.09325C0.749156 4.5752 0.921212 5.18454 1.40316 5.45425C1.88511 5.72396 2.49445 5.5519 2.76416 5.06995C2.78957 5.02454 2.81547 4.97961 2.84185 4.93515C3.1237 4.4602 2.96715 3.84669 2.4922 3.56485C2.01725 3.283 1.40374 3.43955 1.12189 3.9145C1.08688 3.9735 1.05254 4.03308 1.01886 4.09325ZM3.48981 2.55407C3.20123 2.08317 3.34903 1.4675 3.81993 1.17892C3.87872 1.14289 3.93781 1.10771 3.99719 1.07336C4.47526 0.796818 5.08698 0.960187 5.36352 1.43825C5.64006 1.91631 5.47669 2.52804 4.99863 2.80458C4.95388 2.83046 4.90932 2.857 4.86495 2.88419C4.39406 3.17276 3.77838 3.02496 3.48981 2.55407ZM7.00003 4V7H5.00003V9H8.00003H9.00003V8V4H7.00003Z"/>
    </symbol>

    <symbol viewBox="0 0 16 16" id="fill_top_center">
        <path d="M2 14H14V3.29165C12.5341 4.95249 10.3894 6 8 6C5.61061 6 3.46589 4.95249 2 3.29165V14ZM0 14C0 15.1046 0.895432 16 2 16H14C15.1046 16 16 15.1046 16 14V2C16 0.895432 15.1046 0 14 0H2C0.895432 0 0 0.895432 0 2V14ZM5 10L8 13L11 10L9 10V8H7V10L5 10Z"/>
    </symbol>

    <symbol viewBox="0 0 16 16" id="fill_top_right">
        <path d="M9 8L8 7L5.5 9.5L4 8V12H8L6.5 10.5L9 8Z"/>
        <path d="M16 14C16 15.1046 15.1046 16 14 16H2C0.895431 16 0 15.1046 0 14V2C0 0.895431 0.895431 0 2 0H14C15.1046 0 16 0.895431 16 2V14ZM14 14H2V2H7.06189C7.51314 5.61872 10.3813 8.48686 14 8.93811V14Z"/>
    </symbol>

    <symbol viewBox="0 0 16 16" id="fill_fade">
        <path d="M2 2H14V14H2V2ZM0 2C0 0.895431 0.895431 0 2 0H14C15.1046 0 16 0.895431 16 2V14C16 15.1046 15.1046 16 14 16H2C0.895431 16 0 15.1046 0 14V2ZM5 3H3V5H5V7H3V9H5V11H3V13H5V11H7V13H9V11H11V13H13V11H11V9H13V7H11V5H13V3H11V5H9V3H7V5H5V3ZM7 7V5H9V7H7ZM7 9V7H5V9H7ZM9 9V7H11V9H9ZM9 9H7V11H9V9Z"/>
    </symbol>

    <symbol viewBox="0 0 17 16" id="play">
        <path d="M3.5 3.44636C3.5 2.67854 4.32948 2.19717 4.99614 2.57812L12.965 7.13176C13.6368 7.51565 13.6368 8.48435 12.965 8.86824L4.99614 13.4219C4.32948 13.8028 3.5 13.3215 3.5 12.5536V3.44636Z" fill="none" stroke="currentColor" stroke-width="2"/>
    </symbol>

    <symbol viewBox="0 0 16 16" id="size_large">
        <rect width="16" height="16" rx="3" fill="currentColor"/>
    </symbol>

    <symbol viewBox="0 0 16 16" id="size_medium">
        <rect width="12" height="12" rx="3" x="2" y="2" fill="currentColor"/>
    </symbol>

    <symbol viewBox="0 0 16 16" id="size_small">
        <rect width="8" height="8" rx="3" x="4" y="4" fill="currentColor"/>
    </symbol>
</svg>
