<svg width="14" height="14" viewBox="0 0 14 14" fill="none" xmlns="http://www.w3.org/2000/svg">
<path d="M9.625 0H4.375C1.95913 0 0 1.95913 0 4.375V9.625C0 12.0409 1.95913 14 4.375 14H9.625C12.0409 14 14 12.0409 14 9.625V4.375C14 1.95913 12.0409 0 9.625 0ZM12.6875 9.625C12.6875 11.3138 11.3138 12.6875 9.625 12.6875H4.375C2.68625 12.6875 1.3125 11.3138 1.3125 9.625V4.375C1.3125 2.68625 2.68625 1.3125 4.375 1.3125H9.625C11.3138 1.3125 12.6875 2.68625 12.6875 4.375V9.625Z" fill="white"/>
<path d="M7 3C4.791 3 3 4.791 3 7C3 9.209 4.791 11 7 11C9.209 11 11 9.209 11 7C11 4.791 9.209 3 7 3ZM7 9.5C5.622 9.5 4.5 8.378 4.5 7C4.5 5.621 5.622 4.5 7 4.5C8.378 4.5 9.5 5.621 9.5 7C9.5 8.378 8.378 9.5 7 9.5Z" fill="white"/>
<path d="M10.4664 3.93274C10.7239 3.93274 10.9327 3.72394 10.9327 3.46637C10.9327 3.2088 10.7239 3 10.4664 3C10.2088 3 10 3.2088 10 3.46637C10 3.72394 10.2088 3.93274 10.4664 3.93274Z" fill="white"/>
</svg>
