<svg width="18" height="18" viewBox="0 0 18 18" fill="none" xmlns="http://www.w3.org/2000/svg">
<path d="M12.1641 0.5625H5.83594C2.92395 0.5625 0.5625 2.92395 0.5625 5.83594V12.1641C0.5625 15.0761 2.92395 17.4375 5.83594 17.4375H12.1641C15.0761 17.4375 17.4375 15.0761 17.4375 12.1641V5.83594C17.4375 2.92395 15.0761 0.5625 12.1641 0.5625ZM15.8555 12.1641C15.8555 14.1996 14.1996 15.8555 12.1641 15.8555H5.83594C3.80039 15.8555 2.14453 14.1996 2.14453 12.1641V5.83594C2.14453 3.80039 3.80039 2.14453 5.83594 2.14453H12.1641C14.1996 2.14453 15.8555 3.80039 15.8555 5.83594V12.1641Z" fill="white"/>
<path d="M9 4.78125C6.6702 4.78125 4.78125 6.6702 4.78125 9C4.78125 11.3298 6.6702 13.2188 9 13.2188C11.3298 13.2188 13.2188 11.3298 13.2188 9C13.2188 6.6702 11.3298 4.78125 9 4.78125ZM9 11.6367C7.54664 11.6367 6.36328 10.4534 6.36328 9C6.36328 7.54559 7.54664 6.36328 9 6.36328C10.4534 6.36328 11.6367 7.54559 11.6367 9C11.6367 10.4534 10.4534 11.6367 9 11.6367Z" fill="white"/>
<path d="M13.5355 5.02696C13.846 5.02696 14.0977 4.77528 14.0977 4.46481C14.0977 4.15435 13.846 3.90266 13.5355 3.90266C13.2251 3.90266 12.9734 4.15435 12.9734 4.46481C12.9734 4.77528 13.2251 5.02696 13.5355 5.02696Z" fill="white"/>
</svg>
