<svg width="87" height="51" fill="none" xmlns="http://www.w3.org/2000/svg"><path d="M86.447 41H1v1.027h85.447V41z" fill="#E73237"/><path fill-rule="evenodd" clip-rule="evenodd" d="M36 6.74v34.59h12.33V4L36 6.74z" fill="#E73237"/><path fill-rule="evenodd" clip-rule="evenodd" d="M48 4v37.33h6.85V6.74L48 4z" fill="#E73237"/><path fill-rule="evenodd" clip-rule="evenodd" d="M37 8.514v1.54l2.055-.342V8L37 8.514zm3-1.172v1.713l2.055-.343V7L40 7.342z" fill="#fff"/><path fill-rule="evenodd" clip-rule="evenodd" d="M42 7.342v1.713l2.055-.514V7L42 7.342zm3-.828v1.54l2.055-.342V6L45 6.514zm-8 5v1.54l2.055-.342V11L37 11.514zm3-1v1.54l2.055-.342V10L40 10.514z" fill="#fff"/><path fill-rule="evenodd" clip-rule="evenodd" d="M42 10.342v1.713l2.055-.343V10L42 10.342zm3-1v1.713l2.055-.514V9L45 9.342zm-8 5v1.713l2.055-.514V14L37 14.342zm3 0v1.541l2.055-.342V14L40 14.342z" fill="#fff"/><path fill-rule="evenodd" clip-rule="evenodd" d="M42 13.514v1.54l2.055-.342V13L42 13.514zm3-1.172v1.713l2.055-.514V12L45 12.342zm-8 5v1.713l2.055-.343V17L37 17.342zm3 0v1.713l2.055-.514V17L40 17.342z" fill="#fff"/><path fill-rule="evenodd" clip-rule="evenodd" d="M42 16.342v1.542l2.055-.343V16L42 16.342zm3 0v1.713l2.055-.343V16L45 16.342zm-8 4v1.713l2.055-.343V20L37 20.342zm3 0v1.713l2.055-.343V20L40 20.342z" fill="#fff"/><path fill-rule="evenodd" clip-rule="evenodd" d="M42 19.342v1.713l2.055-.514V19L42 19.342zm3 .172v1.54l2.055-.342V19L45 19.514zm-8 4v1.54l2.055-.342V23L37 23.514zm3-.172v1.713l2.055-.343V23L40 23.342z" fill="#fff"/><path fill-rule="evenodd" clip-rule="evenodd" d="M42 22.342v1.713l2.055-.343V22L42 22.342zm3 0v1.542l2.055-.343V22L45 22.342zm-8 5v1.542l2.055-.343V27L37 27.342zm3-.828v1.54l2.055-.342V26L40 26.514z" fill="#fff"/><path fill-rule="evenodd" clip-rule="evenodd" d="M42 25.342v1.713l2.055-.343V25L42 25.342zm3 0v1.713l2.055-.514V25L45 25.342zM49 6v1.712l2.055.685v-1.54L49 6zm3 2v1.54l2.055.856V8.685L52 8zm-3 2v1.712l2.055.857v-1.713L49 10zm3 1v1.541l2.055.856v-1.54L52 11zm-3 2v1.712l2.055.857v-1.713L49 13zm3 1v1.541l2.055.856v-1.54L52 14zm-3 2v1.712l2.055.857v-1.713L49 16zm3 1v1.541l2.055.856v-1.54L52 17zm-3 2v1.541l2.055.856v-1.712L49 19zm3 1v1.712l2.055.685v-1.54L52 20zm-3 2v1.541l2.055.856v-1.54L49 22zm3 1v1.712l2.055.857v-1.713L52 23zm-3 2v1.541l2.055.856v-1.54L49 25zm3 1v1.712l2.055.857v-1.713L52 26z" fill="#fff"/><path d="M27 13.226v28.083h10.103v-30.31L27 13.227z" fill="#E73237"/><path fill-rule="evenodd" clip-rule="evenodd" d="M38 11v30.138h5.65V13.226L38 11z" fill="#E73237"/><path fill-rule="evenodd" clip-rule="evenodd" d="M28 14.342v1.37l1.712-.342V14L28 14.342zm2 0v1.2l1.712-.343v-1.2L30 14.343zm3-1v1.37l1.712-.342V13L33 13.342zm2 0v1.37l1.712-.342V13L35 13.342zm-7 4v1.37l1.712-.342V17L28 17.342zm2-1v1.37l1.712-.342V16L30 16.342zm3 0v1.2l1.712-.172V16L33 16.342zm2-1v1.37l1.712-.342V15L35 15.342zm-7 4v1.2l1.712-.172V19L28 19.342zm2 0v1.37l1.712-.342V19L30 19.342zm3-1.171v1.37l1.712-.342v-1.2L33 18.172zm2 .171v1.2l1.712-.172V18L35 18.342zm-7 3.829v1.37l1.712-.342v-1.2L28 22.172zm2-.829v1.37l1.712-.342V21L30 21.342zm3 0v1.37l1.712-.342V21L33 21.342zm2-.171v1.37l1.712-.342v-1.2L35 21.172zm-7 3.171v1.37l1.712-.342V24L28 24.342zm2 0v1.2l1.712-.172V24L30 24.342zm3-1v1.37l1.712-.342V23L33 23.342zm2 0v1.37l1.712-.342V23L35 23.342zm-7 4v1.37l1.712-.342V27L28 27.342zm2-.171v1.37l1.712-.342v-1.2L30 27.172zm3-.829v1.37l1.712-.342V26L33 26.342zm2-1v1.37l1.712-.342V25L35 25.342zm-7 4v1.2l1.712-.172V29L28 29.342zm2 0v1.37l1.712-.342V29L30 29.342zm3 0v1.2l1.712-.343v-1.2L33 29.343zm2-1v1.37l1.712-.342V28L35 28.342zM38 13v1.199l1.712.684v-1.198L38 13zm3 1v1.37l1.541.514v-1.2L41 14zm-3 2v1.37l1.712.685v-1.37L38 16zm3 1v1.199l1.541.684v-1.37L41 17zm-3 1v1.37l1.712.685v-1.37L38 18zm3 1v1.37l1.541.685v-1.37L41 19zm-3 2v1.199l1.712.684v-1.198L38 21zm3 1v1.37l1.541.685v-1.37L41 22zm-3 1v1.37l1.712.685v-1.37L38 23zm3 1v1.199l1.541.684v-1.198L41 24zm-3 2v1.37l1.712.685v-1.37L38 26zm3 1v1.37l1.541.685v-1.37L41 27zm-3 1v1.37l1.712.685v-1.37L38 28zm3 1v1.37l1.541.685v-1.37L41 29z" fill="#fff"/><path d="M21.1 22.5L17 37l.66.186 4.1-14.5-.66-.187zm1 1L18 38l.66.186 4.1-14.5-.66-.187z" fill="#E73237"/><path d="M26.699 38H13v2.226h13.699V38z" fill="#E73237"/><path fill-rule="evenodd" clip-rule="evenodd" d="M25.48 36H20v2.226h6.85L25.48 36z" fill="#E73237"/><path d="M27.306 1.266L18 36l.992.266L28.3 1.532l-.993-.266zM20.623 37H16v1.712h4.623V37zm-7.226 0H11v3.082h2.397V37z" fill="#E73237"/><path d="M19.397 35H17v3.082h2.397V35zm-3 2H14v3.082h2.397V37z" fill="#E73237"/><path fill-rule="evenodd" clip-rule="evenodd" d="M13.37 39c-.685 0-1.37.514-1.37 1.37 0 .685.514 1.37 1.37 1.37.685 0 1.37-.514 1.37-1.37-.171-.856-.685-1.37-1.37-1.37zm3 0c-.685 0-1.37.514-1.37 1.37 0 .685.514 1.37 1.37 1.37.685 0 1.37-.514 1.37-1.37 0-.856-.514-1.37-1.37-1.37zm3 0c-.685 0-1.37.514-1.37 1.37 0 .685.514 1.37 1.37 1.37.685 0 1.37-.514 1.37-1.37 0-.856-.514-1.37-1.37-1.37zm3 0c-.685 0-1.37.514-1.37 1.37 0 .685.514 1.37 1.37 1.37.685 0 1.37-.514 1.37-1.37-.171-.856-.685-1.37-1.37-1.37zm3 0c-.685 0-1.37.514-1.37 1.37 0 .685.514 1.37 1.37 1.37.685 0 1.37-.514 1.37-1.37 0-.856-.685-1.37-1.37-1.37z" fill="#E73237"/><path d="M27.133.504L27 1l1.82.488.132-.496-1.819-.488z" fill="#E73237"/><path d="M28.666 1.427L27 10l.168.033 1.666-8.573-.168-.033z" fill="#E73237"/><path fill-rule="evenodd" clip-rule="evenodd" d="M29.171 2L29 2.17l1.884 8.562h.17L29.172 2z" fill="#E73237"/><path d="M31.11 10H27v.514h4.11V10z" fill="#E73237"/><path d="M8.534 30v2.568H4.082v8.905H1V30h7.534zm9.856 3.767c0 1.199-.342 2.226-1.198 2.911-.685.685-1.884 1.028-3.254 1.028h-.856v3.767H10V30h3.938c1.37 0 2.569.342 3.254 1.027.856.685 1.199 1.713 1.199 2.74zm-5.136 1.541h.513c.514 0 .856-.171 1.028-.342.342-.343.342-.685.342-1.028 0-.856-.514-1.198-1.199-1.198h-.856v2.568h.171zm17.706.514c0 1.883-.515 3.425-1.37 4.452-1.028 1.027-2.398 1.541-4.11 1.541-1.713 0-3.083-.514-4.11-1.54-1.027-1.028-1.37-2.398-1.37-4.453 0-1.884.514-3.425 1.37-4.281C22.397 30.514 23.767 30 25.48 30c1.883 0 3.253.514 4.11 1.541 1.027 1.027 1.37 2.397 1.37 4.28zm-7.707 0c0 2.226.686 3.253 2.227 3.253.856 0 1.37-.342 1.712-.856.342-.514.514-1.37.514-2.568 0-1.199-.172-2.055-.514-2.569-.343-.514-1.027-.856-1.712-.856-1.541.342-2.227 1.37-2.227 3.596zm15.227-3.425c-.685 0-1.37.343-1.713.856-.342.685-.685 1.37-.685 2.569 0 2.226.856 3.253 2.569 3.253.513 0 1.027 0 1.541-.17.514-.172 1.027-.343 1.37-.514v2.568c-1.028.342-2.055.685-3.254.685-1.712 0-3.082-.514-3.938-1.541-.856-1.028-1.37-2.398-1.37-4.281 0-1.199.171-2.226.685-3.082.514-.857 1.027-1.542 1.884-2.055.856-.514 1.883-.685 2.91-.685 1.2 0 2.398.342 3.597.856l-1.028 2.397c-.342-.17-.856-.342-1.199-.513-.342-.343-.856-.343-1.37-.343zm15.452 9.076h-3.425l-3.425-5.822v5.822H44V30h3.082v5.65L50.336 30h3.425l-3.425 5.48 3.596 5.993zm9.458-7.706c0 1.199-.342 2.226-1.198 2.911-.685.685-1.884 1.028-3.254 1.028h-.856v3.767H55V30h3.938c1.37 0 2.569.342 3.254 1.027.856.685 1.199 1.713 1.199 2.74zm-5.308 1.541h.514c.514 0 .856-.171 1.027-.342.343-.343.343-.685.343-1.028 0-.856-.514-1.198-1.199-1.198h-.856v2.568h.171zm14.138 6.165l-.514-2.226h-3.767l-.514 2.226H64L67.767 30h4.11l3.767 11.473H72.22zm-1.2-4.624l-.513-1.883c-.171-.343-.171-1.028-.343-1.541-.17-.685-.342-1.199-.342-1.37 0 .342-.171.685-.342 1.37-.172.685-.514 1.883-.857 3.596h2.398v-.172zm15.74 4.624h-3.082v-4.624h-3.596v4.624H77V30h3.082v4.28h3.596V30h3.082v11.473z" fill="#000"/><path d="M3.767 49.308l-.342-1.198H1.54l-.34 1.198H0L1.884 44h1.37l1.883 5.308h-1.37zm-.514-2.055c-.342-1.198-.513-1.712-.513-1.883 0-.171 0-.343-.171-.343 0 .343-.343 1.028-.685 2.226h1.37zm6.343-1.712c0 .514-.171 1.027-.514 1.37-.342.342-.856.514-1.54.514h-.515v1.712H6V44h1.712c.685 0 1.199.171 1.37.342.343.343.514.685.514 1.199zm-2.397.856h.342c.343 0 .514 0 .685-.171.171-.171.171-.343.171-.514 0-.342 0-.514-.17-.514-.172-.17-.343-.17-.686-.17h-.514v1.37H7.2zm5.883 2.74H10V44h3.082v.856H11.2v1.199h1.712v.856H11.2v1.37h1.883v.856zm5.198 0h-1.027v-2.226H15.2v2.226H14V44h1.199v2.055h2.054V44h1.028v5.137zm.72-.857h.514c.342-.684.685-1.37.856-2.054.171-.685.342-1.37.514-2.226h3.082v4.28h.685v2.398h-1.028v-1.541H20.37v1.541h-1.027v-2.397H19zm2.569-3.424c0 .514-.172 1.199-.343 1.712-.171.685-.342 1.2-.685 1.713h2.055v-3.425h-1.027zm7.198 4.452l-.342-1.198H26.54l-.342 1.198H25L26.884 44h1.37l1.883 5.308h-1.37zm-.514-2.055c-.342-1.198-.513-1.712-.513-1.883 0-.171 0-.343-.171-.343 0 .343-.343 1.028-.685 2.226h1.37zm6.973-2.054c-.342 0-.685.17-1.027.513-.172.171-.172.685-.172 1.199 0 1.199.514 1.712 1.37 1.712.343 0 .857-.171 1.37-.342v.856c-.514.171-.856.343-1.37.343-.685 0-1.37-.172-1.712-.685-.343-.514-.685-1.2-.685-2.055 0-.514.171-1.028.343-1.37.17-.343.513-.685.856-1.028.342-.17.856-.342 1.37-.342.513 0 1.027.171 1.54.342l-.342.857c-.171-.172-.342-.172-.514-.172-.513.172-.856.172-1.027.172z" fill="#E73237"/><path d="M41.11 49.137h-1.2v-4.28h-1.884v4.28H37V44h4.11v5.137zm4.801 0H43V44h2.911v.856h-1.884v1.199h1.713v.856h-1.713v1.37h1.884v.856zm5.199-.857h.685v2.398h-1.028v-1.541H47V44h1.027v4.28h1.884V44h1.199v4.28zm3.459.857h-1.2v-4.28H52V44h3.938v.856h-1.37v4.281zm5.342 0H57V44h2.911v.856h-1.884v1.199h1.884v.856h-1.884v1.37h1.884v.856zm5.055 0h-1.37l-1.199-1.884-1.198 1.884H60l1.712-2.569L60.172 44h1.198l1.027 1.883L63.596 44h1.199l-1.713 2.568 1.884 2.569zm5.486 0h-1.198v-2.226h-2.055v2.226H66V44h1.199v2.055h2.055V44h1.198v5.137zM71 44h1.027v4.11l2.398-3.939h1.37v4.966h-1.028v-4.109l-2.397 4.109H71V44zm11.11 5.137h-1.2l-1.884-2.569v2.569H78V44h1.027v2.568L80.911 44h1.199l-1.884 2.397 1.884 2.74z" fill="#E73237"/><path d="M82 44h1.027v4.11l2.398-3.939h1.37v4.966h-1.028v-4.109l-2.397 4.109H82V44zm4.447-3H1v1.027h85.447V41z" fill="#E73237"/><path fill-rule="evenodd" clip-rule="evenodd" d="M36 6.74v34.59h12.33V4L36 6.74z" fill="#E73237"/><path fill-rule="evenodd" clip-rule="evenodd" d="M48 4v37.33h6.85V6.74L48 4z" fill="#E73237"/><path fill-rule="evenodd" clip-rule="evenodd" d="M37 8.514v1.54l2.055-.342V8L37 8.514zm3-1.172v1.713l2.055-.343V7L40 7.342z" fill="#fff"/><path fill-rule="evenodd" clip-rule="evenodd" d="M42 7.342v1.713l2.055-.514V7L42 7.342zm3-.828v1.54l2.055-.342V6L45 6.514zm-8 5v1.54l2.055-.342V11L37 11.514zm3-1v1.54l2.055-.342V10L40 10.514z" fill="#fff"/><path fill-rule="evenodd" clip-rule="evenodd" d="M42 10.342v1.713l2.055-.343V10L42 10.342zm3-1v1.713l2.055-.514V9L45 9.342zm-8 5v1.713l2.055-.514V14L37 14.342zm3 0v1.541l2.055-.342V14L40 14.342z" fill="#fff"/><path fill-rule="evenodd" clip-rule="evenodd" d="M42 13.514v1.54l2.055-.342V13L42 13.514zm3-1.172v1.713l2.055-.514V12L45 12.342zm-8 5v1.713l2.055-.343V17L37 17.342zm3 0v1.713l2.055-.514V17L40 17.342z" fill="#fff"/><path fill-rule="evenodd" clip-rule="evenodd" d="M42 16.342v1.542l2.055-.343V16L42 16.342zm3 0v1.713l2.055-.343V16L45 16.342zm-8 4v1.713l2.055-.343V20L37 20.342zm3 0v1.713l2.055-.343V20L40 20.342z" fill="#fff"/><path fill-rule="evenodd" clip-rule="evenodd" d="M42 19.342v1.713l2.055-.514V19L42 19.342zm3 .172v1.54l2.055-.342V19L45 19.514zm-8 4v1.54l2.055-.342V23L37 23.514zm3-.172v1.713l2.055-.343V23L40 23.342z" fill="#fff"/><path fill-rule="evenodd" clip-rule="evenodd" d="M42 22.342v1.713l2.055-.343V22L42 22.342zm3 0v1.542l2.055-.343V22L45 22.342zm-8 5v1.542l2.055-.343V27L37 27.342zm3-.828v1.54l2.055-.342V26L40 26.514z" fill="#fff"/><path fill-rule="evenodd" clip-rule="evenodd" d="M42 25.342v1.713l2.055-.343V25L42 25.342zm3 0v1.713l2.055-.514V25L45 25.342zM49 6v1.712l2.055.685v-1.54L49 6zm3 2v1.54l2.055.856V8.685L52 8zm-3 2v1.712l2.055.856v-1.712L49 10zm3 1v1.541l2.055.856v-1.54L52 11zm-3 2v1.712l2.055.856v-1.712L49 13zm3 1v1.541l2.055.856v-1.54L52 14zm-3 2v1.712l2.055.856v-1.712L49 16zm3 1v1.541l2.055.856v-1.54L52 17zm-3 2v1.541l2.055.856v-1.712L49 19zm3 1v1.712l2.055.685v-1.54L52 20zm-3 2v1.541l2.055.856v-1.54L49 22zm3 1v1.712l2.055.856v-1.712L52 23zm-3 2v1.541l2.055.856v-1.54L49 25zm3 1v1.712l2.055.856v-1.712L52 26z" fill="#fff"/><path d="M27 13.226v28.083h10.103v-30.31L27 13.227z" fill="#E73237"/><path fill-rule="evenodd" clip-rule="evenodd" d="M38 11v30.138h5.65V13.226L38 11z" fill="#E73237"/><path fill-rule="evenodd" clip-rule="evenodd" d="M28 14.342v1.37l1.712-.342V14L28 14.342zm2 0v1.199l1.712-.343V14L30 14.342zm3-1v1.37l1.712-.342V13L33 13.342zm2 0v1.37l1.712-.342V13L35 13.342zm-7 4v1.37l1.712-.342V17L28 17.342zm2-1v1.37l1.712-.342V16L30 16.342zm3 0v1.199l1.712-.171V16L33 16.342zm2-1v1.37l1.712-.342V15L35 15.342zm-7 4v1.199l1.712-.171V19L28 19.342zm2 0v1.37l1.712-.342V19L30 19.342zm3-1.171v1.37l1.712-.343V18L33 18.17zm2 .171v1.199l1.712-.171V18L35 18.342zm-7 3.829v1.37l1.712-.343V22L28 22.17zm2-.829v1.37l1.712-.342V21L30 21.342zm3 0v1.37l1.712-.342V21L33 21.342zm2-.171v1.37l1.712-.343V21L35 21.17zm-7 3.171v1.37l1.712-.342V24L28 24.342zm2 0v1.199l1.712-.171V24L30 24.342zm3-1v1.37l1.712-.342V23L33 23.342zm2 0v1.37l1.712-.342V23L35 23.342zm-7 4v1.37l1.712-.342V27L28 27.342zm2-.171v1.37l1.712-.343V27L30 27.17zm3-.829v1.37l1.712-.342V26L33 26.342zm2-1v1.37l1.712-.342V25L35 25.342zm-7 4v1.199l1.712-.171V29L28 29.342zm2 0v1.37l1.712-.342V29L30 29.342zm3 0v1.199l1.712-.343V29L33 29.342zm2-1v1.37l1.712-.342V28L35 28.342zM38 13v1.198l1.712.685v-1.198L38 13zm3 1v1.37l1.541.514v-1.2L41 14zm-3 2v1.37l1.712.685v-1.37L38 16zm3 1v1.198l1.541.686v-1.37L41 17zm-3 1v1.37l1.712.685v-1.37L38 18zm3 1v1.37l1.541.685v-1.37L41 19zm-3 2v1.198l1.712.686v-1.2L38 21zm3 1v1.37l1.541.685v-1.37L41 22zm-3 1v1.37l1.712.685v-1.37L38 23zm3 1v1.198l1.541.686v-1.2L41 24zm-3 2v1.37l1.712.685v-1.37L38 26zm3 1v1.37l1.541.685v-1.37L41 27zm-3 1v1.37l1.712.685v-1.37L38 28zm3 1v1.37l1.541.685v-1.37L41 29z" fill="#fff"/><path d="M21.1 22.5L17 37l.66.186 4.1-14.5-.66-.187zm1 1L18 38l.66.186 4.1-14.5-.66-.187z" fill="#E73237"/><path d="M26.699 38H13v2.226h13.699V38z" fill="#E73237"/><path fill-rule="evenodd" clip-rule="evenodd" d="M25.48 36H20v2.226h6.85L25.48 36z" fill="#E73237"/><path d="M27.306 1.266L18 36l.992.266L28.3 1.532l-.993-.266zM20.623 37H16v1.712h4.623V37zm-7.226 0H11v3.082h2.397V37z" fill="#E73237"/><path d="M19.397 35H17v3.082h2.397V35zm-3 2H14v3.082h2.397V37z" fill="#E73237"/><path fill-rule="evenodd" clip-rule="evenodd" d="M13.37 39c-.685 0-1.37.514-1.37 1.37 0 .685.514 1.37 1.37 1.37.685 0 1.37-.514 1.37-1.37-.171-.856-.685-1.37-1.37-1.37zm3 0c-.685 0-1.37.514-1.37 1.37 0 .685.514 1.37 1.37 1.37.685 0 1.37-.514 1.37-1.37 0-.856-.514-1.37-1.37-1.37zm3 0c-.685 0-1.37.514-1.37 1.37 0 .685.514 1.37 1.37 1.37.685 0 1.37-.514 1.37-1.37 0-.856-.514-1.37-1.37-1.37zm3 0c-.685 0-1.37.514-1.37 1.37 0 .685.514 1.37 1.37 1.37.685 0 1.37-.514 1.37-1.37-.171-.856-.685-1.37-1.37-1.37zm3 0c-.685 0-1.37.514-1.37 1.37 0 .685.514 1.37 1.37 1.37.685 0 1.37-.514 1.37-1.37 0-.856-.685-1.37-1.37-1.37z" fill="#E73237"/><path d="M27.133.504L27 1l1.82.488.132-.496-1.819-.488z" fill="#E73237"/><path d="M28.666 1.427L27 10l.168.033 1.666-8.573-.168-.033z" fill="#E73237"/><path fill-rule="evenodd" clip-rule="evenodd" d="M29.171 2L29 2.17l1.884 8.562h.17L29.172 2z" fill="#E73237"/><path d="M31.11 10H27v.514h4.11V10z" fill="#E73237"/><path d="M8.534 30v2.568H4.082v8.905H1V30h7.534zm9.856 3.767c0 1.199-.342 2.226-1.198 2.911-.685.685-1.884 1.028-3.254 1.028h-.856v3.767H10V30h3.938c1.37 0 2.569.342 3.254 1.027.856.685 1.199 1.713 1.199 2.74zm-5.136 1.541h.513c.514 0 .856-.171 1.028-.342.342-.343.342-.685.342-1.028 0-.856-.514-1.198-1.199-1.198h-.856v2.568h.171zm17.706.514c0 1.883-.515 3.425-1.37 4.452-1.028 1.027-2.398 1.541-4.11 1.541-1.713 0-3.083-.514-4.11-1.54-1.027-1.028-1.37-2.398-1.37-4.453 0-1.884.514-3.425 1.37-4.281C22.397 30.514 23.767 30 25.48 30c1.883 0 3.253.514 4.11 1.541 1.027 1.027 1.37 2.397 1.37 4.28zm-7.707 0c0 2.226.686 3.253 2.227 3.253.856 0 1.37-.342 1.712-.856.342-.514.514-1.37.514-2.568 0-1.199-.172-2.055-.514-2.569-.343-.514-1.027-.856-1.712-.856-1.541.342-2.227 1.37-2.227 3.596zm15.227-3.425c-.685 0-1.37.343-1.713.856-.342.685-.685 1.37-.685 2.569 0 2.226.856 3.253 2.569 3.253.513 0 1.027 0 1.541-.17.514-.172 1.027-.343 1.37-.514v2.568c-1.028.342-2.055.685-3.254.685-1.712 0-3.082-.514-3.938-1.541-.856-1.028-1.37-2.398-1.37-4.281 0-1.199.171-2.226.685-3.082.514-.857 1.027-1.542 1.884-2.055.856-.514 1.883-.685 2.91-.685 1.2 0 2.398.342 3.597.856l-1.028 2.397c-.342-.17-.856-.342-1.199-.513-.342-.343-.856-.343-1.37-.343zm15.452 9.076h-3.425l-3.425-5.822v5.822H44V30h3.082v5.65L50.336 30h3.425l-3.425 5.48 3.596 5.993zm9.458-7.706c0 1.199-.342 2.226-1.198 2.911-.685.685-1.884 1.028-3.254 1.028h-.856v3.767H55V30h3.938c1.37 0 2.569.342 3.254 1.027.856.685 1.199 1.713 1.199 2.74zm-5.308 1.541h.514c.514 0 .856-.171 1.027-.342.343-.343.343-.685.343-1.028 0-.856-.514-1.198-1.199-1.198h-.856v2.568h.171zm14.138 6.165l-.514-2.226h-3.767l-.514 2.226H64L67.767 30h4.11l3.767 11.473H72.22zm-1.2-4.624l-.513-1.883c-.171-.343-.171-1.028-.343-1.541-.17-.685-.342-1.199-.342-1.37 0 .342-.171.685-.342 1.37-.172.685-.514 1.883-.857 3.596h2.398v-.172zm15.74 4.624h-3.082v-4.624h-3.596v4.624H77V30h3.082v4.28h3.596V30h3.082v11.473z" fill="#2D2828"/></svg>