<svg width="30" height="30" viewBox="0 0 30 30" fill="none" xmlns="http://www.w3.org/2000/svg">
<g clip-path="url(#clip0)">
<path d="M0.878906 30.4951H9.84826C10.3337 30.4951 10.7272 30.1016 10.7272 29.6162V28.637C10.7272 26.6051 9.59145 24.8336 7.92152 23.9237C8.51461 23.294 8.87924 22.4469 8.87924 21.5156C8.87924 19.5771 7.30213 18 5.36361 18C3.4251 18 1.84799 19.5771 1.84799 21.5156C1.84799 22.4469 2.21262 23.294 2.8057 23.9237C1.13572 24.8336 0 26.6051 0 28.637V29.6162C0 30.1016 0.393516 30.4951 0.878906 30.4951ZM3.6058 21.5156C3.6058 20.5464 4.39436 19.7578 5.36361 19.7578C6.33287 19.7578 7.12143 20.5464 7.12143 21.5156C7.12143 22.4849 6.33287 23.2734 5.36361 23.2734C4.39436 23.2734 3.6058 22.4849 3.6058 21.5156ZM5.36361 25.0312C7.24664 25.0312 8.96936 26.5074 8.96936 28.7373H1.75781C1.75781 26.519 3.47051 25.0312 5.36361 25.0312Z" fill="#E73237"/>
<path d="M26.9215 23.9237C27.5146 23.294 27.8792 22.4469 27.8792 21.5156C27.8792 19.5771 26.3021 18 24.3636 18C22.425 18 20.8479 19.5771 20.8479 21.5156C20.8479 22.4469 21.2126 23.294 21.8056 23.9237C20.1357 24.8336 19 26.6051 19 28.637V29.6162C19 30.1016 19.3935 30.4951 19.8789 30.4951H28.8482C29.3336 30.4951 29.7271 30.1016 29.7271 29.6162V28.637C29.7271 26.6051 28.5914 24.8336 26.9215 23.9237ZM22.6057 21.5156C22.6057 20.5464 23.3942 19.7578 24.3635 19.7578C25.3328 19.7578 26.1213 20.5464 26.1213 21.5156C26.1213 22.4849 25.3328 23.2734 24.3635 23.2734C23.3942 23.2734 22.6057 22.4849 22.6057 21.5156ZM27.9693 28.7373H20.7578C20.7578 26.519 22.4704 25.0312 24.3635 25.0312C26.2465 25.0312 27.9693 26.5072 27.9693 28.7373Z" fill="#E73237"/>
<path d="M20.7272 11.6162V10.637C20.7272 8.60514 19.5914 6.83355 17.9215 5.92365C18.5146 5.294 18.8792 4.44686 18.8792 3.51562C18.8792 1.57711 17.3021 0 15.3636 0C13.425 0 11.8479 1.57711 11.8479 3.51562C11.8479 4.44686 12.2126 5.294 12.8056 5.92365C11.1357 6.83355 10 8.60514 10 10.637V11.6162C10 12.1016 10.3935 12.4951 10.8789 12.4951H19.8483C20.3337 12.4951 20.7272 12.1016 20.7272 11.6162ZM13.6057 3.51562C13.6057 2.54637 14.3943 1.75781 15.3636 1.75781C16.3328 1.75781 17.1214 2.54637 17.1214 3.51562C17.1214 4.48488 16.3328 5.27344 15.3636 5.27344C14.3943 5.27344 13.6057 4.48488 13.6057 3.51562ZM18.9694 10.7373H11.7578C11.7578 8.519 13.4704 7.03125 15.3636 7.03125C17.2465 7.03125 18.9694 8.50723 18.9694 10.7373Z" fill="#E73237"/>
<path d="M18.2243 22.0442C17.0761 22.4214 15.8652 22.6126 14.6256 22.6126C13.4294 22.6126 12.2581 22.4339 11.1442 22.0816C10.6812 21.9354 10.1875 22.1918 10.0411 22.6545C9.89478 23.1173 10.1513 23.6112 10.6141 23.7576C11.8996 24.1641 13.2493 24.3703 14.6256 24.3703C16.0519 24.3703 17.4473 24.1496 18.7729 23.7141C19.2341 23.5627 19.4851 23.066 19.3336 22.6049C19.1822 22.1437 18.6855 21.8926 18.2243 22.0442Z" fill="#E73237"/>
<path d="M6.86931 7.24609C5.89864 8.18177 5.07347 9.26951 4.41669 10.4792C3.73607 11.7328 3.26427 13.0644 3.01443 14.4371C2.91651 14.975 3.32931 15.4735 3.88015 15.4735C4.29663 15.4735 4.66659 15.1761 4.74382 14.7518C4.96027 13.5628 5.36995 12.4074 5.96146 11.3179C6.53234 10.2666 7.24818 9.32242 8.08923 8.51171C8.43868 8.17486 8.44894 7.61845 8.11208 7.26894C7.77517 6.91949 7.21882 6.90923 6.86931 7.24609Z" fill="#E73237"/>
<path d="M23.4889 7.24611C23.1394 6.9092 22.583 6.91951 22.2461 7.26896C21.9093 7.61848 21.9195 8.17488 22.269 8.51174C23.11 9.32244 23.8259 10.2666 24.3967 11.318C24.9883 12.4075 25.3979 13.5629 25.6144 14.7519C25.7012 15.2289 26.1582 15.5461 26.6364 15.4591C27.114 15.3722 27.4307 14.9146 27.3438 14.4371C27.0939 13.0644 26.6221 11.7328 25.9415 10.4792C25.2847 9.26953 24.4595 8.18174 23.4889 7.24611Z" fill="#E73237"/>
</g>
<defs>
<clipPath id="clip0">
<rect width="30" height="30" fill="white"/>
</clipPath>
</defs>
</svg>
