<svg width="30" height="30" viewBox="0 0 30 30" fill="none" xmlns="http://www.w3.org/2000/svg">
<g clip-path="url(#clip0)">
<path d="M29.1211 19.6875H26.7882L24.1618 14.5419C24.0117 14.2477 23.7092 14.0625 23.379 14.0625H18.6915C18.2061 14.0625 17.8126 14.456 17.8126 14.9414V19.6875H13.0183L10.2972 16.9664L25.8357 6.96475V8.84766C25.8357 9.33305 26.2292 9.72656 26.7146 9.72656C27.2638 9.72656 27.7107 10.1734 27.7107 10.7227C27.7107 11.2719 27.2638 11.7188 26.7146 11.7188C26.4133 11.7188 26.0914 11.5853 25.9135 11.3867C25.5897 11.0251 25.0341 10.9945 24.6724 11.3183C24.3109 11.6421 24.2802 12.1978 24.604 12.5593C25.1183 13.1337 25.9073 13.4766 26.7146 13.4766C28.2331 13.4766 29.4685 12.2412 29.4685 10.7227C29.4685 9.51129 28.6824 8.48016 27.5935 8.11254V6.32742C28.9467 5.94445 29.9414 4.69904 29.9414 3.22482C29.9414 1.44662 28.4948 0 26.7167 0C25.2326 0 23.9802 1.00805 23.6063 2.37516L5.19295 12.7698C4.91685 12.9257 4.74611 13.2181 4.74611 13.5352V15.9393C4.73966 15.9393 1.86828 15.9375 1.87501 15.9375C1.39009 15.9375 0.996108 16.3309 0.996108 16.8164V20.4579L0.0263803 24.3278C-0.0442252 24.6095 0.0288999 24.9079 0.221732 25.125L2.15533 27.3023C2.32214 27.4902 2.56132 27.5977 2.81252 27.5977H4.40017C5.08244 30.0004 8.1275 30.7476 9.84377 28.9271C11.5591 30.7465 14.6046 30.0018 15.2874 27.5977H19.869C20.2526 28.9487 21.4965 29.9414 22.9688 29.9414C24.4411 29.9414 25.685 28.9487 26.0687 27.5977H27.6563C27.8832 27.5977 28.1013 27.5099 28.265 27.3528L29.7298 25.9465C29.9024 25.7808 30 25.5519 30 25.3125V20.5664C30 20.081 29.6065 19.6875 29.1211 19.6875ZM19.5703 15.8203H22.8407L24.8147 19.6875H19.5703V15.8203ZM26.7167 1.75781C27.5256 1.75781 28.1836 2.41588 28.1836 3.22482C28.1836 4.01537 27.555 4.66148 26.7714 4.69043C26.7089 4.68645 26.717 4.68674 26.6591 4.69037C25.8768 4.65996 25.2497 4.01443 25.2497 3.22488C25.2497 2.41588 25.9078 1.75781 26.7167 1.75781ZM6.50392 14.0483L23.6928 4.3449C23.8838 4.85889 24.2026 5.31082 24.6099 5.66326L8.64787 15.9375H6.50392V14.0483ZM8.54416 17.6994L10.5322 19.6875H2.75392V17.6958L8.54416 17.6994ZM7.50002 28.1836C6.6923 28.1836 6.03517 27.5265 6.03517 26.7188C6.03517 25.911 6.6923 25.2539 7.50002 25.2539C8.30773 25.2539 8.96486 25.911 8.96486 26.7188C8.96486 27.5265 8.30773 28.1836 7.50002 28.1836ZM12.1875 28.1836C11.3798 28.1836 10.7227 27.5265 10.7227 26.7188C10.7227 25.911 11.3798 25.2539 12.1875 25.2539C12.9952 25.2539 13.6524 25.911 13.6524 26.7188C13.6524 27.5265 12.9952 28.1836 12.1875 28.1836ZM22.9688 28.1836C22.1611 28.1836 21.5039 27.5265 21.5039 26.7188C21.5039 25.911 22.1611 25.2539 22.9688 25.2539C23.7765 25.2539 24.4336 25.911 24.4336 26.7188C24.4336 27.5265 23.7765 28.1836 22.9688 28.1836ZM28.2422 24.9379L27.3027 25.8398H26.0686C25.685 24.4888 24.4411 23.4961 22.9688 23.4961C21.4965 23.4961 20.2526 24.4888 19.8689 25.8398H15.2873C14.605 23.4371 11.56 22.6899 9.84371 24.5104C8.12838 22.691 5.08285 23.4357 4.40011 25.8398H3.2075L1.84431 24.3049L2.56085 21.4455C2.58921 21.4455 8.56197 21.4454 28.2423 21.4454V24.9379H28.2422Z" fill="#E73237"/>
</g>
<defs>
<clipPath id="clip0">
<rect width="30" height="30" fill="white"/>
</clipPath>
</defs>
</svg>
