<svg width="30" height="30" viewBox="0 0 30 30" fill="none" xmlns="http://www.w3.org/2000/svg">
<path d="M27.2562 7.36879H26.8829V3.7438C26.8829 2.23091 25.6521 1 24.1391 1H4.23828C2.04221 1 0.231539 2.67974 0.022521 4.82182C-0.00940014 4.97318 0.00196659 3.62448 0.00196659 24.5141C0.00196659 26.85 1.90233 28.7504 4.23823 28.7504H27.2562C28.7691 28.7504 30 27.5195 30 26.0066V10.1126C30 8.5997 28.7692 7.36879 27.2562 7.36879ZM4.23828 2.8847H24.1391C24.6129 2.8847 24.9983 3.27011 24.9983 3.74386V7.36885H4.23828C2.97834 7.36885 1.94692 6.37276 1.88943 5.12677C1.94686 3.88073 2.97828 2.8847 4.23828 2.8847ZM27.2562 26.8657H4.23828C2.94159 26.8657 1.88667 25.8108 1.88667 24.5141V8.53927C2.55989 8.99023 3.36888 9.25343 4.23828 9.25343H27.2562C27.73 9.25343 28.1154 9.63884 28.1154 10.1126V13.9329H21.024C18.6088 13.9329 16.644 15.8977 16.644 18.3128C16.644 20.7279 18.6088 22.6927 21.024 22.6927H28.1154V26.0066C28.1154 26.4803 27.73 26.8657 27.2562 26.8657ZM28.1154 20.8081H21.024C19.648 20.8081 18.5286 19.6887 18.5286 18.3128C18.5286 16.9369 19.648 15.8176 21.024 15.8176H28.1154V20.8081Z" fill="#E73237"/>
<path d="M21.3657 19.7313C22.1199 19.7313 22.7313 19.1199 22.7313 18.3657C22.7313 17.6114 22.1199 17 21.3657 17C20.6114 17 20 17.6114 20 18.3657C20 19.1199 20.6114 19.7313 21.3657 19.7313Z" fill="#E73237"/>
</svg>
