<svg width="30" height="30" viewBox="0 0 30 30" fill="none" xmlns="http://www.w3.org/2000/svg">
<g clip-path="url(#clip0)">
<path d="M0.878978 21.8515H5.2735V24.4882C5.2735 24.9736 5.66702 25.3671 6.1524 25.3671H29.1211C29.6065 25.3671 30 24.9736 30 24.4882V1.63671C30 1.15132 29.6065 0.757809 29.1211 0.757809H24.7266V-0.121095C24.7266 -0.606485 24.3331 -1 23.8477 -1C23.3623 -1 22.9688 -0.606485 22.9688 -0.121095V0.757809H18.5157V-0.121095C18.5157 -0.606485 18.1221 -1 17.6368 -1C17.1514 -1 16.7579 -0.606485 16.7579 -0.121095V0.757809H12.3633V-0.121095C12.3633 -0.606485 11.9698 -1 11.4844 -1C10.999 -1 10.6055 -0.606485 10.6055 -0.121095V0.757809H6.1524C5.66702 0.757809 5.2735 1.15132 5.2735 1.63671V6.91014C5.2735 13.3877 2.58142 18.3708 0.316303 20.2974C0.0320068 20.5343 -0.0734031 20.9239 0.0525146 21.2719C0.17855 21.6198 0.5089 21.8515 0.878978 21.8515ZM28.2422 23.6093H7.03131V21.8515H23.8477C24.0533 21.8515 24.2524 21.7794 24.4104 21.6478C25.4669 20.7678 27.1035 18.6726 28.2422 15.9891V23.6093ZM7.03131 2.51562H10.6055V3.39452C10.6055 3.87991 10.999 4.27343 11.4844 4.27343C11.9698 4.27343 12.3633 3.87991 12.3633 3.39452V2.51562H16.7579V3.39452C16.7579 3.87991 17.1514 4.27343 17.6368 4.27343C18.1221 4.27343 18.5157 3.87991 18.5157 3.39452V2.51562H22.9688V3.39452C22.9688 3.87991 23.3623 4.27343 23.8477 4.27343C24.3331 4.27343 24.7266 3.87991 24.7266 3.39452V2.51562H28.2422V6.03124H7.03131V2.51562ZM7.01625 7.78846H28.2266C28.0286 13.3639 25.8887 17.7507 23.503 20.0937H2.87813C5.58123 16.6495 6.87123 12.1649 7.01625 7.78846Z" fill="#E73237"/>
</g>
<defs>
<clipPath id="clip0">
<rect width="30" height="30" fill="white"/>
</clipPath>
</defs>
</svg>
