<svg width="14" height="14" viewBox="0 0 14 14" fill="none" xmlns="http://www.w3.org/2000/svg">
<path d="M13.9799 5.31614C13.9317 5.16047 13.8033 5.04704 13.6488 5.02351L9.30878 4.36237L7.36781 0.239662C7.29872 0.0929011 7.15615 0 7.00001 0C6.84391 0 6.70131 0.0929298 6.63221 0.239662L4.69114 4.36239L0.351172 5.02351C0.19668 5.04704 0.0683289 5.1605 0.0200946 5.31614C-0.028167 5.47179 0.0120829 5.64266 0.123864 5.75689L3.26423 8.966L2.523 13.4973C2.49661 13.6586 2.55989 13.8217 2.68619 13.9178C2.81246 14.014 2.97986 14.0267 3.11814 13.9506L6.99999 11.8112L10.8817 13.9506C10.9417 13.9837 11.0073 14 11.0726 14C11.1576 14 11.2423 13.9723 11.3137 13.9179C11.44 13.8217 11.5032 13.6587 11.4769 13.4973L10.7354 8.966L13.8761 5.75691C13.9879 5.64266 14.0282 5.47179 13.9799 5.31614Z" fill="white"/>
</svg>
