<svg width="13" height="15" viewBox="0 0 13 15" fill="none" xmlns="http://www.w3.org/2000/svg">
<path d="M8.58594 9.0625C9.58854 9.0625 10.4453 9.42708 11.1562 10.1562C11.8854 10.8672 12.25 11.724 12.25 12.7266V13.4375C12.25 13.8021 12.1224 14.112 11.8672 14.3672C11.612 14.6224 11.3021 14.75 10.9375 14.75H1.3125C0.947917 14.75 0.638021 14.6224 0.382812 14.3672C0.127604 14.112 0 13.8021 0 13.4375V12.7266C0 11.724 0.355469 10.8672 1.06641 10.1562C1.79557 9.42708 2.66146 9.0625 3.66406 9.0625C3.90104 9.0625 4.2474 9.13542 4.70312 9.28125C5.17708 9.42708 5.65104 9.5 6.125 9.5C6.59896 9.5 7.07292 9.42708 7.54688 9.28125C8.02083 9.13542 8.36719 9.0625 8.58594 9.0625ZM10.9375 13.4375V12.7266C10.9375 12.0885 10.7005 11.5417 10.2266 11.0859C9.77083 10.612 9.22396 10.375 8.58594 10.375C8.53125 10.375 8.23958 10.4479 7.71094 10.5938C7.20052 10.7396 6.67188 10.8125 6.125 10.8125C5.57812 10.8125 5.04036 10.7396 4.51172 10.5938C4.0013 10.4479 3.71875 10.375 3.66406 10.375C3.02604 10.375 2.47005 10.612 1.99609 11.0859C1.54036 11.5417 1.3125 12.0885 1.3125 12.7266V13.4375H10.9375ZM8.91406 7.47656C8.14844 8.24219 7.21875 8.625 6.125 8.625C5.03125 8.625 4.10156 8.24219 3.33594 7.47656C2.57031 6.71094 2.1875 5.78125 2.1875 4.6875C2.1875 3.59375 2.57031 2.66406 3.33594 1.89844C4.10156 1.13281 5.03125 0.75 6.125 0.75C7.21875 0.75 8.14844 1.13281 8.91406 1.89844C9.67969 2.66406 10.0625 3.59375 10.0625 4.6875C10.0625 5.78125 9.67969 6.71094 8.91406 7.47656ZM7.98438 2.82812C7.47396 2.31771 6.85417 2.0625 6.125 2.0625C5.39583 2.0625 4.77604 2.31771 4.26562 2.82812C3.75521 3.33854 3.5 3.95833 3.5 4.6875C3.5 5.41667 3.75521 6.03646 4.26562 6.54688C4.77604 7.05729 5.39583 7.3125 6.125 7.3125C6.85417 7.3125 7.47396 7.05729 7.98438 6.54688C8.49479 6.03646 8.75 5.41667 8.75 4.6875C8.75 3.95833 8.49479 3.33854 7.98438 2.82812Z" fill="#666666"/>
</svg>
