<svg width="9" height="10" viewBox="0 0 9 10" fill="none" xmlns="http://www.w3.org/2000/svg">
<g clip-path="url(#clip0)">
<path d="M4.5 0.5C2.01453 0.5 0 2.51453 0 5C0 7.48544 2.01453 9.5 4.5 9.5C6.98544 9.5 9 7.48544 9 5C9 2.51453 6.98544 0.5 4.5 0.5ZM6.65326 5.36129L3.96905 7.20788C3.89438 7.25903 3.80746 7.28518 3.72032 7.28518C3.65017 7.28518 3.58053 7.26851 3.5164 7.23501C3.37227 7.15877 3.28176 7.00931 3.28176 6.84665V3.15341C3.28176 2.99074 3.37227 2.84126 3.5164 2.76502C3.66053 2.68942 3.83467 2.69983 3.96905 2.79215L6.65326 4.63871C6.77204 4.72049 6.84321 4.85577 6.84321 5C6.84321 5.14423 6.77206 5.27951 6.65326 5.36129Z" fill="white"/>
</g>
<defs>
<clipPath id="clip0">
<rect width="9" height="9" fill="white" transform="translate(0 0.5)"/>
</clipPath>
</defs>
</svg>
