<svg width="18" height="18" viewBox="0 0 18 18" fill="none" xmlns="http://www.w3.org/2000/svg">
<path d="M14.5347 3.41218C13.0552 1.93814 11.0869 1.12584 8.99206 1.125C6.90194 1.125 4.93055 1.93658 3.44126 3.41026C1.94932 4.88645 1.12692 6.84824 1.125 8.92705V8.93092C1.12524 10.1891 1.45581 11.4584 2.0833 12.617L1.14651 16.875L5.45351 15.8953C6.54435 16.4451 7.76148 16.7349 8.98907 16.7354H8.99219C11.0819 16.7354 13.0533 15.9237 14.5429 14.4499C16.0362 12.9725 16.8589 11.0132 16.8598 8.93306C16.8604 6.86758 16.0348 4.90689 14.5347 3.41218ZM8.99206 15.5061H8.98929C7.88704 15.5056 6.79487 15.2289 5.83107 14.7056L5.62739 14.595L2.76342 15.2464L3.38551 12.4192L3.26558 12.2124C2.66933 11.1842 2.35427 10.0491 2.35427 8.9296C2.35655 5.30584 5.33393 2.35427 8.99184 2.35427C10.759 2.35499 12.4194 3.04004 13.6671 4.283C14.9338 5.54521 15.6311 7.19647 15.6305 8.93272C15.629 12.5573 12.651 15.5061 8.99206 15.5061Z" fill="white"/>
<path d="M6.85135 5.48895H6.50649C6.38644 5.48895 6.19155 5.5339 6.02668 5.71329C5.86172 5.89284 5.39678 6.32672 5.39678 7.20922C5.39678 8.0917 6.04171 8.94437 6.13158 9.06417C6.2216 9.18383 7.37649 11.0526 9.2056 11.7716C10.7258 12.369 11.0352 12.2502 11.3651 12.2202C11.695 12.1904 12.4298 11.7865 12.5798 11.3677C12.7297 10.9489 12.7297 10.5899 12.6848 10.5149C12.6397 10.4401 12.5197 10.3953 12.3398 10.3057C12.1598 10.2159 11.2778 9.77468 11.1128 9.71474C10.9478 9.65501 10.8279 9.62509 10.7079 9.80473C10.5878 9.98403 10.2344 10.3988 10.1294 10.5185C10.0245 10.6383 9.91948 10.6533 9.73949 10.5636C9.55947 10.4736 8.98582 10.2808 8.29837 9.66991C7.76328 9.19442 7.39199 8.58807 7.28697 8.40856C7.18204 8.22916 7.27578 8.13205 7.36603 8.04253C7.44689 7.96226 7.55613 7.85246 7.64613 7.74778C7.736 7.64301 7.76161 7.56826 7.82168 7.44856C7.88165 7.32889 7.8516 7.22412 7.80665 7.13448C7.76161 7.0447 7.41624 6.15779 7.25619 5.80306H7.25632C7.1215 5.50435 6.97959 5.49424 6.85135 5.48895Z" fill="white"/>
</svg>
